<?xml version="1.0" encoding="UTF-8"?>
<svg version="1.1" xmlns="http://www.w3.org/2000/svg" width="350" height="350">
<path d="M0 0 C115.5 0 231 0 350 0 C350 115.5 350 231 350 350 C234.5 350 119 350 0 350 C0 234.5 0 119 0 0 Z " fill="#353535" transform="translate(0,0)"/>
<path d="M0 0 C1.2684375 0.4640625 1.2684375 0.4640625 2.5625 0.9375 C5.85531181 2.37282822 7.57600135 4.34514433 10 7 C10.55945313 7.60199219 11.11890625 8.20398438 11.6953125 8.82421875 C21.97018622 20.14437184 25.70425587 31.19276733 25.27734375 46.6640625 C24.10720067 60.73874126 17.58144845 73.36268079 7.4296875 83.01171875 C1.33398821 88 1.33398821 88 -2 88 C-2 88.66 -2 89.32 -2 90 C-2.60328125 90.19335938 -3.2065625 90.38671875 -3.828125 90.5859375 C-4.62734375 90.84632813 -5.4265625 91.10671875 -6.25 91.375 C-7.03890625 91.63023437 -7.8278125 91.88546875 -8.640625 92.1484375 C-10.96820179 92.91866064 -10.96820179 92.91866064 -12.86669922 94.0300293 C-21.3319415 97.87901162 -35.13151781 95.80521619 -43.6875 92.9375 C-57.84146348 86.95765981 -68.77838195 76.29314508 -74.81591797 62.07910156 C-77.112275 55.95639352 -77.54266394 50.25328024 -77.5 43.75 C-77.49427979 42.73728027 -77.48855957 41.72456055 -77.48266602 40.68115234 C-77.18862353 28.31948747 -73.38591914 19.18956973 -65 10 C-64.38125 9.30132812 -63.7625 8.60265625 -63.125 7.8828125 C-47.65784637 -8.64458956 -18.97978074 -14.00888579 0 0 Z " fill="#383736" transform="translate(201,88)"/>
<path d="M0 0 C0.495 0.99 0.495 0.99 1 2 C1.825 2.33 2.65 2.66 3.5 3 C6 4 6 4 7 6 C7.99 6.33 8.98 6.66 10 7 C18.62837999 15.17987509 24.35944209 24.8006566 28 36 C28.52335938 37.155 29.04671875 38.31 29.5859375 39.5 C31.76991696 45.2943705 31.43531262 51.26332151 31.375 57.375 C31.38660156 58.54289062 31.39820313 59.71078125 31.41015625 60.9140625 C31.37982469 69.93264749 30.61126396 77.72458785 25 85 C24.29485154 87.14733927 24.29485154 87.14733927 24 89 C23.34 89 22.68 89 22 89 C21.74347656 89.72445312 21.48695313 90.44890625 21.22265625 91.1953125 C17.35552508 100.06623959 9.1424165 108.36629814 0.23046875 112.1875 C-0.87361328 112.5896875 -0.87361328 112.5896875 -2 113 C-2 113.66 -2 114.32 -2 115 C-7.18484331 119.01407224 -13.5962975 120 -20 120 C-20 120.66 -20 121.32 -20 122 C-49.83609791 122.8335001 -49.83609791 122.8335001 -60 118 C-60.94230469 117.57589844 -61.88460937 117.15179688 -62.85546875 116.71484375 C-72.55631577 111.91125192 -80.40144081 104.50866844 -87 96 C-87 95.34 -87 94.68 -87 94 C-87.66 94 -88.32 94 -89 94 C-97.79538046 77.05985626 -103.93879189 59.7580808 -98.46484375 40.53173828 C-97.42710916 37.29969217 -96.24854861 34.15788896 -95 31 C-94.65066406 30.07703125 -94.30132812 29.1540625 -93.94140625 28.203125 C-90.60652964 20.53168722 -84.81692151 14.84178015 -79 9 C-78.04480469 7.99259766 -78.04480469 7.99259766 -77.0703125 6.96484375 C-56.90786157 -12.70474727 -23.59451176 -13.95731681 0 0 Z M-42.390625 -4.91015625 C-49.1108999 -4.55691103 -54.06639778 -3.08800258 -60 0 C-60.77730469 0.32613281 -61.55460937 0.65226562 -62.35546875 0.98828125 C-73.79431001 5.98936447 -82.66529186 15.41249622 -89 26 C-89.59554687 26.98033203 -89.59554687 26.98033203 -90.203125 27.98046875 C-96.12321071 38.6940567 -96.46380124 50.08763121 -96 62 C-95.99226563 62.969375 -95.98453125 63.93875 -95.9765625 64.9375 C-95.65362421 73.2842126 -92.32625668 80.46251926 -89 88 C-88.34 88 -87.68 88 -87 88 C-86.63261719 89.08667969 -86.63261719 89.08667969 -86.2578125 90.1953125 C-81.89043345 99.93375399 -71.14743648 109.20552723 -61.3046875 113.15625 C-60.54414063 113.4346875 -59.78359375 113.713125 -59 114 C-58.19820312 114.2990625 -57.39640625 114.598125 -56.5703125 114.90625 C-52.74850656 116.25954522 -50.12715253 117 -46 117 C-46 117.66 -46 118.32 -46 119 C-24.92803912 119.93852094 -8.56000141 116.82504348 8.1875 102.9375 C19.79964159 91.92276762 27.4531868 76.27150558 28.16796875 60.23046875 C28.25088847 52.96652335 28.30053988 45.96152953 26 39 C25.505 37.45892578 25.505 37.45892578 25 35.88671875 C22.40783459 28.49393121 19.28041637 22.7754554 14 17 C13.38125 16.31292969 12.7625 15.62585938 12.125 14.91796875 C2.07154378 4.31724778 -11.86724465 -4.31793088 -26.76171875 -5.23046875 C-31.97422969 -5.17341639 -37.17988276 -5.04822891 -42.390625 -4.91015625 Z " fill="#948455" transform="translate(209,75)"/>
<path d="M0 0 C1.06734375 -0.02900391 2.1346875 -0.05800781 3.234375 -0.08789062 C4.25789063 -0.09626953 5.28140625 -0.10464844 6.3359375 -0.11328125 C7.27743652 -0.12786377 8.21893555 -0.14244629 9.18896484 -0.1574707 C11.625 0.3125 11.625 0.3125 13.41333008 2.22119141 C17.12972635 8.63558804 16.18631768 17.14870942 14.9375 24.1875 C13.05194876 28.67690772 10.66859345 31.99017483 6.5 34.6875 C4.625 35.3125 4.625 35.3125 1.625 35.3125 C1.625 40.2625 1.625 45.2125 1.625 50.3125 C5.585 50.3125 9.545 50.3125 13.625 50.3125 C13.625 51.3025 13.625 52.2925 13.625 53.3125 C4.715 53.3125 -4.195 53.3125 -13.375 53.3125 C-13.375 52.3225 -13.375 51.3325 -13.375 50.3125 C-9.415 50.3125 -5.455 50.3125 -1.375 50.3125 C-1.375 45.3625 -1.375 40.4125 -1.375 35.3125 C-3.355 34.9825 -5.335 34.6525 -7.375 34.3125 C-11.47620603 31.06968593 -14.17530425 27.41818189 -15.375 22.3125 C-16.1333339 14.86420671 -15.51206959 8.15553782 -12.375 1.3125 C-9.88462637 -1.17787363 -3.34379693 0.03007012 0 0 Z " fill="#988756" transform="translate(152.375,104.6875)"/>
<path d="M0 0 C1.2684375 0.4640625 1.2684375 0.4640625 2.5625 0.9375 C5.85531181 2.37282822 7.57600135 4.34514433 10 7 C10.55945313 7.60199219 11.11890625 8.20398438 11.6953125 8.82421875 C21.97018622 20.14437184 25.70425587 31.19276733 25.27734375 46.6640625 C24.10720067 60.73874126 17.58144845 73.36268079 7.4296875 83.01171875 C1.33398821 88 1.33398821 88 -2 88 C-2 88.66 -2 89.32 -2 90 C-2.60328125 90.19335938 -3.2065625 90.38671875 -3.828125 90.5859375 C-4.62734375 90.84632813 -5.4265625 91.10671875 -6.25 91.375 C-7.03890625 91.63023437 -7.8278125 91.88546875 -8.640625 92.1484375 C-10.96820179 92.91866064 -10.96820179 92.91866064 -12.86669922 94.0300293 C-21.3319415 97.87901162 -35.13151781 95.80521619 -43.6875 92.9375 C-57.84146348 86.95765981 -68.77838195 76.29314508 -74.81591797 62.07910156 C-77.112275 55.95639352 -77.54266394 50.25328024 -77.5 43.75 C-77.49427979 42.73728027 -77.48855957 41.72456055 -77.48266602 40.68115234 C-77.18862353 28.31948747 -73.38591914 19.18956973 -65 10 C-64.38125 9.30132812 -63.7625 8.60265625 -63.125 7.8828125 C-47.65784637 -8.64458956 -18.97978074 -14.00888579 0 0 Z M-45 -1 C-45.75152344 -0.6596875 -46.50304687 -0.319375 -47.27734375 0.03125 C-58.06080025 5.48749466 -66.36887756 14.06805559 -70.875 25.3125 C-72.19453776 28.99510278 -72.19453776 28.99510278 -72 33 C-72.66 33 -73.32 33 -74 33 C-74.69769162 52.2697059 -72.68554858 63.97875784 -59.5 78.8125 C-53.07380411 84.43542141 -46.88674924 89.63207817 -38 90.1875 C-37.34 90.125625 -36.68 90.06375 -36 90 C-36 90.66 -36 91.32 -36 92 C-19.25877776 93.07075838 -7.06856662 91.00831493 6.078125 79.86328125 C15.35536305 70.86888582 21.02581358 59.37417457 21.3425293 46.42016602 C21.44489168 37.01745006 21.42608944 29.99024755 16 22 C15.566875 20.80375 15.13375 19.6075 14.6875 18.375 C9.80656752 8.61313504 0.36795941 3.76319019 -9 -1 C-10.10601562 -1.56332031 -11.21203125 -2.12664062 -12.3515625 -2.70703125 C-16.82466544 -4.29225296 -20.60779317 -4.45614798 -25.3125 -4.375 C-26.15409668 -4.36557373 -26.99569336 -4.35614746 -27.86279297 -4.34643555 C-33.9745347 -4.19804638 -39.3860936 -3.56399409 -45 -1 Z " fill="#998857" transform="translate(201,88)"/>
<path d="M0 0 C0 0.33 0 0.66 0 1 C-1.20914063 1.02578125 -2.41828125 1.0515625 -3.6640625 1.078125 C-23.66676841 1.68948975 -40.80176323 6.74319327 -55.33203125 21.08984375 C-59.2532155 25.36697738 -62.21715981 29.92685771 -65 35 C-65.5775 35.969375 -66.155 36.93875 -66.75 37.9375 C-70.94935094 48.22590981 -71.43607415 58.06460209 -71 69 C-70.98066406 69.99257812 -70.96132812 70.98515625 -70.94140625 72.0078125 C-70.62055327 78.67766541 -68.63487371 84.20983345 -66.05859375 90.34765625 C-65 93 -65 93 -65 95 C-64.34 95 -63.68 95 -63 95 C-61.89665062 96.45522837 -60.8676691 97.96713422 -59.875 99.5 C-56.38924764 104.61291891 -52.6000189 108.87201523 -48 113 C-47.49339844 113.47179687 -46.98679688 113.94359375 -46.46484375 114.4296875 C-39.90379434 119.83290466 -30.16271449 122.0988108 -22 124 C-22 124.66 -22 125.32 -22 126 C-15.07 126 -8.14 126 -1 126 C-1.33 126.66 -1.66 127.32 -2 128 C-29.3872017 129.04042555 -29.3872017 129.04042555 -40 123 C-40.95648438 122.48050781 -41.91296875 121.96101563 -42.8984375 121.42578125 C-50.7859546 116.79051435 -57.85997652 110.62972235 -63 103 C-63 102.34 -63 101.68 -63 101 C-63.66 101 -64.32 101 -65 101 C-73.79538046 84.05985626 -79.93879189 66.7580808 -74.46484375 47.53173828 C-73.42710916 44.29969217 -72.24854861 41.15788896 -71 38 C-70.65066406 37.07703125 -70.30132812 36.1540625 -69.94140625 35.203125 C-66.60652964 27.53168722 -60.81692151 21.84178015 -55 16 C-54.36320312 15.32839844 -53.72640625 14.65679687 -53.0703125 13.96484375 C-46.86461653 7.91084257 -38.75482494 4.63784694 -31 1 C-30.34 0.67 -29.68 0.34 -29 0 C-19.34442714 -1.23750222 -9.61102671 -1.67148291 0 0 Z " fill="#978756" transform="translate(185,68)"/>
<path d="M0 0 C6.27 0 12.54 0 19 0 C21 5 21 5 21 8 C15.06 8 9.12 8 3 8 C3 9.32 3 10.64 3 12 C8.94 12 14.88 12 21 12 C20.42031687 21.70969245 20.42031687 21.70969245 16 26 C12.85623779 28.09584148 10.83249462 28.59285045 7.0703125 28.5234375 C3.14853224 27.53189306 1.05121974 24.31460076 -1 21 C-1.9496468 18.15105959 -2.1642479 16.27481767 -2.1875 13.3125 C-2.20167969 12.50425781 -2.21585938 11.69601563 -2.23046875 10.86328125 C-2 8 -2 8 0 0 Z " fill="#383836" transform="translate(143,109)"/>
<path d="M0 0 C0 17.82 0 35.64 0 54 C-1.32 54 -2.64 54 -4 54 C-4 48.72 -4 43.44 -4 38 C-4.66 38 -5.32 38 -6 38 C-6 37.34 -6 36.68 -6 36 C-6.99 35.67 -7.98 35.34 -9 35 C-13.10528308 28.84207538 -12.61165364 21.16993984 -12 14 C-10.40094891 8.05570139 -6.95762002 0 0 0 Z " fill="#958555" transform="translate(207,104)"/>
<path d="M0 0 C13.125 -0.53571429 13.125 -0.53571429 16.6875 1.8125 C19.65318678 4.61787939 20.91069175 6.21111045 21.375 10.3125 C20.93173057 14.67131604 19.79336237 16.66348383 17 20 C13.49985375 22.36259872 10.39241891 22.20784838 6.25 22.125 C3.15625 22.063125 3.15625 22.063125 0 22 C0 14.74 0 7.48 0 0 Z " fill="#F5F5F5" transform="translate(90,213)"/>
<path d="M0 0 C0.99 0 1.98 0 3 0 C3.33 5.28 3.66 10.56 4 16 C4.33 10.72 4.66 5.44 5 0 C6.32 0 7.64 0 9 0 C9 6.27 9 12.54 9 19 C9.66 19.33 10.32 19.66 11 20 C11 13.4 11 6.8 11 0 C11.99 0 12.98 0 14 0 C14.33 4.29 14.66 8.58 15 13 C15.33 8.71 15.66 4.42 16 0 C16.99 0 17.98 0 19 0 C19.08152344 2.54232342 19.14073716 5.08199202 19.1875 7.625 C19.21263672 8.33785156 19.23777344 9.05070312 19.26367188 9.78515625 C19.32924697 14.55027993 18.85014376 17.98135912 16 22 C14.35 22.33 12.7 22.66 11 23 C11 32.57 11 42.14 11 52 C10.01 52 9.02 52 8 52 C8 42.76 8 33.52 8 24 C6.68 23.67 5.36 23.34 4 23 C-1.73448246 16.46906164 -0.35342381 8.17783428 0 0 Z " fill="#9A8957" transform="translate(171,106)"/>
<path d="M0 0 C0.66 0 1.32 0 2 0 C3.98 0 5.96 0 8 0 C8 5.94 8 11.88 8 18 C5.33333333 18 2.66666667 18 0 18 C-1.093125 18.12375 -2.18625 18.2475 -3.3125 18.375 C-7 18 -7 18 -9.9375 15.4375 C-11.72861311 12.91447024 -12.06468531 11.63129375 -12.625 8.4375 C-11.27500871 1.0125479 -7.05795454 -0.66584477 0 0 Z " fill="#F3F3F3" transform="translate(289,217)"/>
<path d="M0 0 C0.66 0 1.32 0 2 0 C3.98 0 5.96 0 8 0 C8 5.94 8 11.88 8 18 C5.33333333 18 2.66666667 18 0 18 C-1.093125 18.12375 -2.18625 18.2475 -3.3125 18.375 C-7 18 -7 18 -9.9375 15.4375 C-11.72861311 12.91447024 -12.06468531 11.63129375 -12.625 8.4375 C-11.27500871 1.0125479 -7.05795454 -0.66584477 0 0 Z " fill="#F3F3F3" transform="translate(215,217)"/>
<path d="M0 0 C0.66 0 1.32 0 2 0 C3.98 0 5.96 0 8 0 C8 5.94 8 11.88 8 18 C5.33333333 18 2.66666667 18 0 18 C-1.093125 18.12375 -2.18625 18.2475 -3.3125 18.375 C-7 18 -7 18 -9.9375 15.4375 C-11.72861311 12.91447024 -12.06468531 11.63129375 -12.625 8.4375 C-11.27500871 1.0125479 -7.05795454 -0.66584477 0 0 Z " fill="#F3F3F3" transform="translate(78,217)"/>
<path d="M0 0 C4.56944444 2.13888889 4.56944444 2.13888889 6 5 C6.58394161 12.24087591 6.58394161 12.24087591 4.125 15.4375 C0.75191516 17.91770944 -1.7177721 18.41315534 -5.95703125 18.3359375 C-8 18 -8 18 -11 16 C-13.21925086 12.67112371 -13.75890933 10.86063492 -13.4765625 6.9375 C-11.77376063 0.01463337 -6.1232742 -1.16280358 0 0 Z " fill="#F3F3F3" transform="translate(126,217)"/>
<path d="M0 0 C3 1.4375 3 1.4375 5 4 C5.71728811 7.15136417 5.68499916 9.84451205 5 13 C3.0125694 16.0432531 1.67958873 17.62073803 -1.9375 18.4375 C-5.77726765 18.67021319 -7.63711804 18.23162678 -10.9375 16.125 C-13.56391506 13.4189966 -13.93814223 12.46835168 -14.4375 8.6875 C-14 5 -14 5 -11.5 2.0625 C-7.6044299 -0.71873444 -4.68007444 -0.66858206 0 0 Z " fill="#F4F4F4" transform="translate(260,217)"/>
<path d="M0 0 C2.9375 1.0625 2.9375 1.0625 5 3 C5.8125 6.6875 5.8125 6.6875 6 10 C2.04 10 -1.92 10 -6 10 C-5.67 10.66 -5.34 11.32 -5 12 C-1.7 12 1.6 12 5 12 C3 16 3 16 0 18 C-3.09463501 18.39930774 -5.04120388 18.65047463 -8 18 C-11.56352884 14.95615245 -12.81458415 13.05687034 -13.625 8.4375 C-13 5 -13 5 -11 2.0625 C-7.13722125 -0.59316039 -4.54594526 -0.81735177 0 0 Z " fill="#EDEDED" transform="translate(176,217)"/>
<path d="M0 0 C2.31 0 4.62 0 7 0 C7.66 2.97 8.32 5.94 9 9 C9.66 9 10.32 9 11 9 C11.66 6.03 12.32 3.06 13 0 C15.31 0 17.62 0 20 0 C19.14481507 3.6078114 18.0801671 7.1412161 17 10.6875 C16.4740625 12.42580078 16.4740625 12.42580078 15.9375 14.19921875 C15 17 15 17 14 18 C11.32941149 18.14115161 8.67567762 18.04247107 6 18 C3.69557475 12.07433507 1.76463072 6.10737442 0 0 Z " fill="#EDEDED" transform="translate(225,217)"/>
<path d="M0 0 C6.27 0 12.54 0 19 0 C19 1.65 19 3.3 19 5 C17.02 5 15.04 5 13 5 C13 10.61 13 16.22 13 22 C10.69 22 8.38 22 6 22 C6 16.39 6 10.78 6 5 C4.02 5 2.04 5 0 5 C0 3.35 0 1.7 0 0 Z " fill="#EAEAEA" transform="translate(183,213)"/>
<path d="M0 0 C3.05576913 0.68385156 4.82684344 2.19102116 6.9375 4.43359375 C6.9375 5.09359375 6.9375 5.75359375 6.9375 6.43359375 C3.6375 6.43359375 0.3375 6.43359375 -3.0625 6.43359375 C-3.0625 8.41359375 -3.0625 10.39359375 -3.0625 12.43359375 C0.2375 12.43359375 3.5375 12.43359375 6.9375 12.43359375 C4.1875 17.30859375 4.1875 17.30859375 1.9375 18.43359375 C-5.30337591 19.01753536 -5.30337591 19.01753536 -8.5 16.55859375 C-11.3088885 12.73850539 -11.54640104 10.19195396 -11.0625 5.43359375 C-7.97712545 0.90194988 -5.28776067 -0.33048504 0 0 Z " fill="#F1F1F1" transform="translate(155.0625,216.56640625)"/>
<path d="M0 0 C2.31 0 4.62 0 7 0 C7 5.61 7 11.22 7 17 C8.98 17 10.96 17 13 17 C13 18.65 13 20.3 13 22 C8.71 22 4.42 22 0 22 C0 14.74 0 7.48 0 0 Z " fill="#EAEAEA" transform="translate(52,213)"/>
<path d="M0 0 C3.77195642 -0.66530831 7.61387847 -0.4629138 11.4375 -0.4375 C13.03174805 -0.4674707 13.03174805 -0.4674707 14.65820312 -0.49804688 C15.67720703 -0.49740234 16.69621094 -0.49675781 17.74609375 -0.49609375 C18.68122803 -0.49794678 19.6163623 -0.4997998 20.57983398 -0.50170898 C23 0 23 0 24.78564453 1.91479492 C27.16084073 5.99331337 27.11325434 9.58060067 27.0625 14.25 C27.05347656 15.32765625 27.04445312 16.4053125 27.03515625 17.515625 C27.02355469 18.33546875 27.01195312 19.1553125 27 20 C26.67 20 26.34 20 26 20 C25.67 16.37 25.34 12.74 25 9 C24.01 10.485 24.01 10.485 23 12 C22.34 9.36 21.68 6.72 21 4 C14.73 4 8.46 4 2 4 C1.34 9.28 0.68 14.56 0 20 C-0.33 20 -0.66 20 -1 20 C-1 16.37 -1 12.74 -1 9 C-1.99 9.495 -1.99 9.495 -3 10 C-2.25 3.375 -2.25 3.375 0 0 Z " fill="#8B7C52" transform="translate(141,105)"/>
<path d="M0 0 C2.31 0 4.62 0 7 0 C7 7.92 7 15.84 7 24 C4.69 24 2.38 24 0 24 C0 16.08 0 8.16 0 0 Z " fill="#E4E4E4" transform="translate(268,211)"/>
<path d="M0 0 C-0.66 0.66 -1.32 1.32 -2 2 C-1.505 2.99 -1.505 2.99 -1 4 C-5.36857413 2.65582335 -9.43376957 0.94466849 -13.55859375 -1 C-21.02164584 -4.05686614 -27.41399488 -4.24880483 -35.4375 -4.125 C-37.1071582 -4.11146484 -37.1071582 -4.11146484 -38.81054688 -4.09765625 C-41.54059023 -4.0742224 -44.2701801 -4.041414 -47 -4 C-41.81927189 -6.78586323 -36.83801348 -6.61925999 -31 -7 C-36.94 -7 -42.88 -7 -49 -7 C-49 -7.33 -49 -7.66 -49 -8 C-31.69875965 -11.27392702 -15.52917809 -8.02779545 0 0 Z " fill="#83764F" transform="translate(209,75)"/>
<path d="M0 0 C1.98 0 3.96 0 6 0 C6 7.92 6 15.84 6 24 C4.02 24 2.04 24 0 24 C0 16.08 0 8.16 0 0 Z " fill="#F6F6F6" transform="translate(135,211)"/>
<path d="M0 0 C6.75 0.75 6.75 0.75 9 3 C8.8125 6.5 8.8125 6.5 8 10 C5 12 5 12 0 12 C0 8.04 0 4.08 0 0 Z " fill="#434343" transform="translate(96,218)"/>
<path d="M0 0 C0.33 0 0.66 0 1 0 C1 8.58 1 17.16 1 26 C0.01 26 -0.98 26 -2 26 C-4.79611944 20.40776112 -3.52262252 10.09624734 -2.0625 4.125 C-1 1 -1 1 0 0 Z " fill="#3B3A37" transform="translate(202,111)"/>
<path d="M0 0 C1.32 0 2.64 0 4 0 C4 6.27 4 12.54 4 19 C4.99 19 5.98 19 7 19 C7 19.66 7 20.32 7 21 C5.02 21 3.04 21 1 21 C-1.8202907 16.99561779 -1.00863471 12.87663461 -0.625 8.25 C-0.56828125 7.45722656 -0.5115625 6.66445312 -0.453125 5.84765625 C-0.31216305 3.89768265 -0.1574288 1.94871329 0 0 Z " fill="#8B7C52" transform="translate(176,106)"/>
<path d="M0 0 C-0.33 0.99 -0.66 1.98 -1 3 C-3.0625 3.6875 -3.0625 3.6875 -5 4 C-5 4.66 -5 5.32 -5 6 C-5.60328125 6.19335938 -6.2065625 6.38671875 -6.828125 6.5859375 C-8.02695313 6.97652344 -8.02695313 6.97652344 -9.25 7.375 C-10.03890625 7.63023437 -10.8278125 7.88546875 -11.640625 8.1484375 C-13.96707421 8.91463342 -13.96707421 8.91463342 -15.8425293 10.03662109 C-18.3507908 11.15663919 -20.14006926 11.25826748 -22.87890625 11.265625 C-24.26045898 11.26949219 -24.26045898 11.26949219 -25.66992188 11.2734375 C-26.62447266 11.26570312 -27.57902344 11.25796875 -28.5625 11.25 C-30.00012695 11.26160156 -30.00012695 11.26160156 -31.46679688 11.2734375 C-32.38654297 11.27085937 -33.30628906 11.26828125 -34.25390625 11.265625 C-35.09252197 11.26336914 -35.9311377 11.26111328 -36.79516602 11.25878906 C-39 11 -39 11 -42 9 C-40.97845825 9.00785522 -40.97845825 9.00785522 -39.9362793 9.01586914 C-36.85336223 9.03664458 -33.7704599 9.04966198 -30.6875 9.0625 C-29.0797168 9.07506836 -29.0797168 9.07506836 -27.43945312 9.08789062 C-26.41142578 9.09111328 -25.38339844 9.09433594 -24.32421875 9.09765625 C-23.37635498 9.10289307 -22.42849121 9.10812988 -21.4519043 9.11352539 C-18.86161319 9.10498854 -18.86161319 9.10498854 -16 8 C-16.66 7.34 -17.32 6.68 -18 6 C-15.7536764 4.99095625 -13.50356063 3.9926398 -11.25 3 C-10.61578125 2.71382812 -9.9815625 2.42765625 -9.328125 2.1328125 C-5.91582896 0.63993298 -3.79218083 0 0 0 Z " fill="#8A7B52" transform="translate(204,172)"/>
<path d="M0 0 C1.51400391 0.01740234 1.51400391 0.01740234 3.05859375 0.03515625 C4.07050781 0.04417969 5.08242187 0.05320313 6.125 0.0625 C7.29869141 0.07990234 7.29869141 0.07990234 8.49609375 0.09765625 C8.82609375 2.73765625 9.15609375 5.37765625 9.49609375 8.09765625 C7.51699977 8.12452178 5.53780404 8.14399 3.55859375 8.16015625 C2.45644531 8.17175781 1.35429687 8.18335938 0.21875 8.1953125 C-2.50390625 8.09765625 -2.50390625 8.09765625 -3.50390625 7.09765625 C-3.62890625 4.09765625 -3.62890625 4.09765625 -3.50390625 1.09765625 C-2.50390625 0.09765625 -2.50390625 0.09765625 0 0 Z " fill="#424242" transform="translate(154.50390625,221.90234375)"/>
<path d="M0 0 C3.19245304 2.12830203 3.74097402 3.09927385 4.64257812 6.70849609 C5.42280085 11.71066176 5.28472672 16.76265684 5.25 21.8125 C5.25773438 22.95654297 5.26546875 24.10058594 5.2734375 25.27929688 C5.27085937 26.36919922 5.26828125 27.45910156 5.265625 28.58203125 C5.26336914 29.57436768 5.26111328 30.5667041 5.25878906 31.58911133 C5 34 5 34 3 36 C2.98018066 35.38068604 2.96036133 34.76137207 2.93994141 34.12329102 C2.84364769 31.26932611 2.73439903 28.41599143 2.625 25.5625 C2.57859375 24.10166992 2.57859375 24.10166992 2.53125 22.61132812 C2.31341262 17.18354671 1.779913 12.12847878 0.42773438 6.86132812 C-0.10433265 4.54598625 -0.15260665 2.36540313 0 0 Z " fill="#A08E59" transform="translate(234,109)"/>
<path d="M0 0 C0.33 0 0.66 0 1 0 C1.06731323 1.05743408 1.06731323 1.05743408 1.13598633 2.13623047 C1.34953879 5.38339806 1.58090844 8.62907106 1.8125 11.875 C1.88275391 12.98359375 1.95300781 14.0921875 2.02539062 15.234375 C2.53651974 22.18573097 3.66016824 28.42764778 6 35 C4.515 35.495 4.515 35.495 3 36 C0.2420912 30.33030765 -1.48664613 26.04486025 -0.36328125 19.78125 C0.15279578 15.83020869 0.09036157 11.91719718 0.0625 7.9375 C0.05831055 7.16204834 0.05412109 6.38659668 0.04980469 5.58764648 C0.03731951 3.72506551 0.01924536 1.86252339 0 0 Z " fill="#8D7E53" transform="translate(112,123)"/>
<path d="M0 0 C1.125 1.5 1.125 1.5 2 4 C1.56975065 5.88647792 1.1260997 7.77205328 0.58203125 9.62890625 C-0.49293184 14.00811828 -0.68650994 18.51214224 -1 23 C-1.33 23 -1.66 23 -2 23 C-2.33 19.7 -2.66 16.4 -3 13 C-3.33 16.3 -3.66 19.6 -4 23 C-4.33 23 -4.66 23 -5 23 C-5.4581163 14.76663214 -5.34330077 8.18650569 -1 1 C-0.67 0.67 -0.34 0.34 0 0 Z " fill="#867950" transform="translate(200,108)"/>
<path d="M0 0 C1.1484375 1.546875 1.1484375 1.546875 2 4 C1.33168497 6.56865429 0.60698344 8.80991993 -0.375 11.25 C-0.6225 11.8996875 -0.87 12.549375 -1.125 13.21875 C-1.73639014 14.81777037 -2.36640959 16.40964556 -3 18 C-3.66 17.34 -4.32 16.68 -5 16 C-5.66 16.33 -6.32 16.66 -7 17 C-6.55611974 11.37751674 -4.09800282 4.09800282 0 0 Z " fill="#908154" transform="translate(132,103)"/>
<path d="M0 0 C0.33 0 0.66 0 1 0 C1.08807085 4.29153445 1.14074921 8.58283224 1.1875 12.875 C1.22520508 14.68097656 1.22520508 14.68097656 1.26367188 16.5234375 C1.32186392 23.66166112 1.10131947 30.43534631 -2 37 C-2.99 37.495 -2.99 37.495 -4 38 C-3.34 34.7 -2.68 31.4 -2 28 C-2.66 28.66 -3.32 29.32 -4 30 C-3.67 26.7 -3.34 23.4 -3 20 C-2.34 21.32 -1.68 22.64 -1 24 C-0.67 16.08 -0.34 8.16 0 0 Z " fill="#6E6548" transform="translate(239,119)"/>
<path d="M0 0 C3.6041498 -0.02900455 7.20826962 -0.04680018 10.8125 -0.0625 C11.83666016 -0.07087891 12.86082031 -0.07925781 13.91601562 -0.08789062 C15.39038086 -0.09272461 15.39038086 -0.09272461 16.89453125 -0.09765625 C17.80050049 -0.10289307 18.70646973 -0.10812988 19.63989258 -0.11352539 C22 0 22 0 25 1 C25 1.66 25 2.32 25 3 C12.13 2.505 12.13 2.505 -1 2 C-0.67 1.34 -0.34 0.68 0 0 Z " fill="#A3905A" transform="translate(166,82)"/>
<path d="M0 0 C0.66 0 1.32 0 2 0 C3.18681726 3.56045177 3.09689832 6.43808337 3.0625 10.1875 C3.05347656 11.45980469 3.04445312 12.73210937 3.03515625 14.04296875 C3.02355469 15.01878906 3.01195312 15.99460938 3 17 C2.34 16.67 1.68 16.34 1 16 C0.34 16.66 -0.32 17.32 -1 18 C-1.02707139 15.75006641 -1.04642829 13.50003905 -1.0625 11.25 C-1.07410156 9.99703125 -1.08570313 8.7440625 -1.09765625 7.453125 C-1.02021027 4.71463499 -0.82780815 2.58119707 0 0 Z " fill="#887A51" transform="translate(223,121)"/>
<path d="M0 0 C8.25 0.33 16.5 0.66 25 1 C24.67 1.66 24.34 2.32 24 3 C20.56265937 3.08703823 17.12560163 3.14040272 13.6875 3.1875 C12.71103516 3.21263672 11.73457031 3.23777344 10.72851562 3.26367188 C9.32182617 3.27817383 9.32182617 3.27817383 7.88671875 3.29296875 C7.02264404 3.3086792 6.15856934 3.32438965 5.26831055 3.34057617 C3 3 3 3 0 0 Z " fill="#A4915A" transform="translate(159,193)"/>
<path d="M0 0 C0 0.33 0 0.66 0 1 C-1.88332031 1.09087891 -1.88332031 1.09087891 -3.8046875 1.18359375 C-12.22891038 1.60148364 -20.61666769 2.03797826 -29 3 C-21.48705707 -3.172528 -9.12299312 -1.5866075 0 0 Z " fill="#A7945C" transform="translate(185,68)"/>
<path d="M0 0 C1.67542976 0.28604898 3.34385343 0.61781233 5 1 C5.625 3.375 5.625 3.375 6 6 C5.34 6.66 4.68 7.32 4 8 C1.375 7.625 1.375 7.625 -1 7 C-1.04254356 5.00045254 -1.04080783 2.99958364 -1 1 C-0.67 0.67 -0.34 0.34 0 0 Z " fill="#444444" transform="translate(285,222)"/>
<path d="M0 0 C1.67542976 0.28604898 3.34385343 0.61781233 5 1 C5 2.98 5 4.96 5 7 C2.625 7.625 2.625 7.625 0 8 C-0.66 7.34 -1.32 6.68 -2 6 C-1.44444444 1.44444444 -1.44444444 1.44444444 0 0 Z " fill="#454545" transform="translate(254,222)"/>
<path d="M0 0 C1.67542976 0.28604898 3.34385343 0.61781233 5 1 C5.625 3.375 5.625 3.375 6 6 C5.34 6.66 4.68 7.32 4 8 C1.375 7.625 1.375 7.625 -1 7 C-1.04254356 5.00045254 -1.04080783 2.99958364 -1 1 C-0.67 0.67 -0.34 0.34 0 0 Z " fill="#444444" transform="translate(211,222)"/>
<path d="M0 0 C1.67542976 0.28604898 3.34385343 0.61781233 5 1 C5.625 3.375 5.625 3.375 6 6 C5.34 6.66 4.68 7.32 4 8 C1.375 7.625 1.375 7.625 -1 7 C-1.04254356 5.00045254 -1.04080783 2.99958364 -1 1 C-0.67 0.67 -0.34 0.34 0 0 Z " fill="#444444" transform="translate(74,222)"/>
<path d="M0 0 C0.125 2.375 0.125 2.375 0 5 C-0.66 5.66 -1.32 6.32 -2 7 C-4.625 6.625 -4.625 6.625 -7 6 C-7 4.02 -7 2.04 -7 0 C-4.3333581 -1.33332095 -2.83319697 -0.67102033 0 0 Z " fill="#454545" transform="translate(126,223)"/>
<path d="M0 0 C-3.19468061 3.19468061 -6.83420598 5.29967591 -11 7 C-13.375 6.1875 -13.375 6.1875 -15 5 C-10.87384475 1.53402959 -5.43913747 -2.39322049 0 0 Z " fill="#8C7E52" transform="translate(160,69)"/>
<path d="M0 0 C0.66 0.66 1.32 1.32 2 2 C2.66 1.34 3.32 0.68 4 0 C3.55530671 5.03985731 1.28656638 7.37634988 -2 11 C-2.33 10.34 -2.66 9.68 -3 9 C-4.32 9.33 -5.64 9.66 -7 10 C-6.57847656 9.52949219 -6.15695313 9.05898437 -5.72265625 8.57421875 C-5.17480469 7.95160156 -4.62695312 7.32898438 -4.0625 6.6875 C-3.51722656 6.07261719 -2.97195312 5.45773438 -2.41015625 4.82421875 C-0.79918441 2.94758042 -0.79918441 2.94758042 0 0 Z " fill="#8C7D52" transform="translate(163,127)"/>
<path d="M0 0 C3 1 3 1 4.2109375 2.765625 C5.13471643 5.38147425 5.02641299 7.02039168 4.625 9.75 C4.51414063 10.54921875 4.40328125 11.3484375 4.2890625 12.171875 C4.19367188 12.77515625 4.09828125 13.3784375 4 14 C3.67 14 3.34 14 3 14 C2.49307308 12.4188708 1.99473557 10.83498617 1.5 9.25 C1.2215625 8.36828125 0.943125 7.4865625 0.65625 6.578125 C0 4 0 4 0 0 Z " fill="#9C8B58" transform="translate(219,111)"/>
<path d="M0 0 C3.0276094 1.5138047 3.42368365 3.90823033 4.53515625 6.98828125 C5 9 5 9 4.1875 11.5 C3.795625 11.995 3.40375 12.49 3 13 C0.59965898 9.39948847 -1.32187705 6.03855465 -0.625 1.625 C-0.41875 1.08875 -0.2125 0.5525 0 0 Z " fill="#8F8054" transform="translate(231,99)"/>
<path d="M0 0 C0.99 0 1.98 0 3 0 C3 5.28 3 10.56 3 16 C0 13 0 13 -0.29296875 9.86328125 C-0.25816406 8.69152344 -0.22335938 7.51976563 -0.1875 6.3125 C-0.16042969 5.13300781 -0.13335937 3.95351562 -0.10546875 2.73828125 C-0.07066406 1.83464844 -0.03585938 0.93101563 0 0 Z " fill="#928354" transform="translate(187,106)"/>
<path d="M0 0 C0.66 0.33 1.32 0.66 2 1 C-2.62 5.62 -7.24 10.24 -12 15 C-12 10.81257912 -9.7797863 8.86923487 -7 6 C-4.72436307 3.92653743 -2.388922 1.9414294 0 0 Z " fill="#4D493D" transform="translate(148,91)"/>
<path d="M0 0 C3.71888239 0.50712033 6.73454239 1.11608215 10 3 C9.01 3.33 8.02 3.66 7 4 C7.66 4.66 8.32 5.32 9 6 C6.36 5.67 3.72 5.34 1 5 C1.33 3.68 1.66 2.36 2 1 C1.34 0.67 0.68 0.34 0 0 Z " fill="#83764F" transform="translate(153,190)"/>
<path d="M0 0 C0.33 0 0.66 0 1 0 C1.0809313 2.60478883 1.14045434 5.20706653 1.1875 7.8125 C1.21263672 8.55048828 1.23777344 9.28847656 1.26367188 10.04882812 C1.33834499 15.54974762 1.33834499 15.54974762 -0.51171875 18.01171875 C-1.24841797 18.50091797 -1.24841797 18.50091797 -2 19 C-2.125 12.25 -2.125 12.25 -1 10 C-0.77377919 8.29636178 -0.59111527 6.58671299 -0.4375 4.875 C-0.35371094 3.96492187 -0.26992187 3.05484375 -0.18359375 2.1171875 C-0.12300781 1.41851562 -0.06242188 0.71984375 0 0 Z " fill="#A6935B" transform="translate(224,127)"/>
<path d="M0 0 C0.88945312 0.00322266 1.77890625 0.00644531 2.6953125 0.00976562 C4.07589844 0.02233398 4.07589844 0.02233398 5.484375 0.03515625 C6.42023438 0.03966797 7.35609375 0.04417969 8.3203125 0.04882812 C10.62506541 0.06058707 12.92968727 0.07702199 15.234375 0.09765625 C15.234375 0.42765625 15.234375 0.75765625 15.234375 1.09765625 C9.294375 1.42765625 3.354375 1.75765625 -2.765625 2.09765625 C-2.765625 2.75765625 -2.765625 3.41765625 -2.765625 4.09765625 C-3.755625 4.09765625 -4.745625 4.09765625 -5.765625 4.09765625 C-5.765625 3.43765625 -5.765625 2.77765625 -5.765625 2.09765625 C-6.755625 1.76765625 -7.745625 1.43765625 -8.765625 1.09765625 C-5.76855805 0.22802538 -3.11605974 -0.01997474 0 0 Z " fill="#928354" transform="translate(168.765625,80.90234375)"/>
<path d="M0 0 C-1.07165569 3.21496708 -1.88376774 4.08462512 -4.375 6.25 C-4.98085937 6.79140625 -5.58671875 7.3328125 -6.2109375 7.890625 C-6.80132812 8.25671875 -7.39171875 8.6228125 -8 9 C-8.99 8.67 -9.98 8.34 -11 8 C-8.21659292 4.18570141 -5.12174212 0 0 0 Z " fill="#A08E59" transform="translate(138,80)"/>
<path d="M0 0 C0.99443769 2.98331306 1.02452065 4.20838759 0.66015625 7.23046875 C0.56669922 8.03291016 0.47324219 8.83535156 0.37695312 9.66210938 C0.27318359 10.49548828 0.16941406 11.32886719 0.0625 12.1875 C-0.03740234 13.03248047 -0.13730469 13.87746094 -0.24023438 14.74804688 C-0.48757108 16.83274197 -0.74301041 18.91647284 -1 21 C-1.33 21 -1.66 21 -2 21 C-2.05791844 17.87507749 -2.09356746 14.75029234 -2.125 11.625 C-2.14175781 10.73554688 -2.15851563 9.84609375 -2.17578125 8.9296875 C-2.18222656 8.07890625 -2.18867187 7.228125 -2.1953125 6.3515625 C-2.20578613 5.56604004 -2.21625977 4.78051758 -2.22705078 3.97119141 C-2 2 -2 2 0 0 Z " fill="#AA975D" transform="translate(127,118)"/>
<path d="M0 0 C4.455 0.99 4.455 0.99 9 2 C8.01 2.99 7.02 3.98 6 5 C2.14751405 4.75921963 0.23960066 4.15973378 -3 2 C-2.01 2 -1.02 2 0 2 C0 1.34 0 0.68 0 0 Z " fill="#8A7C52" transform="translate(156,176)"/>
<path d="M0 0 C0.99 0.33 1.98 0.66 3 1 C3.6875 3.0625 3.6875 3.0625 4 5 C4.66 5 5.32 5 6 5 C5.67 6.32 5.34 7.64 5 9 C1.7457985 6.16569547 0.4793247 4.31392226 0 0 Z " fill="#A08E59" transform="translate(116,158)"/>
<path d="M0 0 C0.9991932 3.10860106 0.83036989 4.88611292 0 8 C0.33 8.66 0.66 9.32 1 10 C0.72057545 11.67654729 0.39171753 13.34608154 0 15 C-0.99 14.34 -1.98 13.68 -3 13 C-2.52060632 8.28596212 -2.03165952 4.33420699 0 0 Z " fill="#8B7D52" transform="translate(114,106)"/>
<path d="M0 0 C3 2 3 2 3.51171875 4.3828125 C3.56972656 5.28773437 3.62773437 6.19265625 3.6875 7.125 C3.75324219 8.03507812 3.81898438 8.94515625 3.88671875 9.8828125 C3.92410156 10.58148438 3.96148437 11.28015625 4 12 C0.6133733 7.9687339 0.4285983 5.14317962 0 0 Z " fill="#A28F5A" transform="translate(234,109)"/>
<path d="M0 0 C0 0.66 0 1.32 0 2 C0.99 2.33 1.98 2.66 3 3 C-1.43076923 6.07692308 -1.43076923 6.07692308 -4.3125 5.6875 C-4.869375 5.460625 -5.42625 5.23375 -6 5 C-5.01 4.34 -4.02 3.68 -3 3 C-4.32 2.67 -5.64 2.34 -7 2 C-2.25 0 -2.25 0 0 0 Z " fill="#7E714D" transform="translate(204,187)"/>
<path d="M0 0 C0.99 0.99 1.98 1.98 3 3 C1.43039961 6.66240092 0.06096354 7.93903646 -3 11 C-2.01 7.37 -1.02 3.74 0 0 Z " fill="#877951" transform="translate(221,142)"/>
<path d="M0 0 C0.66 0.33 1.32 0.66 2 1 C-0.97 3.475 -0.97 3.475 -4 6 C-5.32 5.34 -6.64 4.68 -8 4 C-5.31143836 2.20762558 -3.0466145 1.01553817 0 0 Z " fill="#897B51" transform="translate(194,175)"/>
<path d="M0 0 C0.88935377 3.303314 1.46274105 6.62294375 2 10 C1.34 9.34 0.68 8.68 0 8 C-0.99 8.495 -0.99 8.495 -2 9 C-1.51421457 5.87709365 -1.0013988 3.00419641 0 0 Z " fill="#82754F" transform="translate(127,111)"/>
<path d="M0 0 C-0.33 0.99 -0.66 1.98 -1 3 C-4.5625 4.1875 -4.5625 4.1875 -8 5 C-6.44843568 0.34530705 -4.78780941 0 0 0 Z " fill="#A4925B" transform="translate(163,83)"/>
<path d="M0 0 C0 0.99 0 1.98 0 3 C-4.625 5.125 -4.625 5.125 -8 4 C-5.37801226 1.84622436 -3.35595828 0.59927826 0 0 Z " fill="#A7945C" transform="translate(201,189)"/>
<path d="M0 0 C2.375 -0.1875 2.375 -0.1875 5 0 C5.66 0.99 6.32 1.98 7 3 C6.67 3.99 6.34 4.98 6 6 C5.01 5.01 4.02 4.02 3 3 C2.67 3.66 2.34 4.32 2 5 C1.34 3.35 0.68 1.7 0 0 Z " fill="#7C704D" transform="translate(216,108)"/>
<path d="M0 0 C3.26954202 0.56371414 4.82575883 1.49962266 7 4 C5.68 4.33 4.36 4.66 3 5 C2.01 3.35 1.02 1.7 0 0 Z " fill="#9B8A58" transform="translate(206,76)"/>
<path d="M0 0 C2 1 2 1 3 3 C-2.625 5 -2.625 5 -6 5 C-4.02 3.35 -2.04 1.7 0 0 Z " fill="#8E8053" transform="translate(138,77)"/>
</svg>
