<?xml version="1.0" encoding="UTF-8"?>
<svg version="1.1" viewBox="0 0 1600 1600" width="1280" height="1280" xmlns="http://www.w3.org/2000/svg">
<path transform="translate(1035,110)" d="m0 0 17 1 16 4 12 6 13 11 14 14 9 13 11 17 5 5 5 2 19 3 14 5 19 10 12 11 8 9 16 26 3 6v2l5 2 2 3-1 9 3 15v25l-2 11v12l5 4 7 3 8 6 10 9 8 7 18 18 11 15 13 20 7 11v2l5-3 13-11 8-9 6-3 13-2 12-4 11-4 12-1h12l14 2 14 5 16 8 22 13 18 11 26 14 16 11 13 11 13 12 13 16 5 8 1 5-3 8-9 11-7 6-7 3-18 3-35 3-18 4v2l4 2 2 3v6l-5 5-6 1v19l2 18 6 15 15 27 10 23 7 23 6 18 8 16 22 33 11 21 7 17 13 22 5 11 3 14v17l-3 10-9 20-14 27-17 34-8 18-7 11-7 9-11 11-20 14-19 14-16 10-12 7-22 10-21 6-11 3-2 10-3 18-5 17-8 20-7 10-2 4-4 35-3 30v27l5 5h9l9-7 7-7 4-3h4l-1 6-8 10-15 16-11 12-9 10-8 8-10 6-2 1h-15l-6-4-3-8-1-6v-27l2-26-13 4-25 14-27 12h-5l-2 4-11 13-11 11-8 7-10 9-4-2-3-3-6-2h-17l-30 4-14 2-26-1-15-2-3-1-24-2-8-1-13 5h-23l-12-5-11-7-4-1-13 2h-21l-20-5-12-6-10-9-14-11-5-5h2l-4-6-4 2-10 9-20 20-18 12-16 9-7 2-16 1-10-1-3 10-9 10-9 9h-2l-2 4-7 7-14 11-13 11-13 13-14 7-14 5-5 1h-11l-15-5-11-8-8-6-11-3-6-1-11 3-17-1-6-1-6-4-4-3-12-6-10-8-1-1h-7l-2-1-3-9-1-9-3-9-1-28 2-16 1-3 1-17 6-13 5-10 1-5 1-24 1-14-3-1h-18l-17 3-24 5-17 5-2 7-1 11v23l3 10 6 4 8 1 12-6 10-10 6-3 4 1-2 9-9 13-8 9-8 11-4 5-19 12-11 4h-13l-9-4-5-5-4-11-2-7-3-30v-6l-27 9-11 4-5 4-21 9-12 4-13 1-15-2h-17l-4 5-11 25-9 14-8 10-8 8-13 8-14 5h-16l-10-5-7-6-6-10-3-8-1-8v-12l2-18 4-17 8-20 1-2-7-12-4-10-2-15-4-13-6-7-8-7-5-8-1-2-2-13-3-11-2-14-8-10-4-9-4-20v-11l2-13 4-11 3-10v-13l-2-7-2-27v-10l3-23 8-23 7-13 9-10 7-7 11-9 9-7 6-8 8-6 17-10 14-3 13-5 11-7 14-10 5-6 1-13-4-6-9-12-9-17-11-26-4-17-1-2-3-1v2l-8 7-9 8-11 7-9 3-12 1-9-2-10-6-8-9-5-13-1-7v-18l2-15 5-16 7-17 8-16 8-13 8-10 10-13 5-4 5 2-1 5-11 16-11 15-13 25-8 21-3 13-1 8v15l2 11 4 8 8 6 7 2h9l7-3 3-1 2-4 4-9 5-21 6-52 2-31 5-59 5-73 6-77 1-9v-30l-3-19-6-11-7-6-8-3-5-1h-16l-11 4-9 6-7 7-8 16-3 14v14l3 10 6 9 10 7 12 3h15l14-5h6v5l-6 5-10 3-7 1h-18l-11-4-11-8-7-10-5-13-1-5v-17l7-25 9-17 10-13 11-12 14-11 10-6 11-4 9-2 13-1 13 1 12 5 8 6 9 13 5 12 2 10 2 26 1 2 5-2 8-7 5-6 8-7 28-28 16-12 16-8 7-2 8-1h16l14 2 11 4 11 6 6 4 7-1 10-7 3 1 2 5-7 9-11 12-2 3 5-1 15-11 9-8 14-9 10-8 19-10 26-6 37-8 23-2 17 1 20 3 11 1 14 5 26 7 20 5 15 2h12l5-4 5-18 9-17 10-15 11-16 9-12 11-12 10-9 14-9 19-10 26-11 34-13 37-13 20-9 24-8 8-2zm-643 229-11 2-16 6-17 9-7 7-14 10-8 7-2 4-5 57-2 21-2 35-2 27-1 22 2 1 13-19 1-9 9-10 12-13 18-18 12-9 10-7 4-3 3-11 12-23 9-13 7-9 7-8v-2h2l7-8 8-8 4-5 8-7 6-7 2-3v-3l-4 2-7 6-6-1-10-7-14-8-13-4zm443 845-4 41v17l3 7 6 3h14l11-3 10-6 9-9 1-4-12-6-3-3-6-3-8-8-9-12-10-14zm12 10 1 4h3l-1-4zm14 19v2l6 3 3 2h6l-3-3-10-4zm-640 28-5 10-4 16-2 18 1 13 5 12 4 5 8 4 12 1 7-3 5-5 4-6 5-16 3-18v-7l-2-3-16-4-10-5-10-8z" fill="#B7CBFD"/>
<path transform="translate(1035,110)" d="m0 0 17 1 16 4 12 6 13 11 14 14 9 13 11 17 5 5 5 2 19 3 14 5 19 10 12 11 8 9 16 26 3 6v2l5 2 2 3-1 9 3 15v25l-2 11v12l5 4 7 3 8 6 10 9 8 7 18 18 11 15 13 20 7 11v2l5-3 13-11 8-9 6-3 13-2 12-4 11-4 12-1h12l14 2 14 5 16 8 22 13 18 11 26 14 16 11 13 11 13 12 13 16 5 8 1 5-3 8-9 11-7 6-7 3-18 3-35 3-18 4v2l4 2 2 3v6l-5 5-6 1v19l2 18 6 15 15 27 10 23 7 23 6 18 8 16 22 33 11 21 7 17 13 22 5 11 3 14v17l-3 10-9 20-14 27-17 34-8 18-7 11-7 9-11 11-20 14-19 14-16 10-12 7-22 10-21 6-11 3-2 10-3 18-5 17-8 20-7 10-2 4-4 35-3 30v27l5 5h9l9-7 7-7 4-3h4l-1 6-8 10-15 16-11 12-9 10-8 8-10 6-2 1h-15l-6-4-3-8-1-6v-27l2-26-13 4-25 14-27 12h-5l-2 4-11 13-11 11-8 7-10 9-4-2-3-3-6-2h-17l-30 4-14 2-26-1-15-2-3-1-24-2-6-2 26-26 9-11 11-12 9-11 9-10 6-7 4-6v-5l-5 1-5 4-9 11-7 7-7 8-23 23-11 4h-13l-8-4-7-7-6-10-4-14v-8l3-5 13-16 12-12 7-8 11-12 7-8 9-11 15-16 9-10 9-11 7-7 7-8 12-14 10-12 2-3v-4l-5 1-6 7-3 2-5-1-11-12-4-3-7-2-10-1-1-3h-2l-1-5-4-8-4-4-3-11-4-6-6-11-5-14-14-16-6-1-1 1h-7l-5-3-3-4-1-5-3-3-14-5-10-4-13-5-7-2-4-5-5-5-6-3-5-4-3-6 1-4-9-4v-4l10-5 9-1 13 2h11l15-4 13-7 1-1v-6l3-5 4-1 1-5 2-3-7-1-1 5-2-1h-3-5l4-1-1-4 4-4 10-2v-5l4-1h15l1-6h19l17 3h7v-2l-16-4-22-8-5-4h2v-3l4-2h5v3l3 1-1-5 1-2 2 1 1 7-3 4 5-5 1-2h14l2-3-2-1v3h-3v-2l-3-1 4-3 11 3 10 3 8 1-6-3v-3l10-1 10 5 5 1h8l1-1v-15l8-8 4-2 5 3 7-2 1-2v-7l-7-5-1-9 7-14 6-2v-2l8-7 3-5 4-4 2-3-1-11h2v-2l2-1 3-4h2l1 2 3-3 6-13 1-3v-15l-4-13-2-2 1-5 12-14 9-13 6-12 3-15 1-3v-9l-4-9-7-11-4-3-10 1-4 4 1-8 7-28 2-13 1-21-3-15-6-12-8-8-12-6-8-2h-20l-11 4-11 6-9 6-2-1 9-10 8-4 7-6 5 1 6-6h6l3 2v3l3-1 2-5 7 1 15 8 6 5 1 4 5 2 1-6 9-2 5 2-5 5-2 1v9l8 4 2 2 1 6v30l-6 11 1 4 4 1 2-2 2-8 2-12 2-5 9-6 4-8 1-3 4-3h2l-1-7 7-3 5-2 2-3 7 1 3 2-2 4-11 13-7 8-11 11-7 11v3l6-1 13-13 5-3 8 1 5 3 1 2v11l-3 36-2 19-3 45-6 57v20l5 1 10-8 14-15 12-13 4-6 3-13 4-42 1-17 2-17 2-29 3-17 3-5 7-8 10-7 9-5h12l8 4 2 6v16l-5 21 7-4 11-11 8-12 7-11 8-14 5-17 1-8-2-8-6-5-3-1h-9l-10 3-15 9-10 8-8 7-19 19-5 4h-4l-1-3v-32l-3-9-10-10v-3l-4-10-7-7h-2l-5-6-6-5v-2l-4-2-20-15-10-6-24-9v-2l-19 1h-18l-13-1-1-4 5-4 7-1 1-3 5-2 3-1v-12l-2-6h3l-2-9 2-2h3l-1-4 2-1-4-7v-10l-6-3-10-2-5-4 3 8-2 1-2-4-6-1-4-5-1-12-5-15-10-16-3-7-2-10-4-2-1-3h-2l2 3 1 9 3 6 5 20 2 5 1 12-2 4v7l-1 2-8 1-4-4-5 1-2 4h-2v2l-4 1h-8l-10 5-6 2 1-5 1-2-3-9h-12l-5-3-3-3v-2l-3 1 2 4 2 3 1 8-3 1-3-2h-6l-3 2 1 6 4 5h8l9-1-5 9-7 8-8 11-7 10-6 8-4 2-23 1-25 4h-3l-1 8-4 1-14-5-16-5-17-3-23-6-8-1-10-4-12-6-7-8-9-5-11-4-5-4-4-2-9-11v-14l-2-2h-6l-2 1h-7l-9-4-10-3-22-5-12-1-5-5v-2h-9l-16-6-15-6-11-5-7-2-16-4-7-2-3-2-9 1v2l-3-1-1-5h-3l-7-2 1-4 9 2 8 3 26 7 20 5 15 2h12l5-4 5-18 9-17 10-15 11-16 9-12 11-12 10-9 14-9 19-10 26-11 34-13 37-13 20-9 24-8 8-2z" fill="#E5ECFD"/>
<path transform="translate(1035,110)" d="m0 0 17 1 16 4 12 6 13 11 14 14 9 13 11 17 5 5 5 2 19 3 14 5 19 10 12 11 8 9 16 26 3 6v2l5 2 2 3-1 9 3 15v25l-2 11v12l5 4 7 3 8 6 10 9 8 7 18 18 11 15 13 20 7 11v2l5-3 13-11 8-9 6-3 13-2 12-4 11-4 12-1h12l14 2 14 5 16 8 22 13 18 11 26 14 16 11 13 11 13 12 13 16 5 8 1 5-3 8-9 11-7 6-7 3-18 3-35 3-18 4v2l4 2 2 3v6l-5 5-6 1v19l2 18 6 15 15 27 10 23 7 23 6 18 8 16 22 33 11 21 7 17 13 22 5 11 3 14v17l-3 10-9 20-14 27-17 34-8 18-7 11-7 9-11 11-20 14-19 14-16 10-12 7-22 10-21 6-11 3-2 10-3 18-5 17-8 20-7 10h-1l1-29 1-11v-16l-2-14-6-12-8-7-14-5-9-1-1-3 1-4 3-1v2h11l7-2 1-18-1-2h5l5 3h4l-2-7-2-2-16-2-9-4-5-6-4-4-2-7 3 1v-7l2-4 4 4v3l7 2h6l2-1 2-4h2v-11l-3-7h2v-5l-4 1-1-4 3-4h2v-4l7-3 11 1 2 1 7-2 1-2 1-9 8-4 1-4-2-7 1-4 4-2 4-4 16-8 5-3 11-1 6-3 1-5-1-6 3-8 7-11 4-5 3-3 4-11-1-7v-15l4-7h-2l-1 2 1-17 2-13 1-30-3-7-2-14h5l1-8v-9l-5-8-7-1-2-4v-3l3 1 1 2 6 3 6 5 3 5v-1l-1-8 1-11-5-12-7-14v-2l-3-1-6-11-6-7-1-5h-2l-1-2v-7l-5-10-1-7-1-3h-2l-6-8-5-8-2-16 5 1 5 5 3 4 5 1-1-6-7-11-5-6-16-10-4-1 6 9 3 4-2 4v6l-1 2-5-1-10-7-6-5v-2l-4-1v-2l-4-2 2-1 1-3 8-7 8-9 12-18 9-16 5-17 1-8-2-8-6-5-3-1h-9l-10 3-15 9-10 8-8 7-19 19-5 4h-4l-1-3v-32l-3-9-10-10v-3l-4-10-7-7h-2l-5-6-6-5v-2l-4-2-20-15-10-6-24-9v-2l-19 1h-18l-13-1-1-4 5-4 7-1 1-3 5-2 3-1v-12l-2-6h3l-2-9 2-2h3l-1-4 2-1-4-7v-10l-6-3-10-2-5-4 3 8-2 1-2-4-6-1-4-5-1-12-5-15-10-16-3-7-2-10-4-2-1-3h-2l2 3 1 9 3 6 5 20 2 5 1 12-2 4v7l-1 2-8 1-4-4-5 1-2 4h-2v2l-4 1h-8l-10 5-6 2 1-5 1-2-3-9h-12l-5-3-3-3v-2l-3 1 2 4 2 3 1 8-3 1-3-2h-6l-3 2 1 6 4 5h8l9-1-5 9-7 8-8 11-7 10-6 8-4 2-23 1-25 4h-3l-1 8-4 1-14-5-16-5-17-3-23-6-8-1-10-4-12-6-7-8-9-5-11-4-5-4-4-2-9-11v-14l-2-2h-6l-2 1h-7l-9-4-10-3-22-5-12-1-5-5v-2h-9l-16-6-15-6-11-5-7-2-16-4-7-2-3-2-9 1v2l-3-1-1-5h-3l-7-2 1-4 9 2 8 3 26 7 20 5 15 2h12l5-4 5-18 9-17 10-15 11-16 9-12 11-12 10-9 14-9 19-10 26-11 34-13 37-13 20-9 24-8 8-2z" fill="#FAFCFD"/>
<path transform="translate(836,867)" d="m0 0h10l12 3 9 1h4 6l4-1v1l5 1-1 4 5 1 7 3 2 6 9 1 4 3 6 1h19l7-1 15 1 9 2h10l8-4 6 1 2 5 10-2 3 3v1h-11l-15-2-10 2-5 3h-2l2 4 8 3-1 5 5 8 8 4 9 9v2l9 2 32 12 6 3 2 6 2 4 5 3h7l5-1 8 7 7 8 5 10 3 9 5 9 4 6 3 11 4 4 5 10-1 3 3-1v4h10l9 3 11 11 3 4 5-1 6-5 4-4 4 1-1 5-10 13-11 12-7 8-9 10-12 14-24 26-8 10-11 12-7 8-3 4h-2l-2 4-13 13-10 13-3 5v8l4 14 7 11 8 7 5 2h13l11-4 28-28 7-8 9-10 5-6 3-2 5 1v5l-8 11-9 9-8 10-11 12-9 11-11 12-17 17-11 5-6 2h-23l-12-5-11-7-4-1-13 2h-21l-20-5-12-6-10-9-14-11-5-5h2l-4-6-4 2-10 9-20 20-18 12-16 9-7 2-16 1-9-2-6-5-4-9-2-9 1-16 5-59 1-7 4-60 1-8v-10l-2-7-3-2-9-1-11 8-7 7-5 2-1-3 4-7 9-10 11-13 7-8 2-5 1-1 1-27-1-3h2l1-7 1-4 1-10 1-2v-5l3-4v-10l3-5v-2l-2-1 2-1v-3l-2-2 4 1 2 2 1-4-4-2 7 1 2-9 3-4 4-14-1-1v-5l-16-14-5-3-4-2-3 1-2-3h-5v-2h-2l-1 3h-5l-1-2h4l-1-4v-3l-5 4-1 4-3 1-2-1-1 3-3-2 8-10 1-3h-7l-12-6-5-5h-3l-6 3-4-2 1-5 1-1 17 1 11 3 12 2 1 4 8-4v-2h7l9-2v-3l4-1 4-5 6-3 1-2-3-1 2-2-1-2 8-1 1-6h2v-3zm-1 317-4 41v17l3 7 6 3h14l11-3 10-6 9-9 1-4-12-6-3-3-6-3-8-8-9-12-10-14zm12 10 1 4h3l-1-4zm14 19v2l6 3 3 2h6l-3-3-10-4z" fill="#DAC8FC"/>
<path transform="translate(592,272)" d="m0 0h5l-5 5-2-1-1 4-9 6-8 2-10 7-10 5-14 8h-3v2l-12 6-3 1v2l-10 4-5 1-4 3h-2l-1 5-11 9-3 5-9 3-5 5-9 6-4 5-3 9-4 10-3 8 5 5 2 5 2 17 1 3 2 27 2 7 1 3 1-4v-3h-2l-1-13v-20l3-9 2-7 1-10 3-8h2l1-3 4 1 1 11v14l-5 17-4 12-1 11-1 3v15h-2l4 20 1 7v16l-3 27v10l3 17v6h3v2h-2l1 5 1 2-1 15-4 16-2 6-2 17h-24l-16-5-10-4-4-1-1-2-19 1-11 4h-2l-1 3-6 5v8l3-7 7-5 10-3h11l4 2 11 2 7 2 7 3 9 2h17l5 2 3 12 7 13-1 9 3 5 4 2h6l7-2 8 4 1 1v6l-2 10h-6l-4 4-6 15-4 17-1 3v16l3 6v2h6l9 3 13 2 17 4 1 5-2-3h-3l-1 3-9 1 2-1v-3l-3 3-14 1 21 3 9 3 4 4-2 5-3 10-5 5-10 9-5 5-6 7-5 4-9 1 2 3 5 3v2l-6-1-10-6 1-5-1-2-8 1-10-6-9-15-6-6h-6l-2 6-9-3-19-10-6-3-1-6-14-4-9-3-4-2-6-2-2-3-3-1h-19l-9 4-3 3h-2l-2 4-8 10-2 4h-2l-3 11h-2l-1 11-3 3v-9l-4-6-9-12-9-17-11-26-4-17-1-2-3-1v2l-8 7-9 8-11 7-9 3-12 1-9-2-10-6-8-9-5-13-1-7v-18l2-15 5-16 7-17 8-16 8-13 8-10 10-13 5-4 5 2-1 5-11 16-11 15-13 25-8 21-3 13-1 8v15l2 11 4 8 8 6 7 2h9l7-3 3-1 2-4 4-9 5-21 6-52 2-31 5-59 5-73 6-77 1-9v-30l-3-19-6-11-7-6-8-3-5-1h-16l-11 4-9 6-7 7-8 16-3 14v14l3 10 6 9 10 7 12 3h15l14-5h6v5l-6 5-10 3-7 1h-18l-11-4-11-8-7-10-5-13-1-5v-17l7-25 9-17 10-13 11-12 14-11 10-6 11-4 9-2 13-1 13 1 12 5 8 6 9 13 5 12 2 10 2 26 1 2 5-2 8-7 5-6 8-7 28-28 16-12 16-8 7-2 8-1h16l14 2 11 4 11 6 6 4 7-1 10-7 3 1 2 5-7 9-11 12-2 3 5-1 15-11 9-8 14-9 10-8 19-10 26-6zm-200 67-11 2-16 6-17 9-7 7-14 10-8 7-2 4-5 57-2 21-2 35-2 27-1 22 2 1 13-19 1-9 9-10 12-13 18-18 12-9 10-7 4-3 3-11 12-23 9-13 7-9 7-8v-2h2l7-8 8-8 4-5 8-7 6-7 2-3v-3l-4 2-7 6-6-1-10-7-14-8-13-4z" fill="#FAFCFD"/>
<path transform="translate(1153,260)" d="m0 0h2l6 7 4 13 9 15 3 4 3 11 1 3 1 12 3 3v2l4-1 5 4-3-7 1-3 5 6 13 3 4 3v10l4 7-2 2v3h-3l-1 5 2 7-3 1 2 5v9l-5 5-4 1-1 2-8 3-3 2v3l14 1h36l1 2 15 5 9 4 12 7 11 9 10 7 4 4v2l4 2 3 3v2l3-1 8 10 4 11 4 5 5 5 3 9v35l5-2 12-11 17-17 11-8 14-9 7-3 5-1h9l6 3 5 6 1 7-3 15-4 11-8 14-15 22-12 12-3 2h-3l2-11 2-10v-16l-2-6-7-3h-12l-12 7-10 8-5 6-3 13-2 21-2 25-1 7-2 26-3 33-3 13-7 9-15 16-12 13-7 5-5-1-1-1v-20l3-26 4-42 2-34 3-28 2-27v-11l-2-3-6-2-7 1-10 9-8 7-5-1 1-5 8-11 15-15 9-11 6-8-10-3-2 4-5 2-6 2v7l-4 3h-2l-1 5-4 7-9 6-1 7-2 9-3 9-3 2-5-3 1-4 5-10v-30l-2-7-8-4-1-1v-11h3l4-4-4-1-9 1-1 6-5-1-3-6-9-6-10-5-7-2-2 6h-3l-1-3-2-1h-6l-4 5-3 1-6-1-2 4-6 4-6 3-7 8 9-5 10-6 9-4 4-1h20l13 4 9 6 7 7 6 12 3 15-1 21-3 17-7 28-8 20-16 34-10 18-9 12-8 11-14 15-11 10-10 7-11 5-16 3-9-1-10-3-13-8-8-8-6-13-2-11v-14l1-17 3-15 9-29 11-26 14-28-1-3v-7l6-5 2-9v-4l5-2 3-3 6-2 2-15-5 2-5 1-6 5-2-1-1-7-1-4 5-5 6-12 4-6 2-9 6-5 6 1 4-13 8-3 9-3 10-7 3-3 3-1h23l3-1h7l3 2 13 2 9 1 10 4 6 3 5 4 9-1-1-5h2l-1-7-6-5-3-5-6-4-7-3-11-2-17-1-27-3h-9l-18 4-11 3-12 5-38 13-11 5-6 3 1 1h15l7 3 2 2-1 8-3 9-2 8-1 2-4-2-2-4-9-7-4-2-9-10v-2l-4-1-8-14-13-12-9-3-8-4-6-2 3-10 14-3 14-2 23-1 6-4 7-11 10-13 7-9 6-9-16 1-5-6-1-6 4-3h6l4 2h2l-3-9-2-5-1-2h4l5 6 9 1h6l4 10-2 6 5-2 10-5h12v-2l2-1 3-5 6 1 2 4 8-1v-9l2-4-1-14-3-7-4-16-3-6-1-9z" fill="#E6ECFD"/>
<path transform="translate(777,1083)" d="m0 0 1 3-13 14-5 7-1 6 8-6 10-9 5-3 9 1 5 4 1 6v10l-2 23-3 45-3 32-4 43 1 13 4 10 5 5v3l-3 10-9 10-9 9h-2l-2 4-7 7-14 11-13 11-13 13-14 7-14 5-5 1h-11l-15-5-11-8-8-6-11-3-6-1-11 3-17-1-6-1-6-4-4-3-12-6-10-8-1-1h-7l-2-1-3-9-1-9-3-9-1-28 2-16 1-3 1-17 6-13 5-10 1-5 1-24 1-14h3l7 5h10l14 1 12-1 11-3-6 7-12 11-9 9-8 7-7 8-6 5-9 11-7 10-4 13v15l4 7 7 5 3 1h13l10-4 14-8 14-11 12-12 6-5 7-8 9-8 3 2v41l4 11 3 2 11 1 11-4 10-8 8-8 7-8 12-13 9-9 9-13v-5l-5 1-7 7-5 6-6 3h-10l-3-3-1-3v-20l4-46 5-58 2 4 12 6h4l-2-4-4-3 1-5 2-1h9l20-6 9-3 9-5z" fill="#E8E4FD"/>
<path transform="translate(1333,1043)" d="m0 0h19l9 3 9 8 6 12 2 14v16l-3 42-2 9-6 58v27l5 5h9l9-7 7-7 4-3h4l-1 6-8 10-15 16-11 12-9 10-8 8-10 6-2 1h-15l-6-4-3-8-1-6v-27l2-26-13 4-25 14-27 12h-5l-2 4-11 13-11 11-8 7-10 9-4-2v-18l4-43 2-31 2-20 2-23 1-19 1-6 1-16v-13l-1-2-4-1h-7l-7 4-8 8-6 4-5-1 1-5 9-10 1-2h2l2-4 10-12 7-8 10-9 4-5 11-9 4-3 5-1h10l7 4 3 6 1 5v38l7-3 27-27 5-6 8-7 8-6 9-5z" fill="#2A2B3A"/>
<path transform="translate(264,288)" d="m0 0 17 1 12 5 8 6 9 13 5 12 2 10 2 26 1 2 5-2 8-7 5-6 8-7 28-28 16-12 16-8 7-2 8-1h16l14 2 11 4 11 6 6 4 7-1 10-7 3 1 2 5-7 9-11 12-11 14-22 22-6-1-10-7-14-8-13-4-15-1-11 2-16 6-17 9-7 7-14 10-7 6-2 4-5 57-2 21-2 35-2 27-3 45-4 53-3 24-5 24-7 23-7 17-12 18-15 15-11 8-8 4-6 2-12 1-9-2-10-6-8-9-5-13-1-7v-18l2-15 5-16 7-17 8-16 8-13 8-10 10-13 5-4 5 2-1 5-11 16-11 15-13 25-8 21-3 13-1 8v15l2 11 4 8 8 6 7 2h9l7-3 3-1 2-4 4-9 5-21 6-52 2-31 5-59 5-73 6-77 1-9v-30l-3-19-6-11-7-6-8-3-5-1h-16l-11 4-9 6-7 7-8 16-3 14v14l3 10 6 9 10 7 12 3h15l14-5h6v5l-6 5-10 3-7 1h-18l-11-4-11-8-7-10-5-13-1-5v-17l7-25 9-17 10-13 11-12 14-11 10-6 11-4 9-2z" fill="#2A2B3A"/>
<path transform="translate(1210,963)" d="m0 0h2l1 2v15l1 1v7l-11 27-9 21-4 12-15 24-2 10-2 7 3 6 3 9 2 4-1 5 6-1 12-11 7-4h7l5 2 1 2v13l-1 16-1 6-2 34-2 15-2 23-2 32-3 32-1 17-9-4h-17l-30 4-14 2-26-1-15-2-3-1-24-2-6-2 26-26 9-11 11-12 9-11 9-10 6-7 4-6v-5l-5 1-5 4-9 11-7 7-7 8-23 23-11 4h-13l-8-4-7-7-6-10-4-14v-8l3-5 13-16 12-12 7-8 11-12 7-8 9-11 15-16 9-10 9-11 7-7 7-8 12-14 10-12 2-3v-4l-5 1-6 7-3 2-5-1-11-12-4-3-7-2-10-1-1-3h-2l-1-5-4-8-4-4-3-11-4-6-6-11 1-2 3 2v-2l4-2 6 1 9 2 5 2v-7l11 3 4 4 2 9 9 7 6 4 7 6-1 4-2 2-1 5 5-1 4-5 8-8-1-6-1-3 6-1 7 1 11-2 2 6 4-1 6-3 7-14 3-10 1-10 1-7-1-4z" fill="#DAC8FD"/>
<path transform="translate(202,889)" d="m0 0h2l-1 3-8 7 1 2 10 1v5l-3 4-1 5-4 7-1 8 1 5-2 9-1 11v9l2 16 4 8 7 9 8 6 12 5 6 1h9l18-3 7-4 2-4v-4l-8 1-10 3-7 1h-9l-10-2-8-4-8-9-4-8-1-3v-22l2-11 7-12 9-10 12-6 15-3 13 1 10 5 8 10 5 12 1 5v30l-2 20-2 37-1 8-2 32-1 10-1 24-3 27-1 25-1 19-3 16-1 28-4 41-1 5-5-3-13-3-10-5-10-8-5-5 3-9 9-17 10-14 14-21 1-5-4-1-9 6-12 16-9 15-7 13-4-5-7-14-2-13-4-16-6-8-10-9-5-9-2-13-3-11-2-14-8-10-4-9-4-20v-11l2-13 4-11 3-10v-13l-2-7-2-27v-10l3-23 8-23 7-13 9-10 7-7z" fill="#B7CAFD"/>
<path transform="translate(272,861)" d="m0 0h29l10 4 9 6v2l4 2 6 8 6 13 2 8 1 16v40l-6 69-5 57-2 28-2 24-2 32-4 44-3 19-6 24-7 14-6 14-9 14-8 10-8 8-13 8-14 5h-16l-10-5-7-6-6-10-3-8-1-8v-12l2-18 4-17 8-20 12-22 7-11 13-16 7-4 4 1 1 3-3 6-19 28-7 11-8 17-6 15-4 18-1 18 2 11 6 12 6 4 9 2 10-1 6-4 5-8 5-16 3-18 5-53 1-28 3-16 1-19 1-25 3-27 1-24 2-23 1-19 2-26 2-32 1-7v-30l-4-13-7-11-9-6-9-2-14 1-13 4-9 6-8 10-5 9-2 11v22l4 9 7 9 6 4 6 2 7 1h9l14-3 7-2 5 1-1 6-5 5-9 3-13 2h-9l-12-3-9-5-9-8-7-11-2-8-1-11v-9l2-16 6-18 11-19 7-9 10-10 20-14 15-7z" fill="#2A2B3A"/>
<path transform="translate(1171,472)" d="m0 0h20l13 4 9 6 7 7 6 12 3 15-1 21-3 17-7 28-8 20-16 34-10 18-9 12-8 11-14 15-11 10-10 7-11 5-16 3-9-1-10-3-13-8-8-8-6-13-2-11v-14l1-17 3-15 9-29 11-26 8-16 7-12 12-19 14-18 7-8 11-11 16-10 11-5z" fill="#2A2B3A"/>
<path transform="translate(389,626)" d="m0 0h11l4 2 11 2 7 2 7 3 9 2h17l5 2 3 12 7 13-1 9 3 5 4 2h6l7-2 8 4 1 1v6l-2 10h-6l-4 4-6 15-4 17-1 3v16l3 6v2h6l9 3 13 2 17 4 1 5-2-3h-3l-1 3-9 1 2-1v-3l-3 3-14 1 21 3 9 3 4 4-2 5-3 10-5 5-10 9-5 5-6 7-5 4-9 1 2 3 5 3v2l-6-1-10-6 1-5-1-2-8 1-10-6-9-15-6-6h-6l-2 6-9-3-19-10-6-3-1-6-14-4-9-3-4-2-6-2-2-3-3-1h-19l-9 4-3 3h-2l-2 4-8 10-3 4 1-7-4-13-3-5-3-6v-19l6-18 6-10 10-9 9-5 13-8 12-3 6-2h7l10-4-1-5-8-16-4-10-3-10 1-4 3-7 7-5z" fill="#D8ECFE"/>
<path transform="translate(460,861)" d="m0 0h8l11 2 10 5 7 8 6 12 6 20 2 10v22l-2 40-5 36-3 28-4 36-9 74-4 34-2 7-1 11v23l3 10 6 4 8 1 12-6 10-10 6-3 4 1-2 9-9 13-8 9-8 11-4 5-19 12-11 4h-13l-9-4-5-5-4-11-2-7-3-30 1-16 3-38 6-48 3-36 4-29 4-45 2-25 1-26 1-12v-15l-2-22-4-11-6-7-5-2h-14l-12 4-17 12-7 7-8 5-5-1-1-5 6-8 8-7 15-15 11-9 14-11 11-7 9-3z" fill="#2A2B3A"/>
<path transform="translate(742,472)" d="m0 0h15l13 4 8 7 5 10 2 8 1 14-3 28-4 47-3 33-1 13v21l1 5 9 2 8-4 10-11 5-3 4 1v5l-7 10-14 15-7 7-7 8-11 12-10 8-10 4h-10l-6-3-4-8-1-6v-40l-8 6-8 8-4 5-8 7-7 7-13 10-13 8-8 4-4 1h-14l-6-3-7-8-2-10 2-15 8-14 9-10 7-8 3-1 2-4 13-13 8-7 13-13 8-7 22-22 8-7 8-9 2-16v-19l-3-8-5-5-5-2h-11l-12 3-11 8-10 9-8 7-14 13-6 4-5-1 1-5 11-12 14-14 8-7 11-11 8-7 11-11 13-10 12-6z" fill="#2A2B3A"/>
<path transform="translate(668,1045)" d="m0 0h16l10 3 9 6 5 8 3 10 1 8v10l-3 29-8 92v20l3 5h10l8-5 9-10 3-2 4 1-1 7-10 13-15 15-7 8-12 13-9 8-9 4-10 1-7-2-4-6-2-7v-41h-3l-10 9-9 10-8 7-8 8-14 10-14 8-8 3h-13l-8-4-6-7-1-3v-15l4-13 10-14 10-11 8-7 7-8 10-9 10-10 8-7 10-9 7-8 8-8 8-7 8-8 3-6 2-18v-9l-2-11-6-7-4-2h-14l-10 3-10 6-12 11-8 7-7 7-11 9-5 1-2-3 6-9 22-22 8-7 8-8 8-7 12-12 13-10 14-7z" fill="#2A2B3A"/>
<path transform="translate(576,300)" d="m0 0h6l7 6 2 6 1 7v35l-4 42-1 29-2 15-4 41-1 23-5 54-2 31-4 54-1 14 1 4 2 1h11l6-4 13-11 4 1 1 5-10 13-15 16-29 29-8 5h-13l-7-3-3-7-1-5v-35l10-128 4-44 1-18 1-7v-11l3-32 2-33 2-13v-25l-5-1h-9l-10 9-8 8-5-1-1-3 7-11 10-10 7-8 12-14 5-5 12-11 10-6z" fill="#2A2B3A"/>
<path transform="translate(1018,472)" d="m0 0 8 1 5 6 2 6v38l-4 22-6 20-7 19-14 29-9 14-10 16-9 11-8 11-29 29-13 9-11 7-14 7-3 1-18 1-8-3-6-4-4-8-2-8v-16l4-44 5-60 1-20 1-9v-19l-2-3-11-2-12 9-9 8-3-1 1-6 11-12 11-13 9-10 17-17 10-7 2-1h16l5 4 3 9v26l-3 37-1 25-2 15-4 52-1 26 2 7 3 3 3 1 17-1 10-3 11-8 8-9 10-15 9-23 7-28 4-21v-34l-4-11-5-2-9 1-13 10-7 6h-2l1-6 7-9 11-13 14-15 13-13 12-9 4-2z" fill="#2A2B3A"/>
<path transform="translate(943,1045)" d="m0 0h7l5 3 4 8 1 5v27l-2 17-4 18-10 30-8 17-8 16-7 11-12 19-6 8-8 11-15 14-18 18-18 12-16 9-7 2-16 1-9-2-6-5-4-9-2-9 1-16 5-59 1-7 4-60 1-8v-10l-2-7-3-2-9-1-11 8-7 7-5 2-1-3 4-7 9-10 11-13 7-8 12-13 6-5h2v-2h2v-2l8-4h17l5 5 2 7v29l-3 40-1 23-2 14-2 28-3 33v17l3 7 5 2h14l11-3 10-6 8-8 7-11 6-8 7-16 7-24 5-24 1-6 1-16v-17l-2-9-4-6-2-1h-8l-10 6-12 10h-3l2-6 11-14 11-12 7-8 12-12 9-8 10-6z" fill="#2A2B3A"/>
<path transform="translate(1107,1044)" d="m0 0h12l9 3 11 11 3 4 5-1 6-5 4-4 4 1-1 5-10 13-11 12-7 8-9 10-12 14-24 26-8 10-11 12-7 8-3 4h-2l-2 4-13 13-10 13-3 5v8l4 14 7 11 8 7 5 2h13l11-4 28-28 7-8 9-10 5-6 3-2 5 1v5l-8 11-9 9-8 10-11 12-9 11-11 12-17 17-11 5-6 2h-23l-12-5-11-7-10-15-3-12v-35l7-29 7-24 8-18 10-19 7-11 10-15 8-10 9-10 11-11 9-7 8-6 14-7z" fill="#2A2B3A"/>
<path transform="translate(1409,471)" d="m0 0h9l6 3 5 6 1 7-3 15-4 11-8 14-15 22-12 12-3 2h-3l2-11 2-10v-16l-2-6-7-3h-12l-12 7-10 8-5 6-3 13-2 21-2 25-1 7-2 26-3 33-3 13-7 9-15 16-12 13-7 5-5-1-1-1v-20l3-26 4-42 2-34 3-28 2-27v-11l-2-3-6-2-7 1-10 9-8 7-5-1 1-5 8-11 15-15 9-11 5-6 8-7 12-10 9-3h8l7 3 4 7 1 5v35l5-2 12-11 17-17 11-8 14-9 7-3z" fill="#2A2B3A"/>
<path transform="translate(1175,389)" d="m0 0h3l2 2 2 1 1-2 1 6-1 3 23 2h36l1 2 15 5 9 4 12 7 11 9 10 7 4 4v2l4 2 3 3v2l3-1 8 10 4 11 3 5h-11l-9 3-13 11-6 5v-2l-10-3-2 4-5 2-6 2v7l-4 3h-2l-1 5-4 7-9 6-1 7-2 9-3 9-3 2-5-3 1-4 5-10v-30l-2-7-8-4-1-1v-11h3l4-4-4-1-9 1-1 6-5-1-3-6-9-6-10-5-7-2-2 6h-3l-1-3-2-1h-6l-4 5-3 1-6-1-2 4-6 4-6 3-7 8-2 4-13 13-9 12-10 14-8 13h-2l-1-3v-7l6-5 2-9v-4l5-2 3-3 6-2 2-15-5 2-5 1-6 5-2-1-1-7-1-4 5-5 6-12 4-6 2-9 6-5 6 1 4-13 8-3 9-3 10-7 3-3 3-1h23l3-1h7l3 2 13 2 9 1 10 4 6 3 5 4 9-1-1-5h2l-1-7-6-5-3-5-6-4-7-3-11-2-17-1-27-3h-9l-11 2-4-1 10-5 8-1v-2h2l1-4 2 1z" fill="#E8E4FD"/>
<path transform="translate(1145,508)" d="m0 0h17l7 4 7 7 7 14 4 12 2 16v27l-3 21-4 16-9 22-7 12-9 10-5 6-11 5h-14l-9-3-8-9-8-15-4-16-1-13v-23l3-24 4-13 6-18 10-17 7-9 8-8z" fill="#B7CAFD"/>
<path transform="translate(1298,1084)" d="m0 0h17l5 3 5 6 2 5v16l-2 29-1 7-2 27-4 41-13 4-25 14-27 12h-5l3-15 4-44 2-25 3-29 1-16 4-10 15-14 10-7z" fill="#FAFBFD"/>
<path transform="translate(1211,1146)" d="m0 0 2 2-1 22-2 15-2 23-2 32-3 32-1 17-9-4h-17l-30 4-14 2-26-1-15-2-3-1-11-1v-2l7-1 9 1 7-2 2-9 10-10 7-10 6-11 15-15 16-23 13-21 9-10 8-7 5 1 1-4 4-3 5-5z" fill="#F9FBFD"/>
<path transform="translate(1065,844)" d="m0 0h19l17 3h7v-3l28 2 23 1 18 3 13 3 10 4 10 3 10 5v2l6 3 6 1 12 7 5 3 5 6v3h2l2 6h2l4 11 3 9 2 11 2 23 1 10-2 1-2-8-2-10-3-24-6-9-5-3-3-11-4-2-9-5-5-4-38-19v-2l-12-3h-3v7l-7-1-7-2-2 4h-2v2l4-1 7 4 2 5-5-3v12l-5 5-2 1v3l10 1 5-1 3 2-1 3 5 2 1 2v6l-4 3-4-1-6-7-5 1v2l7 6 2 7-3 6-5 4h-8l-6-5v-11l4-5h2l-1-6-10 3-2-7-4-2-9-5-3-2h-7l-4 3-9-1-6-2-2-4-7 1h-16l-6-4-12-5h-11l1-2-9 1-1 3-3 1-1-6 3-5 4-1 1-5 2-3-7-1-1 5-2-1h-3-5l4-1-1-4 4-4 10-2v-5l4-1h15z" fill="#E8E5FD"/>
<path transform="translate(1166,402)" d="m0 0h9l27 3 17 1 11 2 10 5 13 13 1 8h-2v4l-4 2-7-1-6-5-11-4-5-2h-8l-13-3-1-1h-7l-3 1h-23l-5 3-5 4-7 5-15 4-5 15-1-2-7 1-3 3-2 9-6 9-4 9-4 2-1 6 1 1 1 7 5-3 3-3 7-1h3l-2 13-4 4-5 1-2 4h-4l1 5-2 9-5 4h-2l2 11-5-2 1 4-11-3-7-1-4-5 2-11 5-8 7-12-1-6 2-10 2-2v-10l-3-10-4-1-2-6-6-4 3-2 8 7 3 5 2 1 4-16 2-7-1-5-7-3h-15l-2-2 11-6 21-8 35-12 9-3 16-4z" fill="#D9C8FD"/>
<path transform="translate(1187,462)" d="m0 0 7 1 15 8 6 5 1 4 5 2 1-6 9-2 5 2-5 5-2 1v9l8 4 2 2 1 6v30l-6 11 1 4 4 1 2-2 2-8 2-12 2-5 9-6 4-8 1-3 4-3h2l-1-7 7-3 5-2 2-3 7 1 3 2-2 4-11 13-7 8-11 11-7 11v3l6-1 13-13 5-3 8 1 5 3 1 2v11l-3 36-2 19-3 45-2 12-1 3-4-1-2-8-1-28-1-3 4-8-1-6-10 1-5-1 2-8 5-7 7-4v-9l-8 2-11 4 1 6-1 2-3 1-1 3 1 2 3-1 3-3 1 4h-2l-2 4-4 3-2-5-8-4-7-9-6-1-7 2-3 3 1-8 7-28 2-13 1-21-3-15-6-12-8-8-12-6-8-2h-20l-11 4-11 6-9 6-2-1 9-10 8-4 7-6 5 1 6-6h6l3 2v3l3-1z" fill="#F9FAFD"/>
<path transform="translate(488,527)" d="m0 0h7l4 4 2 5 3 3 2 5 5 3 1 2 5-1 2-6 5 2 2 3v10l1 1v31l-5 65-1 1-1 10h-1v-10l-5 3h-4l-1 7-2 2-5-1-4-3-5 3h-5l-6-5-4-2-2-4 4-5h2v-2l7-6 7-9 3-2-9 3-3 2-12 1-5-2 1-6 6-5-1-5-2-3v-5l5-6 2-7-4-2v-7l6-4h2v-3l-8-2-1-5 3-8-2-15h-2l1-5 3-9 4-5z" fill="#CDE2FE"/>
<path transform="translate(375,699)" d="m0 0h12l7 3 9 7 5 6 1 2 7 6 9 11v3l4 2 9 11 9 10 3 3 11 5 21 8-2 11-5 20-4 1-12-7-9-4-13-7-36-19-11-6-2-4-2-7-8-10-13-7-2-3-7-1v-8l8-16 4-6 3-3z" fill="#FAFCFE"/>
<path transform="translate(562,1175)" d="m0 0 4 2 7 4h9l14 1 12-1 11-3-6 7-12 11-9 9-8 7-7 8-6 5-9 11-7 10-4 13v15l4 7 2 2v3l5 2 10 5 8 6v2l5 2 4 4v2h2l5 5 7 6 15 7 16 6v4l-3 3v7l1 7-15 4-17-1-6-1-6-4-4-3-12-6-10-8-1-1h-7l-2-1-3-9-1-9-3-9-1-28 2-16 1-3 1-17 6-13 5-10 1-5 1-24 1-14z" fill="#FAFCFD"/>
<path transform="translate(1217,678)" d="m0 0 4 2 5 3 1 3-1 5 5 1 1 4h5l3-3h5l-1 8-1 7 4 5 2 9 15-2v-2l-3-2 1-5 4 1v-2h3v4h-5v2h5l1 5 5 1h12l11-4 5 2-1 5-13 9-11 6-25 13-20 12-14 10-8 7-7 8-4 3-4 1h-15l-4-5-5-3-1-9 7-14 6-2v-2l8-7 3-5 4-4 2-3-1-11h2v-2l2-1 3-4h2l1 2 3-3 6-13 1-3v-15z" fill="#E8E5FD"/>
<path transform="translate(592,272)" d="m0 0h5l-5 5-2-1-1 4-9 6-8 2-10 7-10 5-14 8h-3v2l-12 6-3 1v2l-10 4-5 1-4 3h-2l-1 5-11 9-3 5-9 3-5 5-9 6-4 5-3 9-4 10-3 8 5 5 2 5 2 17 1 3 2 27 2 7 1 3 1-4v-3h-2l-1-13v-20l3-9 2-7 1-10 3-8h2l1-3 4 1 1 11v14l-5 17-4 12-1 11-1 3v15h-2l4 20 1 7v16l-4 37h-1v-17l2-12v-23l-1-2-2-12-2-6-10-2-3-6-5-7-6-2-3-6-3-3 2-4-5 2 1 5h-2l-2 2-3-4v-2h-2v-5l-1-2 5-10 3-8 8-28-3 1-5-3-1 2 1-4 13-13 5-6 8-7 7-9 1-3-2-1 13-13 7-9 9-3 13-10 9-8 14-9 10-8 19-10 26-6z" fill="#D9ECFE"/>
<path transform="translate(1267,573)" d="m0 0h6l1 2v7l-6 4h-2l-2 5-3 4-2 6h7l8-1 2 7-4 9 1 2 1 28 1 8 4 1 1-3-1 19-4 34-2 1-3 5-4-1v2h-4v4l4 3-2 2-15 2-2-7-5-10 3-13-6 2-2 2-5-1-1-4h-5l-1-4 1-4-11-8-1-4 6-8 11-13 8-14 4-10 2-11 1-3v-9l-4-9-1-4 8 4 2 4 5-6h2l-2-3-3 4-3-1-1-3 2-3h3l-1-8 12-5z" fill="#E5ECFD"/>
<path transform="translate(398,454)" d="m0 0h11l10 3 4 9v14l8-4 6-5h5l2 2-1 6-4 6-12 12-7 8-9 10-9 9-7 8-2 3h-2l-2 4-9 9-3 2-5-1-1-5 5-16 1-5v-9l-2-8-1-2-3-1h-10l-10 4-10 7-10 9-6 4h-4l-2-5 4-7 9-9 7-8 21-21 12-9 10-7 12-6z" fill="#2A2B3A"/>
<path transform="translate(1035,885)" d="m0 0v3l-4 4 1 4 6 4 1 4 4 2 7 2 3 3-1 5-3 1-2-6-2-1v7l3 1v2l-6 1-4-2 3 3 9 5 7 7v2l10 2 7 12h8v2l7 1 3 4 6-1-1 3 3-1 1 6-6 1 1 7-1 1h-10l1 8 6 2v3l-4 10-4-2-6-14-7-7-6-7-6-1-1 1h-7l-5-3-3-4-1-5-3-3-14-5-10-4-13-5-7-2-4-5-5-5-6-3-5-4-3-6 1-4-9-4v-4l10-5 9-1 13 2h11l15-4z" fill="#E8E5FD"/>
<path transform="translate(1096,819)" d="m0 0 9 2 8 3 13 2-6-3v-3l10-1 10 5 5 1h8l5-2 8 1 3 3h10l4-1h14l12-3 24-2h8l2 1h25l5-2h3l-2 4-22 6-7 1-9 2 1 4 8 4 5 10h-3l-12-5v-2l-14-1-8 1-4-3-3-1v4l9 1v2l5 2 6 3 5 5 6 2-2 2-8-1-5-2-1 4h-3v2l-7-2-7-3-13-4-5-2-20-4-7-1-37-2-24-3-20-7-9-4-4-3h2v-3l4-2h5v3l3 1-1-5 1-2 2 1 1 7-3 4 5-5 1-2h14l2-3-2-1v3h-3v-2l-3-1z" fill="#E8E4FD"/>
<path transform="translate(1090,368)" d="m0 0h5v2l7 2 8 3 6 1 13-3-1 6-1 7 3 2-1 5-8 5-2 5h4v2l7 2 5-5 4-2 1-3 1 4 3 1-1 5 2 1-9 3-44 15-15 6-7 4 1 1h15l7 3 2 2-1 8-3 9-2 8-1 2-4-2-2-4-9-7-4-2-9-10v-2l-4-1-8-14-2-3 5-1 1-7 3-8 4-5 3-8 4-3 9-3 3-3 6-12 4-5z" fill="#E8E4FD"/>
<path transform="translate(1074,1086)" d="m0 0h8l10 3 3 4 1 3v11l-3 11-4 8-9 10-7 8-9 9-8 10-11 12-7 8-5 6-5 4h-4l-1-2v-20l2-18 4-18 5-12 9-17 8-10 11-8z" fill="#D9C7FC"/>
<path transform="translate(1303,1009)" d="m0 0 4 1 3 8 2 7v7l1 6v8l-2 7-2 5-3 1-1 3h-2l-1 3-32 32-6 1-1-38-3-11-4-2-3-1h-10l-7 2-4 3 1-7h-5l-3 1v2l-2-1 1-6-1-4-1-5-3-1-1-6 5 2-2-5 1-9 2 1v2l16 4 7 3 22 5h4l3-5 4 1 7 2v-2h2l4 4 1-6 1 2 2 1 3 9h2l2-3 2-1-6-12-1-5z" fill="#D9ECFE"/>
<path transform="translate(1065,844)" d="m0 0h19l17 3h7v-3l28 2 23 1 18 3 13 3 10 4 10 3 10 5v2l6 3 6 1 12 7 5 3 5 6v3h2l2 6h2l4 11 3 9 2 11 2 23 1 10-2 1-2-8-2-10-3-24-6-9-5-3-3-11-4-2-9-5-5-4-38-19v-2l-12-3h-3v7l-7-1-9-3-13-6-1-3-10 2h-14l-2-1-11 1-3 4-7-1h-9l-13 3-10 7-16 7-6 3h-6l-1 3-3 1-1-6 3-5 4-1 1-5 2-3-7-1-1 5-2-1h-3-5l4-1-1-4 4-4 10-2v-5l4-1h15z" fill="#D1D1FE"/>
<path transform="translate(652,266)" d="m0 0 17 2 15 2-1 4h6l3 2 2-1 1 6 2 1-1-3 10-1 9 5 1 3 6 1 11 7 2 2 4 1 12 7 5 3 1 2 10 5 6 5 7 8v2l4 2 1 5 3 6 6 11 1 7 5 3 2 5 2 4 2 3 3 3v6l3 1v2h3l1 3v4l-5-1v-2h-2v-2l-3-1-2-4-3-5v-2h-2l-6-8-6-10-3-6v-3l-2-1-1-4h-2l-5-9v-3h-2v-3l-5-2-6-5-7-3-9-4-5-4-6-1-5-5-11-6-8-3-2-2-10-3-9-2-5-2-9-1-8-2h-5l-1-1-23 1-12 3-21 6-6 4-8 3-5 3-4-3h-6l-10 2 3-5 8-4 12-4h2l2-5 10-3v-2l5-1 6-2h6l1-2h7l6-2v-2l4-1 5-1h4z" fill="#DFC8E5"/>
<path transform="translate(656,1155)" d="m0 0h3l1 3v10l-4 37-2 10-6 8-14 12-10 7-7 2h-10l-6-3-5-6-1-8 4-13 6-9 16-17 26-26z" fill="#F8F9FD"/>
<path transform="translate(730,582)" d="m0 0 3 1v16l-2 21-3 22-7 8-12 11-10 7-9 3h-10l-6-3-4-5-1-3v-10l4-9 5-8 16-17 29-29z" fill="#B8CAFD"/>
<path transform="translate(1109,216)" d="m0 0 5 1 3 4 1 4-3 2 3 2 1 6-3 4h-8l-4-1h-8l-10 3-17 1h-9l-4 1h-14l-30 2-4 1-22 2-15 4-10 7-16 13-6 4h-2l-2 4-3 2-3-1 3-5 9-11 14-15 16-16 6-4 9-4 11-3h49l15 3h27l5 2h7l6-2 2-3v-6z" fill="#D9EDFE"/>
<path transform="translate(1112,990)" d="m0 0 11 3 4 4 2 9 9 7 6 4 7 6-1 4-2 2-1 5 5-1 4-5 8-8-1-6-1-3 6-1 7 1 11-2 2 6 2 1-1 4 1 2-7 10h-4l-1-4 4-5 1-4-8 3-8 10-3 3h-10l-3 3 2 3v11 2 3l-7 6-5-1-11-12-4-3-7-2-10-1-1-3h-2l-1-5-4-8-4-4-3-11-4-6-6-11 1-2 3 2v-2l4-2 6 1 9 2 5 2z" fill="#D8DAFE"/>
<path transform="translate(176,1132)" d="m0 0h2l4 11v6l4 1 2 5-3 1v2l4-1 14 1 6-4 16-10 6-2 1-2-2-2 4-2 10 1 5 4-1 5 2 1 2 5 6 5 1 7-5 3-12 15-2 5-9 12-9 16-5 9-4-5-7-14-2-13-4-16-6-8-10-9-5-9-2-13z" fill="#E5ECFE"/>
<path transform="translate(400,1053)" d="m0 0 11 1 12 5 5 2 10 2 1 5-11 10-8 7-20 16-7 3h-9l-12-7-7-3h-12l-13 6h-6l-1-3 5-7 11-8 12-9 22-14 9-4z" fill="#2A2B3A"/>
<path transform="translate(1145,508)" d="m0 0h17l7 4 7 7 7 14 4 12 1 7v15l-8-1-7-1-1-1-15-1-9-5-9-9-2-1v-2l-4-2-5-4-10 5-7 3 1-6 12-19 11-11z" fill="#F9FBFD"/>
<path transform="translate(482,776)" d="m0 0 28 3 13 3 5 5-2 5-3 10-5 5-10 9-5 5-6 7-5 4-9 1 2 3 5 3v2l-6-1-10-6 1-5-1-2-11-2-5-4-7-13v-2l-4-2-1-5-3-3-10-4h-3l-1-4-7-2-4-5-2-1 1-2 14 8 8 4 12 7 9 4 11 6h3l5-20z" fill="#E5ECFE"/>
<path transform="translate(358,693)" d="m0 0 3 1 1 6-6 10-9 10-6 8-1 22 1 10 1 1v5l-9 5-3 3-1 3h-2l-2 4-8 10-3 4 1-7-4-13-3-5-3-6v-19l6-18 6-10 10-9 9-5 13-8z" fill="#E6EDFE"/>
<path transform="translate(684,270)" d="m0 0 9 2 8 3 26 7 16 4 6 4 13 5 7 1v2l5 2 2 1 13 1 5 3 6 5 10-2 4-1h29l2-2h5l4 6 21 6 16 5 9 2 2 2v16l5 10 3 19 3 5-4-2-6-7-9-5-11-4-5-4-4-2-9-11v-14l-2-2h-6l-2 1h-7l-9-4-10-3-22-5-12-1-5-5v-2h-9l-16-6-15-6-11-5-7-2-16-4-7-2-3-2-9 1v2l-3-1-1-5h-3l-7-2z" fill="#D8ECFE"/>
<path transform="translate(1264,459)" d="m0 0h7l6 9 5 5 7 1 5 5 2 5-1 4-5 4v-2l-10-3-2 4-5 2-6 2v7l-4 3h-2l-1 5-4 7-9 6-1 7-2 9-3 9-3 2-5-3 1-4 5-10v-30l-2-7-8-4-1-1v-11h3l4-4-2-2 8-5 13-9z" fill="#E6ECFD"/>
<path transform="translate(773,1317)" d="m0 0 2 1-3 1-2 4-7 7-14 11-13 11-13 13-14 7-14 5-5 1h-11l-15-5-11-8-8-6-5-1v-1l6-1 1-2h3l2-5 3-3 4-1 64-1 19-3 8-4 10-8 4-4h2l2-4 3-1v-2z" fill="#FAFCFD"/>
<path transform="translate(1161,1196)" d="m0 0 1 3-3 5-3 10 1-1 5-1v5l-2 2v5l-1 3-1 6 1 7-2 5v7l1 4-11 8-17 9-10 8-2 5-6 1h-24l-11-1v-2l7-1 9 1 7-2 2-9 10-10 7-10 6-11 15-15 16-23z" fill="#E9E5FD"/>
<path transform="translate(436,711)" d="m0 0h3v3h2l1 3 7-1 6-2 11 2 2-1 4 1v3h2l3 4v9l-2 6v16l6 12v6l-5 1-16-7-10-7v-2l-3-1-6-9-5-10-8-7-3-6v-5l3-1-5-4-3-2 12 1z" fill="#FAFCFE"/>
<path transform="translate(1210,963)" d="m0 0h2l1 2v15l1 1v7l-11 27-9 21-4 12-15 24-2 10-2 7v4l-3-1-1-8 3-15h2l1-6-5 5-6 8-6-1h-8l1-4 11-14v-4l-5 1-2 1-2-2 1-5v-8l-2-3 4-3h12l2-5 7-8 4-2h4l-1 5-3 4 1 4 4-2 5-8-2-2h2l2-5 5-3 4-4 6-14 3-14 1-10-1-4z" fill="#D1D2FE"/>
<path transform="translate(650,1231)" d="m0 0 3 2v41l4 13v4l-5 1-8-6-5-3-2 3-7 1-5 1-1 3-2 1h-11l-6-2-9-4 1-3-2-1 4-4h5l2-4 7-6 7-8 8-8 6-5 7-8z" fill="#F8FAFD"/>
<path transform="translate(592,272)" d="m0 0h5l-5 5-2-1-1 4-9 6-8 2-10 7-10 5-14 8h-3v2l-12 6-3 1v2l-10 4-5 1-4 3h-2l-1 5-11 9-3 5-9 3-5 5-4 3-6 2h-3l4-7-2-1 13-13 7-9 9-3 13-10 9-8 14-9 10-8 19-10 26-6z" fill="#F9FBFD"/>
<path transform="translate(1397,1033)" d="m0 0 2 1 4 13-1 7-5 5 1 13-1 13-4 15-9 24-6 9-3 3 1-29 1-11v-16l-2-14-6-12-5-6 4 2 4 4v2l4-1 3-4-1-7 3-5 7-2h5z" fill="#E4EBFD"/>
<path transform="translate(738,896)" d="m0 0 17 1 11 3 12 2 1 4 8-4h16l12-1 5 5 1 12v26l-4-1-9-9-9-6-4-2-3 1-2-3h-5v-2h-2l-1 3h-5l-1-2h4l-1-4v-3l-5 4-1 4-3 1-2-1-1 3-3-2 8-10 1-3h-7l-12-6-5-5h-3l-6 3-4-2 1-5z" fill="#E8E5FD"/>
<path transform="translate(202,889)" d="m0 0h2l-1 3-8 7 1 2 10 1v5l-3 4-1 5-4 7-3 9-5 10-4 7-7 9-8 9-4 10-2 6-1 8-2 1-1-11v-10l3-23 8-23 7-13 9-10 7-7z" fill="#E6EDFE"/>
<path transform="translate(1180,852)" d="m0 0 10 1 10 4 10 3 10 5v2l6 3 6 1 12 7 5 3 5 6v3h2l2 6h2l4 11 3 9 2 11 2 23 1 10-2 1-2-8-2-10-3-24-6-9-5-3-3-11-4-2-9-5-5-4-38-19v-2l-12-3h-3v7l-7-1-9-3-13-6-2-4 5 2 4 3 8 2v-7l3-1 12 1z" fill="#D8DAFE"/>
<path transform="translate(1153,260)" d="m0 0h2l6 7 4 13 9 15 3 4 3 11 1 3 1 12 4 5-1 5-9 7-4 9-6 8-7-1-2-1v-8l-5-1v-1l-5-1v-6l4-2 1-4h-3v-2h-3v-6l2-2 6 1 2 4 8-1v-9l2-4-1-14-3-7-4-16-3-6-1-9z" fill="#D8ECFE"/>
<path transform="translate(836,867)" d="m0 0h10l12 3 9 1-1 4-7 9h-3l-3 5h-2l-1 4-6 10-3-1-4-4-2 4-2-1-3 1-3 9-3 2-2-10-3-2v2l-10-1-9 1h-7l-6-2 2-1 10-1 4-1v-3l4-1 4-5 6-3 1-2-3-1 2-2-1-2 8-1 1-6h2v-3z" fill="#D9DAFE"/>
<path transform="translate(770,1150)" d="m0 0 7 1 2 1h13l1 5-1 27-3 32-1 13h-2l-1 5h-5l-2-7-1-7-5-4v-5l4-2 1-10-1-4-4-2-3-3 1-11-3-8 1-4 6-5-7-3 1-5z" fill="#E5EBFD"/>
<path transform="translate(1276,435)" d="m0 0h9l9 6 6 3 3 2v2l7 2 1-4v2l3-1 8 10 4 11 3 5h-11l-9 3-12 10-2-2-5-10-7-11-7-9v-8l-1-3v-7z" fill="#E5ECFD"/>
<path transform="translate(163,1033)" d="m0 0 2 1-1 7h2l-1 7 5 10v2l5 1 5 6 4 15 2 8-1 16-4 1v6l-4 9v7l-2 1-3-18-8-10-4-9-4-20v-11l2-13 4-11z" fill="#E5ECFE"/>
<path transform="translate(782,1095)" d="m0 0 9 1 5 4 1 6v10l-2 5-2 24h-4l-3-5-4-3-6-2-16-8-3-2-5 1-2-1 1-4 3-1 2-10 3 1v2l8-6 10-9z" fill="#F9FBFD"/>
<path transform="translate(777,1083)" d="m0 0 1 3-13 14-5 7-2 4h-1l-2 9-4 2-1 3 5 1-3 1v6l-4-3v-2l-10-1-8 3-3 10-2 9-4 5 1-7-4-8-1-1h-8v-17l1-4h6l7 2 10 4 1-5-7-1-2-4-4-3 1-5 2-1h9l20-6 9-3 9-5z" fill="#E5ECFE"/>
<path transform="translate(1088,482)" d="m0 0h1l1 10-1 6 1 3 6 2h3l1-4 2 2 7-6 7-1h3l-2 13-4 4-5 1-2 4h-4l1 5-2 9-5 4h-2l2 11-5-2 1 4-11-3-7-1-4-5 2-11 5-8 7-12-1-6 2-10 2-2z" fill="#D9DBFF"/>
<path transform="translate(379,696)" d="m0 0 10 1 5 2 10 9 5 5 10 11-1 2-5-4-6-6-4-6-10-8-6-2h-12l-5 2-3 3-10 20-1 8h7l3 4 12 6 10 12 2 10 3 1-2 2-3-1v-2h-14l-9 3h-7l-6-3-2-3-2-10v-16l5-14 5-6 4-7 6-9 5-3z" fill="#E6EDFE"/>
<path transform="translate(898,1233)" d="m0 0 5 2 5 5 1 2 11 4 9 4 4-1 7 5 16 4 3 1v2h6l10 8 2 2h10l6 3v2l-13 2h-21l-20-5-12-6-10-9-14-11-5-5h2l-4-7z" fill="#E9E5FD"/>
<path transform="translate(1338,539)" d="m0 0 4 2 1 6 2 3v10l1-5h1l1 9h-2l-1 3-1 4h-2l-4 28-1 2-2 18-2 27-3 5h-2l2 7 1 2v7l-3 10-8 10-7 8-7 5-1 2-5 2-1 2h-2l-1 4-5 3-2-1 16-17 12-13 4-6 3-13 4-42 1-17 2-17 2-29 3-17h2z" fill="#F6F7FD"/>
<path transform="translate(1128,539)" d="m0 0 7 6 2 1v2l4 2 7 7 9 5 15 1v1h-19l-2-3h-2l-2 8-1 1 2 1 1-3 1 5-7 3-2 6-7-1-7-5-7-2-8-4-4-7 6 2 2-2 2-9-3 4-7-2-1-2 3-8 2 1 6-3z" fill="#D2D2FE"/>
<path transform="translate(1365,516)" d="m0 0h12l8 4 2 6v16l-2 10h-2l-2 6-4-1-13-9-1-3-10-6-6-3-3-4 6-7 13-8z" fill="#F8F9FD"/>
<path transform="translate(783,304)" d="m0 0h7l5 5v2h11l8-2h6l10 6 10 4 5-1-4-7 2-2 6 1 3 3 13 3 3 3 2 6 8 3 7 7 1 5 4-1 1-3h4l1 2v7l-2 2-4-4-7-3-4-2-4 1 1 5 3 3h8l7 1 7 13 5 7-1 2-4-4-7-4-11-4-5-4-4-2-9-11v-14l-2-2h-6l-2 1h-7l-9-4-10-3-22-5-12-1-5-5v-2h-9z" fill="#CDE2FE"/>
<path transform="translate(1066,390)" d="m0 0m-23 1h23v2l-4 3-3 8-5 8-2 7-1 4-6 1-10-9-9-3-8-4-6-2 3-10 14-3z" fill="#E6ECFD"/>
<path transform="translate(562,1175)" d="m0 0 4 2 7 4h9l14 1 12-1 11-3-6 7-12 11-9 9-8 7-7 8h-3l2-4-4-10v-4h-2l-1-6-3-4-2-3z" fill="#E4E8FD"/>
<path transform="translate(248,1202)" d="m0 0h4l1 3v8l2 5v9l2 2-1 3-4-1-4 4-9 1v2h-3l1 4 3 3 3 5 5 3 1 3 5 1 3 1h3l1 4-13-2-12-6-10-8-5-5 3-9 8-15 7-6h2l1-3h2l2-4z" fill="#E5ECFD"/>
<path transform="translate(499,580)" d="m0 0 8 1 2 4-3 4v2l9 5 3 5 1 9-4 5-5-1 1-6-6-1-5 8-4 4h-7l-4-5-2-5 2-11h-2l-5-5 1-4 4-4z" fill="#D8ECFE"/>
<path transform="translate(656,1155)" d="m0 0h3l1 3v10l-2 21-3 3-6-2-2 5-1 1-15 2-4 4-3-1-2-11-2-1 27-27z" fill="#B7CAFD"/>
<path transform="translate(212,948)" d="m0 0 4 1 3 4 5-2 2 1 4 11 2 8 1 8-1 14-2 3-7-1-7-5-1-2-5-3-3-5-1-7v-16l4-8z" fill="#E5ECFD"/>
<path transform="translate(1273,820)" d="m0 0h3l-2 4-22 6-7 1-9 2 1 4 8 4 5 10h-3l-12-5 2-2-12-5-18-6-38-4 3-2h7l4-1h14l12-3 24-2h8l2 1h25z" fill="#E8E5FD"/>
<path transform="translate(742,300)" d="m0 0 4 1 10 6 1 2 10 5 6 5 7 8v2l4 2 1 5 3 6 6 11 1 7 5 3 2 5 2 4 2 3 3 3v6l3 1v2h3l1 3v4l-5-1v-2h-2v-2l-3-1-2-4-3-5v-2h-2l-6-8-6-10-3-6v-3l-2-1-1-4h-2l-5-9v-3h-2v-3l-5-2-6-5-7-3-7-6-2-5-4-4-1-3z" fill="#DFC9E7"/>
<path transform="translate(619,1190)" d="m0 0h3l3 11 2 1 1-3 3-2 15-2 3-5h5l3 1-1 14-2 10-2 2v-6h-10l-15 3-23 1-4 3h-2l2-6 7-9z" fill="#E5EBFD"/>
<path transform="translate(1097,1024)" d="m0 0 10 2 10 3 4 1 2-1h6l6 7 5 2v2l7 1 2-3 4 2v12 2 3l-7 6-5-1-11-12-4-3-7-2-10-1-1-3h-2l-1-5-4-8z" fill="#D1D1FE"/>
<path transform="translate(1303,1009)" d="m0 0 4 1 3 8 2 7v7l1 6v8l-2 7-2 5-3 1-1 3h-2l-1 3-14 14-3-1-2-4-2-3-8-1 1-3h7l6-3v-7l-2-4 1-4 8-3 8-2 3-9 1-6-6-12-1-5z" fill="#B8CAFD"/>
<path transform="translate(592,272)" d="m0 0h5l-5 5-2-1-1 4-9 6-8 2-10 7-10 5-14 8h-3v2l-12 6-3 1v2l-10 4-5 1-4 3h-2l-1 5-11 9-3 5-9 3-5 5-4 3-3-1 4-3h2l2-4 11-8 5-4 4-5 7-6 5-5 11-7 7-6h4v-2l7-3h2l1-2 4-2h3l1-2 2 1 1-5 8-2 1-3 6-2 5-5 7-3 1-2z" fill="#DAEDFE"/>
<path transform="translate(1330,821)" d="m0 0 6 3 3 2v2l6-2 1-2h2v2h2l-1 5-2 1-10 1-3 2 6 2h7l1 4v2l5 2v-6l2-3 4 2-1 8-1 1-12 1h-3l-9 2-7 2-3 1-1-3 2-6-1-3-5 2-2-5h-10l-2-7v-5l5-2 6 5-1 2-3 2h5l1-3h2l2-5 5-3z" fill="#FAFCFE"/>
<path transform="translate(346,697)" d="m0 0h5l-1 2h-2v2l-9 6-1-1-2 3h-2l-1 4-8 9-7 12-3 16v15l2 8 2 6 5 2-2 4-6 8-2 2 1-7-4-13-3-5-3-6v-19l6-18 6-10 10-9 9-5z" fill="#D9ECFE"/>
<path transform="translate(838,1162)" d="m0 0 3 2v2l-4 1 2 4h7 3l8 15 5 7-4 2-2 5 5-2 2-4v2l4 2 7 8 1 3 6 5-1 4-8-4-2 1-6-2h-3l-1 2-9-10-12-17-4-4 1-20h2zm9 32 1 4h3l-1-4z" fill="#DFC7E5"/>
<path transform="translate(1203,1097)" d="m0 0h7l5 2v14l-2 6h-2v2h-2l-2 6-7 1-17-2-4-5-1-4 1-2h3v-2l9-7 9-8z" fill="#E8E4FC"/>
<path transform="translate(211,1050)" d="m0 0 5 1 2 2v9l-6 8-3 5-4 4-7 10-4 1-6-12-3-10 1-8 7-3 13-5z" fill="#E6EDFE"/>
<path transform="translate(1171,1033)" d="m0 0 6 1 2 13h2v5l-2 2-2 5-6 5-9 12-6-1h-8l1-4 11-14v-4l-5 1-2 1-2-2 1-5v-8l-1-2 5 2 6 2 3-3 3-5z" fill="#B7CBFD"/>
<path transform="translate(563,1181)" d="m0 0h1l2 10 3 3 2 6-1 2h2l5 14-2 4-8 10-9 11-5 10-2 8v18l-2-2-1-16v-17l6-13 5-10 1-5 1-24z" fill="#F7F8FD"/>
<path transform="translate(1108,844)" d="m0 0 28 2 23 1 18 3 4 2-2 3-14-1v7l-2 1-9-3-5-4-9 1-2 1h-14l-2-1-11 1-3 4-7-1-1-5 2-4 4 1 2-5z" fill="#D9C8FD"/>
<path transform="translate(738,896)" d="m0 0 17 1 11 3 12 2 1 4 4-1-1 8 12 5 18 14 3 5 4 1 2-2v8l-4-1-9-9-9-6-4-2-3 1-2-3h-5v-2h-2l-1 3h-5l-1-2h4l-1-4v-3l-5 4-1 4-3 1-2-1-1 3-3-2 8-10 1-3h-7l-12-6-5-5h-3l-6 3-4-2 1-5z" fill="#D7D9FE"/>
<path transform="translate(1190,1051)" d="m0 0 2 1-2 5-1 5 2 1v10h3v6l-1 3 2 1-1 7-4 6h-2l-2 4-6 7-3-1-3-10-4-6 1-7 2-7 3 1 2-8 10-15z" fill="#E8E4FD"/>
<path transform="translate(882,984)" d="m0 0 5 1v3h2v-3l4 1 1 6-1-3-3 1-2 4 2 2 5 1 1-2 2 11 3 10 6 9 4 9 4 5-2 1-1 2-1-4h-7l-1 2-1-2-9-3-1-2h6v-3l-5 2h-3l-2-6-2-4-1-4 7-4 4-2-5-2v2l-4 2-5-8v-4l-1-17z" fill="#DEC6E4"/>
<path transform="translate(836,867)" d="m0 0h10l12 3 9 1-1 4-7 9-4-2-1-3-4-3v-2h-3l2 1v2l-4 2-1-2 1-2-15 1-4 4-2 12-1 11-4-2v2l-10-1-9 1h-7l-6-2 2-1 10-1 4-1v-3l4-1 4-5 6-3 1-2-3-1 2-2-1-2 8-1 1-6h2v-3z" fill="#D1D1FE"/>
<path transform="translate(759,1322)" d="m0 0v3h-2l-2 7-12 6-12 3-5 1-14 1h-24l-9-3 3-3 8-3 15-2 2-1h27l14-4 5-3z" fill="#DAC8FD"/>
<path transform="translate(1096,819)" d="m0 0 9 2 8 3 13 2-6-3v-3l10-1 10 5 5 1v1l-14 2-9 3-5 3-14 3-2-1h-11l-2 2-2 1-16-6-5-4h2v-3l4-2h5v3l3 1-1-5 1-2 2 1 1 7-3 4 5-5 1-2h14l2-3-2-1v3h-3v-2l-3-1z" fill="#D8DAFF"/>
<path transform="translate(472,382)" d="m0 0 4 1 1 11v14l-5 17-4 12-1 11-3 7-1-3h-2l-1-13v-20l3-9 2-7 1-10 3-8h2z" fill="#DFC7E5"/>
<path transform="translate(709,1107)" d="m0 0 2 4 12 6 5 1 1-2h3v2h2l-1 5-6-1-4-2-13-3-1 21 9-1 5 10-3 10-2 6-5 1h-6l-3 25-1 16-1 11v13l1 4 3 2 9-1 9-6-2 4-8 5h-10l-3-3-1-3v-20l4-46z" fill="#D9DBFE"/>
<path transform="translate(684,270)" d="m0 0 9 2 8 3 26 7 16 4 6 4 13 5 7 1v2l5 2 2 1 13 1 5 3 6 5 10-2 4-1h29l2-2h5l4 6 8 3v1l-10-1-5-4-5 1 4 7-2 2-7-1-7-3-10-6-10 1-4 1h-8l-3-1-3-5-2-1h-13l-17-7-19-8-16-5-13-3-6-3-9 1v2l-3-1-1-5h-3l-7-2z" fill="#D9EDFE"/>
<path transform="translate(1135,512)" d="m0 0 2 1-2 4 1 1h9l1 3-3 6-2 11-2 1v6l3 1 2 3 5 3 1 6-4-2-7-7-2-1v-2l-4-2-5-4-10 5-7 3 1-6 12-19z" fill="#E8E4FD"/>
<path transform="translate(370,768)" d="m0 0h20l11 4 13 7 2 3-1 5h-2v2l-5 1 1 5-10-4-1-6-14-4-9-3-4-2-6-2-2-3-3-2z" fill="#CCE1FE"/>
<path transform="translate(454,363)" d="m0 0h1l-1 7-3 4-5 13-3 1v5l-3 2v3l-3 4-5 14h2l-1 4h4l2-5 4 1-1 5-2 1v3l-6 5-1 2-4-1v-6l-3 8-1 12 3 2 1 4h-2l-2 2-3-4v-2h-2v-5l-1-2 5-10 3-8 8-28-3 1-5-3-1 2 1-4 13-13 5-6 8-7z" fill="#E7EEFE"/>
<path transform="translate(1321,1170)" d="m0 0h1l-1 17-3 31-3 1h-8l-9-4-2-4-12-1-1-2v-8h11v3h5l1-5 7-3 7 1 4 1z" fill="#BBCCFD"/>
<path transform="translate(804 1e3)" d="m0 0 3 1v4h3v3h2v-3h2l-1 19-1 7h-3v2l-3-1 1-2 3-1-5-2-2 4-5-1v5l4-2 3 2v2h-2v14l-4 3v5l-7 8h-2l2-4 1-27-1-3h2l1-7h2l1-6v-2l2-2z" fill="#DEC5E3"/>
<path transform="translate(904,887)" d="m0 0 5 1 3 2 6 1h19l7-1 15 1 9 2h10l8-4 6 1 2 5 10-2 3 3v1h-11l-15-2-10 2-8 3-10 2-16-1-3-1-13-1 1-3h-3v-2h-9l-6-4z" fill="#D2D1FE"/>
<path transform="translate(1092,851)" d="m0 0h9l1 3-1 5-19 3-11 6-5 3-18 8-1 1h-6l-1 3-3 1-1-6 3-5 4-1 1-5 3-4 3-1 20-1 5 1 5-3h2l1-5 3-2z" fill="#D9DBFF"/>
<path transform="translate(330,1240)" d="m0 0h3l3 3 2 1 12 1 5 3 2-1v3h-2v2l8-1 9-4 8-3 9-4 3 1-16 8-20 7-13 1-15-2h-17l-2 1 1-6h2l2-6 2-1v2l11-3h3z" fill="#E7EDFE"/>
<path transform="translate(901,1226)" d="m0 0 6 2 21 9 5 4 19 8 10 6v2l-5 1-9-4-11-3v-2l-8 2-9-4-12-5-3-4v-2l-7-2h-3z" fill="#DFC7E5"/>
<path transform="translate(1088,482)" d="m0 0h1l1 10-1 6 1 3 4 2-5 1v2l-2 1-4 9 1 4 5-3 5 1v2h4l2 3-1 4-3 4-5-1-1-3-9-2 2 12 3 3 4 1 2 6-11-3-7-1-4-5 2-11 5-8 7-12-1-6 2-10 2-2z" fill="#D1D1FE"/>
<path transform="translate(1346,539)" d="m0 0 5 1 12 7 7 4 8 6h3l2-5 1 4-2 7 3 1v2l2 1 1 4 5 5 2 5h-2l1 5-4-4-7-8-9-6-10-3-4-4-3-8-4-3v-2l-5-2-2-3z" fill="#E8E5FD"/>
<path transform="translate(415,778)" d="m0 0 1 2 3 1 5 5 5 2 2 3 9 3 7 3 1 3h-2l3 5 4 4 6 12 7 4 3 1-3 2-10-6-9-15-6-6h-6l-2 6-9-3-15-8-1-6 5-1v-2l2-1-1-7z" fill="#D9ECFE"/>
<path transform="translate(1377,1072)" d="m0 0h2v2h2v2h2v2h2l-1-3 1-1h5v10l2 11-3 1-1 4v6l-4 4-1 4-3 9-1 1-1 7-2 5h-1l1-29 1-11z" fill="#E6E1FB"/>
<path transform="translate(1397,1033)" d="m0 0 2 1 4 13-1 7-7 7h-9l-5-4-3-9 1-6 4-4 10-1z" fill="#D9EDFE"/>
<path transform="translate(907,1248)" d="m0 0 9 2v2l4 2v2l5 2 9 1 6 5h6l3 3 14 5 12 2h11l3 1v2l-9 1h-21l-20-5-12-6-10-9-10-8z" fill="#FBFDFE"/>
<path transform="translate(1264,1063)" d="m0 0h1v11l6-5 10 1 5 7 1 3-17 17-6 1z" fill="#D1D1FE"/>
<path transform="translate(1294,448)" d="m0 0 5 2 4 5-1 4-2 5h4l1-5 6 2 6 4 2 4-1 2-9 5-7 6-5-1-3-4-1-5v-9l6-5v-4h-5l-2-2v-3z" fill="#F9FBFD"/>
<path transform="translate(777,336)" d="m0 0h6l1 3 3 1 6 10 2 10 5 3 2 5 2 4 2 3 3 3v6l3 1v2h3l1 3v4l-5-1v-2h-2v-2l-3-1-2-4-3-5v-2h-2l-6-8-6-10-3-6v-3l-2-1-1-4h-2l-3-6h2z" fill="#DEC9EA"/>
<path transform="translate(1298,1084)" d="m0 0h17l5 3 5 6 2 5v16l-2 29h-1v-20l-4-9-8-17-6-8-4-3z" fill="#D9C8FC"/>
<path transform="translate(1303,1009)" d="m0 0 4 1 3 8 2 7v7l1 6v8l-2 7-2 5h-1l1-7 1-5-3-1-6 4-10 2-2 2 1 5 1 4-3 5-7 1 4-3 2-1v-7l-2-4 1-4 8-3 8-2 3-9 1-6-6-12-1-5z" fill="#CEE2FE"/>
<path transform="translate(1160,910)" d="m0 0 7 1 6 7 1 5-3 6-5 4h-8l-6-5v-11l4-5z" fill="#B7CBFE"/>
<path transform="translate(1180,862)" d="m0 0h8l5 2v2l5 2v2h-2v8h6l5 2 4 1 1 3-2 5-5 1-12-2-2-2-2 1v-7l-1-7h-2l-1 2-4-5z" fill="#E8E5FD"/>
<path transform="translate(1391,913)" d="m0 0 5 2 2 2 1 6-3 5-6 2-1 9-2 3h-7l-5-3-1-4 2-6 5-3h2l2-9 3-3z" fill="#D9EDFE"/>
<path transform="translate(875,1156)" d="m0 0 9 1 5 4 1 8-4 7-4 2h-7l-5-5-2-7 3-7z" fill="#B7CBFE"/>
<path transform="translate(1321,730)" d="m0 0h10l5 4 1 3v7l-5 6-9 1-7-6-1-4 2-6z" fill="#B7CBFE"/>
<path transform="translate(1210,963)" d="m0 0h2l1 2v15l1 1v7l-11 27-6 14-3 1-2-6-5 5-2-1 4-6-2-2h2l2-5 5-3 4-4 6-14 3-14 1-10-1-4z" fill="#B7CBFE"/>
<path transform="translate(1180,852)" d="m0 0 10 1 10 4 10 3 10 5-2 5 15 10 2 3-4-1-10-6-7-3-5-4-7-3-5-4-7-3v-2h-8l-8-2v2l-6 3h-4v-6l3-1 12 1z" fill="#D2D2FF"/>
<path transform="translate(787,1175)" d="m0 0h2l1 5v25l-2 24h-2l-1 3-4-4-1-5v-7l-1-4 2-6 2-13 2-4v-8z" fill="#F4F4FD"/>
<path transform="translate(479,762)" d="m0 0 7 1 7 2 13 2 17 4 1 5-2-3h-3l-1 3-9 1 2-1v-3l-3 3-9 1h-16l-2-3h4v-4h-3l-3-6z" fill="#CEE3FE"/>
<path transform="translate(1369,791)" d="m0 0 7 2 4 3 7 2-1 5-7 6-5-1-5 2-4 6h-2l-2-5-3 1-6-3 1-3 10-1 4-3v-10z" fill="#E8E5FD"/>
<path transform="translate(418,711)" d="m0 0h2v2l5 1 3 2 2 3h-5l3 9 6 7 5 5 6 12 6 7 13 8 12 5h4l1-5 1 3h3v4l2 1h-5l-2 1-22-8-11-6-9-11-3-3 1-3-2-6-9-9-2-7h-2l-4-7z" fill="#E6EDFE"/>
<path transform="translate(862,1194)" d="m0 0 1 2 4 2 7 8 1 3 6 5-1 4-8-4-2 1-6-2h-3l-1 2-9-10-2-5 5-2 1-3h2l-1 5 5-2z" fill="#E0C8E4"/>
<path transform="translate(1137,302)" d="m0 0h10l3 3 1 3v8l-4 5-2 1h-8l-5-5-1-7 2-5z" fill="#CFE3FE"/>
<path transform="translate(642,1334)" d="m0 0 4 2 4 6v9h-2v2l-3 3h-6l-2-1h-5l-2-8 1-6 7-6z" fill="#D3D2FE"/>
<path transform="translate(461,357)" d="m0 0 2 1-6 7-3 9-4 10-3 8 5 5 2 5 2 17 1 3 1 22-3-4-4-29-2-5h-8l1-10 3-9 5-13 4-6 2-7z" fill="#CEE3FE"/>
<path transform="translate(1030,985)" d="m0 0 6 1 4 4 1 2v8l-4 5-2 1h-9l-5-5v-5l2-1 2-6v-2z" fill="#B7CBFE"/>
<path transform="translate(1195,738)" d="m0 0h7l-2 5-3 4h-2l-1 4-8 8h-2v2l-6 1 1-3 2-2-1-2 1-3-9 4-3 3-1-4 6-5 2-11 1 2 4 1 1 1v5l4-2 1-1-3-2 1-2 2 1 8-1z" fill="#D2D2FE"/>
<path transform="translate(868,218)" d="m0 0h7l5 4 1 6-2 7-7 3-6-1-5-5v-11z" fill="#CFE4FE"/>
<path transform="translate(738,896)" d="m0 0 17 1 11 3 12 2-2 5-5 5-7-1-10-5-5-5h-3l-6 3-4-2 1-5z" fill="#E5ECFE"/>
<path transform="translate(344,650)" d="m0 0h7l5 5v9l-7 6h-6l-5-3-1-2v-9l5-5z" fill="#BBCFFE"/>
<path transform="translate(568,288)" d="m0 0 3 1-9 6-10 5-14 8h-3v2l-12 6-3 1v2l-10 4-5 1-4 3h-2l-1 5-11 9-3 5-9 3-5 5-4 3-3-1 4-3h2l2-4 11-8 5-4 4-5 7-6 5-5 15-5 1-2 12-6 7-4 6-2 14-8h2l1-3h3z" fill="#CEE3FF"/>
<path transform="translate(1448,1242)" d="m0 0 5 1 5 3 1 2v9l-4 4-2 1h-6l-6-4-1-2v-9l5-4z" fill="#CFE3FE"/>
<path transform="translate(1095,179)" d="m0 0h9l5 5 1 7-5 5-5 2-5-1-4-4-2-5 1-6z" fill="#D0E5FE"/>
<path transform="translate(907,1037)" d="m0 0 5 1v4h2l3 6 5 5 1 4-7 6-1 2h-2v-5l-7-8-4-4-4-8h4l1-2z" fill="#E0C7E4"/>
<path transform="translate(882,984)" d="m0 0 5 1v3h2v-3l4 1 1 6-1-3-3 1-2 4 2 2 5 1 1-2 2 11 1 5h-3l-5-1v2l-4 2-5-8v-4l-1-17z" fill="#DDC5E2"/>
<path transform="translate(1267,473)" d="m0 0 9 2 3 5v7l-5 5h-9l-5-4-1-5 2-6 3-3z" fill="#B7CBFE"/>
<path transform="translate(1250,885)" d="m0 0 4 2v3h2l2 6h2l4 11 3 9 2 11 2 23 1 10-2 1-2-8-2-10-3-26-4-10v-2h-5l-1-4 2-1-1-5-4-4-1 2-2-1 2-6z" fill="#B8CBFE"/>
<path transform="translate(587,396)" d="m0 0h1l1 23 2 6-1 2 4-2-2-4 3-2 7-2 2-2v-3l6-1h3v-2l4-3 2 1v3l2 2-14 10h-5-2l-3 8-7 3-3 1-1 5h-1v-10l1-4z" fill="#D7C8FD"/>
<path transform="translate(960,1094)" d="m0 0 5 2 11 7 9 7 6 3 7 2 6 5-2 1h-4l-1-4-4-1-2 4v-2l-6 1-2-1v-5l-5 2v-2l-5-2-6-4-1-3-6-1-1-1z" fill="#DFC7E3"/>
<path transform="translate(1066,1200)" d="m0 0 5 1 6 4v3h2l-1 6-1 3-5 3h-6l-4-2-3-7 3-9z" fill="#B7CBFE"/>
<path transform="translate(1349,963)" d="m0 0h6l5 5 1 7-3 5-7 3-6-3-2-4v-7l4-5z" fill="#B7CBFE"/>
<path transform="translate(1265,438)" d="m0 0 6 2 3 3 1 9-3 5-6 1-7-3-2-4 1-8 3-4z" fill="#D9C8FD"/>
<path transform="translate(504,779)" d="m0 0 11 1 9 3 4 4-2 5-3 10-11 11-2-1 5-5 5-8-2-4-5-4-5-2v-2l2-1-1-4-5-2z" fill="#CEE3FF"/>
<path transform="translate(507,1376)" d="m0 0h7l4 2 2 4v6l-5 5-6 1-5-3-2-4 1-7z" fill="#D9ECFE"/>
<path transform="translate(804 1e3)" d="m0 0 3 1v4h3v3h2v-3h2l-1 13-1 4-5-1 2 3h-5l-1 4-4-1-1-9 2-2z" fill="#DFC7E6"/>
<path transform="translate(1128,539)" d="m0 0 7 6 2 1v2l4 2 2 3-5 2-4-3v-2l-5-2h-7l-3 3-3 6-3 1-5-2-1-2 3-8 2 1 6-3z" fill="#D8DAFE"/>
<path transform="translate(213,881)" d="m0 0 3 4 1 4-1 5-3 1-2 6-2 2v-3h-2v2h-11l-3-3 10-8 3-5z" fill="#D0E3FE"/>
<path transform="translate(705,1353)" d="m0 0 6 1 4 4v7l-1 3-6 2-7-1-3-3-1-7 5-5z" fill="#E7E2FD"/>
<path transform="translate(864,1212)" d="m0 0 7 2 2-1 5 4 7-1 5 3h2l-1 4-5 8-12-5-4-4-6-3-3-4 6 2 3 2h5l-12-5z" fill="#E4D1EB"/>
<path transform="translate(1542,782)" d="m0 0 7 1 5 4v8l-4 4-6 1-4-2-3-5 1-7z" fill="#BED2FE"/>
<path transform="translate(787,902)" d="m0 0h15l1 2-9 2 1 9h2v2h2l4 5 5 5v2l-3-1v-2l-5-2-6-5-6-3-6-2-1-1 1-7 3-3z" fill="#E5ECFE"/>
<path transform="translate(439,415)" d="m0 0 4 1-1 5-2 1v3l-6 5-1 2-4-1v-6l-3 8-1 12 3 2 1 4h-2l-2 2-3-4v-2h-2v-5l-1-2 5-10 3-8 3-3 1-3h3l-1 4h4z" fill="#E5EDFE"/>
<path transform="translate(704,1205)" d="m0 0 5 1v12l2 9 4 4-1 2-8 1-4-1-1-4v-13z" fill="#F9FBFD"/>
<path transform="translate(1109,495)" d="m0 0 8 1-1 9-11 9-5-1-3-5 2-5 1-4 2 2z" fill="#D0D1FE"/>
<path transform="translate(567,1181)" d="m0 0 4 2 9 2 3 4 9 3 1 1v6h-2v-3l-9-2-4-1-3 2v2l7-1 2 2-5 2-2 6-3 1-5-20z" fill="#E8E5FD"/>
<path transform="translate(555,308)" d="m0 0 3 1-8 8-3 2-7 2-6 2-1 3-7 2h-2v2l-7 1-5-1 5-5 10-4 16-7 9-4z" fill="#E0C7E3"/>
<path transform="translate(1396,1074)" d="m0 0 2 2-2 13-5 17-8 20-6 8v-3l1-7 2-4 3-9 3-5h2l-1-8 3-3h1l1-9z" fill="#FAFCFD"/>
<path transform="translate(1111,1039)" d="m0 0 9 2v2l11 1 5 3 6 8 4 1 3-2 5 1-5 6-3 2-5-1-11-12-4-3-7-2-10-1v-4z" fill="#D9D9FE"/>
<path transform="translate(347,756)" d="m0 0 3 1 2 6 3 3 3 1h7l9-3h11l7 3 5 1 18 9v2l-6-2-15-7-4-1h-35l-11-1 1-7v-3z" fill="#D9EDFE"/>
<path transform="translate(1200,890)" d="m0 0 7 1 4 6-1 7-2 1h-10l-5-6 1-5z" fill="#BACCFE"/>
<path transform="translate(1361,518)" d="m0 0 2 1-2 2 2 8h2l3 4 2-4h3l1 9 2 2v3l-5-1-4-4-10-5-4-5v-2l-5 2 5-5z" fill="#E4EAFD"/>
<path transform="translate(518,617)" d="m0 0 4 2 2 2-1 22-1 11h-1l-1-5h-2l-1-4-1-9h3l-2-10h-4l-3 2-2-1 1-4 6-3z" fill="#B9CAFD"/>
<path transform="translate(1218,868)" d="m0 0 6 1 8 2 12 7 4 2-2 2 1 5-6-1-2-2-5-2-11-8-6-4z" fill="#D9DBFE"/>
<path transform="translate(802,980)" d="m0 0 4 1 3 7h4v6l-4 2v-4h-2l-2 6-1 7-3 15-3 1 1 6-2 2-1-4 1-10 1-2v-5l3-4v-10l3-5v-2l-2-1 2-1v-3z" fill="#D8D5FE"/>
<path transform="translate(805,1030)" d="m0 0 6 1-1 2-3 2 3 2v6l-3 1 3 3-1 7-9 7h-2l1-5 4-2v-14h2v-2l-6-1-1 2-1-4 1-2h5z" fill="#F7F7FD"/>
<path transform="translate(959,1009)" d="m0 0 4 2 3 3v7l-1 2-7 1-2 1-5-2-1-2 1-9z" fill="#B7CBFE"/>
<path transform="translate(1437,876)" d="m0 0 6 2 2 9-3 5-5 2-6-1-1-5 4-9-2-1z" fill="#D9EDFE"/>
<path transform="translate(1213,592)" d="m0 0h2l-2 13 1 9-4 6-9 6-2 1 1-6 9-19z" fill="#DAE8FD"/>
<path transform="translate(928,311)" d="m0 0h6l5 4 1 6-5 5h-7l-4-5 1-7z" fill="#CEE3FE"/>
<path transform="translate(684,270)" d="m0 0 9 2 8 3 26 7 16 4v2l-15-2-12-3-7-2-3-2-9 1v2l-3-1-1-5h-3l-7-2z" fill="#EDEDFC"/>
<path transform="translate(423,397)" d="m0 0 2 1-1 2v6l1 3-1 2h-2l-1 4-5 1h-5v3l-5 1 1-5 8-11 3-4 5-1z" fill="#E6EDFE"/>
<path transform="translate(1169,829)" d="m0 0 20 1 18 2 26 9 6 3-4 1-17-6-9-3h-18l-1-3-18-1z" fill="#D7CEFD"/>
<path transform="translate(1358,470)" d="m0 0h6l4 5v7l-4 4h-7l-4-4 1-2 4 1v-3l-4-2 1-5z" fill="#D8ECFE"/>
<path transform="translate(706,1141)" d="m0 0h1v19l1 4-2 6-1 14-1 9-2 23v13l1 4 3 2 9-1 9-6-2 4-8 5h-10l-3-3-1-3v-20l4-46z" fill="#D4CAFC"/>
<path transform="translate(1103,900)" d="m0 0h8l3 4v8l-2 1h-10l-4-5 2-6z" fill="#B7CBFE"/>
<path transform="translate(233,929)" d="m0 0 5 1 1 1v7l-2-2-1 3 1 4h-14l-2-4 5-6h2v-2z" fill="#CEE3FF"/>
<path transform="translate(434,797)" d="m0 0 9 1 6 7 4 4 6 12 7 4 3 1-3 2-10-6-9-15-6-6h-6l-2 6-9-3-2-2 7-2z" fill="#CDE2FE"/>
<path transform="translate(1221,703)" d="m0 0 2 3v13l7 1-3 3-8 1-3 6-2-1-2-7 7-14z" fill="#E6ECFD"/>
<path transform="translate(1180,852)" d="m0 0 10 1 10 4 10 3 1 3 2 1-9-2-14-4-16-3v2l-6 3h-4v-6l3-1 12 1z" fill="#D4CFFE"/>
<path transform="translate(1264,1110)" d="m0 0 4 5 3 4v8l-5 5-3 1-2 2v-16z" fill="#BECBFD"/>
<path transform="translate(1107,514)" d="m0 0 2 1-1 6h-2v4l2-1-2 5-9 15h-2l-1-3v-7l6-5 2-9v-4z" fill="#E4EAFD"/>
<path transform="translate(1303,1009)" d="m0 0 4 1 3 8 2 7-1 7-4-1-7-14-1-5z" fill="#B7CBFE"/>
<path transform="translate(1529,473)" d="m0 0 5 3 1 2v7l-3 2h-6l-5-4v-7l3-2z" fill="#D4E6FE"/>
<path transform="translate(354,699)" d="m0 0h4l-1 6-4 4h-2l-1 3-7 6-6 1-1 3-2-4 6-8 1 2 1 3 2-2-1-3 3-4h2l1-3z" fill="#F9FBFE"/>
<path transform="translate(1276,435)" d="m0 0h9l11 7 2 4h-9l1-3-5 1v5h-2l-2 2-1-8-3-3-2-4z" fill="#FAFCFE"/>
<path transform="translate(206,1195)" d="m0 0h1l1 7 6 7 2 1 1-3 4 2v8l-4 7-4-5-7-14z" fill="#F8FAFD"/>
<path transform="translate(1327,1033)" d="m0 0h9l2 7 13 2v1l-18 1-9 2 1-10z" fill="#D1E6FE"/>
<path transform="translate(321,765)" d="m0 0 9 3v2h2l-2 4-1 3h-2l-2 4-3 1-5-4 1-2h1v-10z" fill="#FAFCFE"/>
<path transform="translate(1130,558)" d="m0 0h2v3l5 2v3l-4 1 4 2-5 2h-8l-3-3v-2l-2-1 4-1 1-4z" fill="#B7CBFE"/>
<path transform="translate(630,1316)" d="m0 0 9 1 2 1-1 6-3 4h-7l-5-5 1-5z" fill="#DAC8FD"/>
<path transform="translate(1569,546)" d="m0 0 7 1 2 3v7l-3 3-6-1-4-5 1-6z" fill="#F8FBFE"/>
<path transform="translate(505,320)" d="m0 0 2 1-5 5-3 1-1 5-11 9-3 5-9 3-5 5-4 3-3-1 4-3h2l2-4 11-8 5-4 4-5 7-6 5-5z" fill="#E1EAFE"/>
<path transform="translate(761,1128)" d="m0 0 9 3 7 4 6 2 6 4 1 4h3l-1 4-5-2-5-5-12-5-7-4z" fill="#E6EDFE"/>
<path transform="translate(813,893)" d="m0 0 7 1h1v7h-2v2l-10-1-9 1h-7l-6-2 2-1 10-1 10-2z" fill="#D8DAFF"/>
<path transform="translate(441,751)" d="m0 0h2v2l4 1 4 5 13 8 12 5h4l1-5 1 3h3v4l2 1h-5l-2 1-22-8-11-6-3-6-3-3z" fill="#DCEDFE"/>
<path transform="translate(372,1227)" d="m0 0 5 1v3l2 1-6 6h-13l-1-3h2l2-5z" fill="#DADDFE"/>
<path transform="translate(337,1244)" d="m0 0 13 1 5 3 2-1v3h-2v2h2v2l-7 1-6-2-8-4z" fill="#D9DBFF"/>
<path transform="translate(1283,1200)" d="m0 0h11v3h4v7l1 5-3-4-12-1-1-2z" fill="#DBDDFE"/>
<path transform="translate(1109,324)" d="m0 0h5l-1 5-2 5-1 4-5 3-1-5-4-2v-4l5-4z" fill="#FBFDFE"/>
<path transform="translate(1137,302)" d="m0 0h10l3 3 1 3v8l-2 2-1-11-1-2-3 1 3 3-1 5-4 1-2 3-4-1 1-8h2v-5z" fill="#D6EAFE"/>
<path transform="translate(1448,1242)" d="m0 0 5 1 5 3 1 5h-3v-2h-2v-3l-9 1-3 2 2 3v5l6 2 5-1 4-4-1 5-5 3h-6l-6-4-1-2v-9l5-4z" fill="#E7F0FE"/>
<path transform="translate(1262,1052)" d="m0 0 5 1 3 3v7l5 1v2l2 1-8 4-2 3h-2l-1-11z" fill="#E4EBFD"/>
<path transform="translate(665,268)" d="m0 0 19 2-1 4 4 1v3l-8-2-2 2-7-1-2-4-5-3z" fill="#D8CAF5"/>
<path transform="translate(502,673)" d="m0 0 14 2 3 1v14l-4-5-6-3-2-5-7 1-1-2z" fill="#CEE3FE"/>
<path transform="translate(1078,950)" d="m0 0h4v2h3l-1 8-2 2-7 1-4-6 1-5z" fill="#D5D8FE"/>
<path transform="translate(1124,466)" d="m0 0h2l2 13h4l-1 5h-3v2l-5 1-2-2-1-10z" fill="#D9DBFF"/>
<path transform="translate(1486,547)" d="m0 0h5l3 4v6l-8 4-4-1-1-6 2-5z" fill="#DBEDFE"/>
<path transform="translate(800,370)" d="m0 0 4 2 2 3 3 3v6l3 1v2h3l1 3v4l-5-1v-2h-2v-2l-3-1-2-4-4-7z" fill="#DED7F7"/>
<path transform="translate(795,1029)" d="m0 0 2 1-1 6v19l4-2 1-4h2v5l-4 3v5l-7 8h-2l2-4 1-27-1-3h2z" fill="#DBC9F6"/>
<path transform="translate(1320,1029)" d="m0 0h3l1 6 2 1-1 9-4 4h-4l-1-3 1-10h1z" fill="#F9FBFD"/>
<path transform="translate(960,1094)" d="m0 0 5 2 9 6 2 4-4 3-4-1-2-4-6-1-1-1z" fill="#DFC8E7"/>
<path transform="translate(717,1249)" d="m0 0h3l-1 7-7 9-3-2-7 7-4 1 6-8z" fill="#E6EAFD"/>
<path transform="translate(817,973)" d="m0 0 2 4v6l-4 1-1 2h2l1 4 2-1-1 7-1-2-4-1v-5l-5 1v-6l4-5h2l1-4z" fill="#D5C4F7"/>
<path transform="translate(1277,661)" d="m0 0h1l-1 28h-3l-2-7v-13l3-6z" fill="#F9FBFD"/>
<path transform="translate(1245,880)" d="m0 0 5 2 2 3-2 1-3 6 5-1 4 6-1 4-3-1-4-6-11-7-3-3 5-1 4 3 4 1z" fill="#D3D4FE"/>
<path transform="translate(1199,1156)" d="m0 0h2l-1 4h3v6l-4 5h-7l-2-1 2-7 4-3z" fill="#E9E5FD"/>
<path transform="translate(709,1107)" d="m0 0 2 4 12 6 5 1 1-2h3v2h2l-1 5-6-1-4-2-13-3-1 14h-1v-12z" fill="#D6D7FE"/>
<path transform="translate(481,564)" d="m0 0h6l5 4 1 4-10 6h-2l-1-3v-9z" fill="#D9EDFE"/>
<path transform="translate(1059,918)" d="m0 0 9 1v7l-2 4h-7l-2-1v-9z" fill="#B7CBFE"/>
<path transform="translate(465,479)" d="m0 0 2 1 2 13v16l-4 37h-1v-17l2-12v-23l-1-2z" fill="#DFE9FE"/>
<path transform="translate(1286,994)" d="m0 0 4 1 2 9-2 4-7-2-3-4v-5z" fill="#B7CBFE"/>
<path transform="translate(864,1212)" d="m0 0 7 2 2-1 5 4 7-1 5 3v2l-5 4-9-3-2-2 1-1-12-5z" fill="#ECEAFD"/>
<path transform="translate(417,632)" d="m0 0 8 1 9 3 4 1h17l5 2v2l-11 1-13-2-11-4-8-3z" fill="#CEE3FF"/>
<path transform="translate(732,286)" d="m0 0 12 1 12 6 9 3h4v2l5 2 3 2v2l-10-3-7-3-19-8-9-3z" fill="#D5E8FE"/>
<path transform="translate(652,266)" d="m0 0 5 1 5 3v5l-10-2-3-1-1 3-7-2h-6l-1-2 4-1 5-1h4z" fill="#D6CBFD"/>
<path transform="translate(1127,819)" d="m0 0 6 1 7 4 5 1v1l-14 2h-5v-3l-6-2v-3z" fill="#D5D9FE"/>
<path transform="translate(1158,363)" d="m0 0h6l3 3-1 6-3 4-5-1-2-3v-7z" fill="#B8CCFE"/>
<path transform="translate(592,272)" d="m0 0h5l-5 5-7-1-2 5-4 1v-2l-8 1-1 3-6 1 3-5 6-2 1-2z" fill="#E2ECFE"/>
<path transform="translate(1176,903)" d="m0 0 7 1 1 2v6l-4 3-4-1-5-6v-2z" fill="#B7CBFE"/>
<path transform="translate(1079,821)" d="m0 0 2 1 1 7-4 5-2 1-9-4-2-2h2v-3l4-2h5v3l3 1-1-5z" fill="#D1D1FE"/>
<path transform="translate(986,889)" d="m0 0 6 1 2 5 10-2 3 3v1h-11l-15-2h-7l4-2z" fill="#D8DAFF"/>
<path transform="translate(416,778)" d="m0 0 11 6 12 6 9 5-1 2-9-3-7-2-2-4-7-2-4-5-2-1z" fill="#E5EDFE"/>
<path transform="translate(1043,624)" d="m0 0 12 2 1 3h3l1 7-1-2h-9l-4-2-2-5-2-2z" fill="#DAD4FD"/>
<path transform="translate(649,1190)" d="m0 0h5l3 1-1 14-1 8h-1v-9l1-8-9 2-15 2-4 2 1-3 3-2 15-2z" fill="#D7D8FE"/>
<path transform="translate(562,1175)" d="m0 0 4 2 4 10 4 16-1 4-1-5h-2l-1-6-3-4-2-3z" fill="#E5ECFD"/>
<path transform="translate(777,905)" d="m0 0 2 1-2 5-1 2 3 1v2l-5 4-1 4-3 1-2-1-1 3-3-2 8-10 1-3-2-1z" fill="#CED1FE"/>
<path transform="translate(1117,508)" d="m0 0h2l1 3-11 14h-2l-3 3 2-7h2v-9z" fill="#E7E5FD"/>
<path transform="translate(1105,310)" d="m0 0 5 2 1 1-1 7-7 1-4-4 1-6z" fill="#DCE6FE"/>
<path transform="translate(886,946)" d="m0 0 2 1 2 19-1 2h2v2l-4-1 1-5-1-2-6-1 4-1 1-9-2 2-1-3 2-2zm-1 23 3 3-3 5-4-2 1-5z" fill="#D9C1DE"/>
<path transform="translate(507,1376)" d="m0 0h7l4 2-2 2h-6l2 6-5 1h-5l1-7z" fill="#EBF2FE"/>
<path transform="translate(812,1021)" d="m0 0h1l-1 13h-3v2l-3-1 1-2 3-1-5-2-2 4-5-1v7h-3l1-6 2-7 2 3 3 1 1-4 3-1v-3l1 2h4z" fill="#DFC7E6"/>
<path transform="translate(1200,890)" d="m0 0 4 1-2 3 3 1 1 5h-4l-1-2-1 2 2 2-6 1-3-4 1-5z" fill="#D2D4FE"/>
<path transform="translate(1337,772)" d="m0 0 6 1 1 1v9l-7 1-3-3 1-8z" fill="#BFD0FE"/>
<path transform="translate(555,308)" d="m0 0 3 1-8 8-3 2-7 2h-5l-1-3 13-6 7-3z" fill="#E1DBF8"/>
<path transform="translate(656,1332)" d="m0 0 5 1 3 5-1 4-4 2h-3l-4-7 2-4z" fill="#DAC8FD"/>
<path transform="translate(475,827)" d="m0 0 6 3h9l4-1-2 3-9 1 2 3 5 3v2l-6-1-10-6z" fill="#CEE3FE"/>
<path transform="translate(1042,907)" d="m0 0h7l4 4-1 5-3 1-2-6-2-1v7l3 1v2h-5l-2-2v-10z" fill="#B7CBFE"/>
<path transform="translate(1313,1033)" d="m0 0 4 1 1 6-1 9 2 1-9 6 2-10v-11z" fill="#D7E9FD"/>
<path transform="translate(1240,858)" d="m0 0 6 1 2 2-1 6-1 2-7 1-2-4 1-5h2z" fill="#D3DEFE"/>
<path transform="translate(592,1281)" d="m0 0 2 1-10 6-1 5-2 1-10-4-9-1-5-3v-2l5 2 3 1h13l10-4z" fill="#D9C9FD"/>
<path transform="translate(919,1238)" d="m0 0 5 2v5l5 1 4 3-4 2-9-4-12-5v-2l12 3z" fill="#DCCCFD"/>
<path transform="translate(1118,551)" d="m0 0 1 4-2 9-5 2-4-3h-3l2-7h4l4 1z" fill="#BACBFE"/>
<path transform="translate(1111,935)" d="m0 0h8l2 2 1 8-2 2h-8l-2-4 3-2 2 4 3-3-1-3-6 1-1-2z" fill="#B7CBFE"/>
<path transform="translate(204,890)" d="m0 0h4l1 3-5 5v1l2 1-2 2h-8l-3-3z" fill="#B7CBFE"/>
<path transform="translate(1383,552)" d="m0 0 1 4-2 7 3 1v2l2 1-1 2-4-2-5 1-4-4h5l-3-5-4-4 1-2 6 4h3z" fill="#E3E7FD"/>
<path transform="translate(1233,482)" d="m0 0 5 1 2 2v5l-5 3-5-2-1-6 1-2z" fill="#D3D3FF"/>
<path transform="translate(721,1306)" d="m0 0 5 1 3 4-2 5-6 1-3-3 1-5z" fill="#D8D5FE"/>
<path transform="translate(1277,1085)" d="m0 0h2l-1 4-8 8h-5v-7z" fill="#F7F6FB"/>
<path transform="translate(1169,829)" d="m0 0 20 1 14 2 1 2h-6l-4 2-4-1v-2l-18-1z" fill="#D8CAFD"/>
<path transform="translate(1237,717)" d="m0 0h5l2 4-1 6-6 1-3-3 1-7z" fill="#C0D1FE"/>
<path transform="translate(268,849)" d="m0 0h2l2 4v4 2h-8v-3l-8-1 1-2z" fill="#D4D6FE"/>
<path transform="translate(702,1198)" d="m0 0h1l-1 18v13l1 4 3 2 9-1 9-6-2 4-8 5h-10l-3-3-1-3v-20l1-12z" fill="#DACAF9"/>
<path transform="translate(1121,537)" d="m0 0h7v3l-10 5-7 3 1-6 5-4z" fill="#E5EBFD"/>
<path transform="translate(656,1155)" d="m0 0h3l1 3v10l-2 6-4-2-1-7 2-4z" fill="#DEE2FE"/>
<path transform="translate(825,895)" d="m0 0h4l1 6-2 8-4 4-1-6v-8z" fill="#E9E5FD"/>
<path transform="translate(1207,722)" d="m0 0h2l3 4-2 3h-2l-1 4-5 5-2-9h2v-2l2-1z" fill="#D5D9FE"/>
<path transform="translate(1212,605)" d="m0 0h1l1 9-4 6-9 6-2 1 1-6 3-6h3l-1 4 3-2 3-6z" fill="#D1E2FE"/>
<path transform="translate(1272,958)" d="m0 0h1v12h2l-1 6h2l1 8-3 3-3-9v-10l-2-9 2 1z" fill="#D9EDFE"/>
<path transform="translate(1204,992)" d="m0 0h3l-3 10-6 10h-3l2-5 1-7 4-4v-2h2z" fill="#D8EBFE"/>
<path transform="translate(1085,393)" d="m0 0 3 1-2 5-9 7-4 1 2-6 8-7z" fill="#E6EDFE"/>
<path transform="translate(912,1042)" d="m0 0h2l3 6 5 5 1 4-2 2-4-1-2-3h2l-2-5-4-2z" fill="#F8F8FD"/>
<path transform="translate(463,616)" d="m0 0h1l-1 16h-24v-1l18-1 1-1 1-7z" fill="#D5E9FE"/>
<path transform="translate(1330,795)" d="m0 0 3 1 1 4 7 2-1 5-5 2-2-5-4-2v-6z" fill="#B8CBFE"/>
<path transform="translate(709,1262)" d="m0 0 2 1-1 4-7 8-8 2 1-3h2v-3l6-4z" fill="#FAFBFD"/>
<path transform="translate(1136,489)" d="m0 0 3 1-18 18v-3l7-11 5-4z" fill="#E3E5FD"/>
<path transform="translate(1265,444)" d="m0 0 5 1 2 6-1 2h-2l-1 2-3-1-4-3 2-5z" fill="#D8DAFF"/>
<path transform="translate(1178,778)" d="m0 0h6l1 2-5 2v3l-1 3-6-1-1-1v-6z" fill="#E5EBFD"/>
<path transform="translate(1189,854)" d="m0 0 11 3 10 3 1 3 2 1-9-2-14-4-6-1v-2z" fill="#BBCBFE"/>
<path transform="translate(685,397)" d="m0 0 15 1 1-1h5l2 4h-16-4l-5-1v-2z" fill="#DDD3FD"/>
<path transform="translate(928,311)" d="m0 0h6l5 4 1 6-5 5h-7l-4-5 1-7zm1 1-3 3v6l2 3 6 1 3-3v-6l-4-4z" fill="#D9EDFE"/>
<path transform="translate(865,241)" d="m0 0h5l3 5-3 4-7-1-1-5z" fill="#CFE4FE"/>
<path transform="translate(1285,581)" d="m0 0h1l-1 14-1 18h-1v-15h-5v-2h-2l1-3 5-2z" fill="#D6DBFD"/>
<path transform="translate(1109,495)" d="m0 0 5 1-1 7-1 1h-5l-4-1-3 1-1-5 3 2z" fill="#D9DBFF"/>
<path transform="translate(1267,473)" d="m0 0 9 2v3l-5-3v2l-7 1-1 9-2 2-2-6 2-6 3-3z" fill="#D2D3FF"/>
<path transform="translate(1445,1246)" d="m0 0 5 2-1 4 3 1-1 4h-7l-1-6-2-2z" fill="#B7CBFE"/>
<path transform="translate(176,1132)" d="m0 0h2l4 11v6l4 1 2 5-4 1-2-5-3-1-2-13z" fill="#E1E5FE"/>
<path transform="translate(587,396)" d="m0 0h1l1 23 2 6-1 2h-3l1 5 2 2h-3l-1 5h-1v-10l1-4z" fill="#D9CAFC"/>
<path transform="translate(933,170)" d="m0 0 6 1 2 2-1 5-7 1-2-2 1-6z" fill="#D9EDFE"/>
<path transform="translate(347,756)" d="m0 0 3 1 2 6 2 5h-10l1-7v-3z" fill="#DAEDFE"/>
<path transform="translate(577,294)" d="m0 0 4 1 1 5-16 3 3-5z" fill="#DBC7F6"/>
<path transform="translate(1e3 283)" d="m0 0 5 1 2 2-1 5-2 2-5-1-1-1v-6z" fill="#D9EDFE"/>
<path transform="translate(436,657)" d="m0 0h5l1 1v6l-3 3h-4l-1-2v-6z" fill="#CADFFE"/>
<path transform="translate(781,1257)" d="m0 0 2 2v11l-1 2h-4l-1-5 1-8z" fill="#E6EDFE"/>
<path transform="translate(1390,916)" d="m0 0 5 1 2 4-1 5-2 1-5-3-1-6z" fill="#CEE3FF"/>
<path transform="translate(454,365)" d="m0 0 1 3-4 6-5 13h-3l1-7 2-5 3-4h2l2-5z" fill="#D9EDFE"/>
<path transform="translate(253,1153)" d="m0 0 5 4 1 7-5 3h-2v-13z" fill="#CCE1FE"/>
<path transform="translate(804 1e3)" d="m0 0 3 1v4h3v3h2v-3h2l-1 5-3 2h-4l-3-6z" fill="#F5F5FD"/>
<path transform="translate(596,420)" d="m0 0h4l-2 9-6 3-5-1v-4l7-1z" fill="#E3E5FD"/>
<path transform="translate(647,1346)" d="m0 0 2 1-1 6-3 3h-6l-3-1 1-3 9-5z" fill="#B7CBFE"/>
<path transform="translate(802,980)" d="m0 0 4 1 3 7h4v6l-4 2-2-6-3-1v-2l-2-1 2-1v-3z" fill="#D8DAFF"/>
<path transform="translate(781,916)" d="m0 0 10 5 1 2-7 1v-2h-2l-1 3h-5l-1-2h4l-1-4z" fill="#CFD1FE"/>
<path transform="translate(738,896)" d="m0 0 12 1-4 4-6 3-4-2 1-5z" fill="#CDE2FE"/>
<path transform="translate(1090,835)" d="m0 0h11l4 3-8 1v2l-8-1-2-3z" fill="#E5EBFE"/>
<path transform="translate(753,308)" d="m0 0 4 1 4 2 1 4-2 2h-6l-2-4z" fill="#F5F7FD"/>
<path transform="translate(344,1245)" d="m0 0h6l5 3 2-1v3h-2v2l2 1-7-1v-2l-4-1-5-2z" fill="#E6EDFE"/>
<path transform="translate(842,1163)" d="m0 0 4 2 1 6-1 1h-7l-2-2v-3l4-1z" fill="#F5F5FD"/>
<path transform="translate(214,1010)" d="m0 0h3l2 5-1 2h-2v6l-3 4h-2v-2h2l-1-5 1-9z" fill="#E6EDFE"/>
<path transform="translate(497,683)" d="m0 0h1v6l-2 10h-8l6-11z" fill="#CEE3FF"/>
<path transform="translate(355,552)" d="m0 0 6 3v5l-2 2-5-1-2-6z" fill="#D9EDFE"/>
<path transform="translate(1171,790)" d="m0 0 5 2 1 6-3 2-6-1v-3l2-1z" fill="#E2E8FE"/>
<path transform="translate(1242,341)" d="m0 0 9 3 2 1-1 4-4 1-6-4-1-3z" fill="#E8E5FD"/>
<path transform="translate(715,280)" d="m0 0 8 1 20 5v2l-15-2-13-5z" fill="#F0F7FE"/>
<path transform="translate(342,734)" d="m0 0 3 4 1 4 1 5v7l-6-5z" fill="#E5EDFE"/>
<path transform="translate(1283,1200)" d="m0 0h9l1 3-6 2 1 4-5-1z" fill="#CBD0FE"/>
<path transform="translate(1234,877)" d="m0 0 9 3 4 3v4l-6-1-7-6z" fill="#E5ECFE"/>
<path transform="translate(291,835)" d="m0 0 2 1-4 3v4l-4 2-8 1-1 3-2-3 10-6z" fill="#E7EDFE"/>
<path transform="translate(809,1016)" d="m0 0h4l-1 9h-4l-2-4-3-1 1-3z" fill="#F4F3FD"/>
<path transform="translate(1078,950)" d="m0 0h4v2h3v2l-9 1-1 4h-3l-1-6z" fill="#C6CFFE"/>
<path transform="translate(346,697)" d="m0 0h5l-1 2h-2v2l-9 6-3-1 2-4z" fill="#DBEDFE"/>
<path transform="translate(684,270)" d="m0 0 9 2 8 3-4 3h-3l-1-2h-3l-7-2z" fill="#E5E7FD"/>
<path transform="translate(1173,1072)" d="m0 0 1 4-3 14v3l-3-1-1-5 4-11z" fill="#D9DAFE"/>
<path transform="translate(1252,901)" d="m0 0 2 4h5l4 8 1 5h-2l-5-8-5-3z" fill="#D5D7FE"/>
<path transform="translate(742,300)" d="m0 0 4 1v6h3v5l4 4-5-1-3-6-4-4-1-3z" fill="#E8E7FD"/>
<path transform="translate(585,276)" d="m0 0h5l-1 4-9 6h-6l4-6 1 2 4-2z" fill="#CEE3FE"/>
<path transform="translate(755,1126)" d="m0 0 4 1v7l-5 1-3-5 1-3z" fill="#CCD3FE"/>
<path transform="translate(1378,929)" d="m0 0 6 1 2 7-1 2-5-2-3-4z" fill="#CEE3FF"/>
<path transform="translate(1074,456)" d="m0 0 8 6 5 8v5l-2-1-1-5-4-1-2-6-6-4z" fill="#D4D5FE"/>
<path transform="translate(852,1189)" d="m0 0 3 3-1 6-3 2-4-1-2-4 5-5zm-5 5 1 4h3l-1-4z" fill="#F2F1FD"/>
<path transform="translate(1056,913)" d="m0 0 4 2v2h-2l-1 4-2 2-4-1 1-5z" fill="#E8E5FD"/>
<path transform="translate(1138,375)" d="m0 0 4 2v5l-1 1h-6l-2-4 2-3z" fill="#B7CBFE"/>
<path transform="translate(770,322)" d="m0 0 4 2-1 4 4 2v2l-5 1v-3l-5-2-1-2z" fill="#E6EBFE"/>
<path transform="translate(793,317)" d="m0 0 3 1-1 5-2 2-5-1-1-5z" fill="#CEE3FF"/>
<path transform="translate(773,1317)" d="m0 0 2 1-3 1-2 4-7 7-10 8-2-1 13-12h2l2-4 3-1v-2z" fill="#FBFDFE"/>
<path transform="translate(1103,904)" d="m0 0h6l2 2-1 4h-4l-1 2-4-3z" fill="#E1EBFE"/>
<path transform="translate(506,784)" d="m0 0h2l1 5 5 2 3 5-1 2-5-4-6-3-1-3z" fill="#D9EDFE"/>
<path transform="translate(340,710)" d="m0 0 1 2 1 3 4-3 2 1-5 5-6 1-1 3-2-4z" fill="#FBFDFE"/>
<path transform="translate(891,336)" d="m0 0h4l1 2v7l-2 2-4-4-2-1 2-5z" fill="#CEE3FF"/>
<path transform="translate(907,1037)" d="m0 0 5 1v4l-4 4h-4l-1-3 2-5z" fill="#F8F9FD"/>
<path transform="translate(884,1010)" d="m0 0 4 3 3-1v-2l6 2-1 2-7 3h-4l-1-1z" fill="#F6F7FD"/>
<path transform="translate(807,992)" d="m0 0h2l2 6 2 1v2h-2l-1 3h-2v-4l-3 1-1-4z" fill="#D0BBDC"/>
<path transform="translate(817,973)" d="m0 0 2 4v6l-4 1-2 2-1-4 3-8z" fill="#DFC7E4"/>
<path transform="translate(801 1e3)" d="m0 0 1 3-3 11v9l-2 2-1-4 1-10 1-2v-5z" fill="#DCDCFD"/>
<path transform="translate(229,936)" d="m0 0 8 4v3h-9l-2-2 1-4z" fill="#E4ECFE"/>
<path transform="translate(640,400)" d="m0 0h5l1 3h-2l-1 3-8 1v-4z" fill="#E0E5FE"/>
<path transform="translate(807,384)" d="m0 0 5 1v2h3l1 3v4l-5-1v-2h-2v-2l-3-1z" fill="#D9CDFC"/>
<path transform="translate(469,385)" d="m0 0 3 4h3l-1 4-6 3-1 5h-1v-8z" fill="#DAC8FD"/>
<path transform="translate(541,319)" d="m0 0h5l-1 2h-2l-2 4-4 3-3-1v-4z" fill="#D0C8FC"/>
<path transform="translate(730,293)" d="m0 0 4 2 3 3-4 4-4-1-1-5z" fill="#F4F4FD"/>
<path transform="translate(853,216)" d="m0 0 5 1 1 1v5h-7l-1-5z" fill="#CEE2FE"/>
<path transform="translate(1266,1083)" d="m0 0h4l1 3-1 3-4 1-1 7 3 1h-4v-14z" fill="#D9C8FA"/>
<path transform="translate(1325,803)" d="m0 0 3 1 2 4-6 1-5 2-4-1 4-3h3v-2z" fill="#E9E5FD"/>
<path transform="translate(573,626)" d="m0 0 4 3v3l-4 4-2-3-2 3v-7z" fill="#DAC7F6"/>
<path transform="translate(611,268)" d="m0 0h5l-4 2-4 3-7 2v-2l-4-2z" fill="#E0EAFE"/>
<path transform="translate(519,1382)" d="m0 0h1v6l-5 5-6 1-5-3v-2h4v2l7-1 3-5z" fill="#F3F8FE"/>
<path transform="translate(1239,1041)" d="m0 0h5l8 3v1l-16 2 2-5z" fill="#C5D3FE"/>
<path transform="translate(1327,1038)" d="m0 0 4 3 20 1v1l-18 1-7 1v-6z" fill="#C4C9FD"/>
<path transform="translate(468,474)" d="m0 0h3l2 8v5l-4 1z" fill="#DAC8FD"/>
<path transform="translate(454,363)" d="m0 0v3l-3 5h-2l-2 4-3 2h-3l2-4z" fill="#FBFDFE"/>
<path transform="translate(732,286)" d="m0 0 12 1 12 6-3 1-8-2-6-3-7-2z" fill="#D7E9FE"/>
<path transform="translate(786,1198)" d="m0 0h2v15l-1 16h-1l-1-23z" fill="#E8E5FD"/>
<path transform="translate(262,1152)" d="m0 0 6 1 3 4-2 2h-5l-2-2z" fill="#CEE3FF"/>
<path transform="translate(738,1130)" d="m0 0h7l5 2v1h-5l-4-1-2 4h-2l-1 5h-1v-9z" fill="#E6ECFD"/>
<path transform="translate(1151,815)" d="m0 0 2 2v5l-7 1-1-3 3-4z" fill="#D2D2FF"/>
<path transform="translate(502,784)" d="m0 0h1v7l-1 2 9 2v2l-9-1-2-1v-8z" fill="#D9EDFE"/>
<path transform="translate(393,767)" d="m0 0 6 2 16 8v2l-6-2-16-8z" fill="#E0EDFE"/>
<path transform="translate(587,642)" d="m0 0 5 1 8 3-1 4-4 1-1-3-5-2z" fill="#E1E7FE"/>
<path transform="translate(513,1384)" d="m0 0h2v5l-2 2h-5v-2h-5v-2l9-2z" fill="#B8CBFE"/>
<path transform="translate(1448,1242)" d="m0 0 5 1 5 3 1 5h-3v-2h-2v-3h-6l-3-2z" fill="#E0ECFE"/>
<path transform="translate(1032,1127)" d="m0 0 11 1-1 4h-9z" fill="#DEC7E8"/>
<path transform="translate(885,961)" d="m0 0 3 1 1 3-2 4 2 1h-3l-3 1-1-5 1-4z" fill="#F3F1FC"/>
<path transform="translate(1112,853)" d="m0 0 6 1-2 2-6 2-2 3-7-1 2-2 4 1-1-3 1-2z" fill="#D9DBFF"/>
<path transform="translate(460,419)" d="m0 0h10v4h-9l-1 3z" fill="#E6E7FD"/>
<path transform="translate(650,398)" d="m0 0 5 1 2 3-4 2h-6v-5z" fill="#E1E7FE"/>
<path transform="translate(1280,1095)" d="m0 0 2 1-15 15 1 4-3-2 1-5z" fill="#E5E3FC"/>
<path transform="translate(1316,1087)" d="m0 0 5 1 3 3v6l-3-1v-2l-3-1z" fill="#E6E2FC"/>
<path transform="translate(787,342)" d="m0 0 2 1 5 10v5l-3-1-2-8h-2z" fill="#DACBFD"/>
<path transform="translate(783,304)" d="m0 0h7l5 5v2l10 1v1h-10l-5-5v-2h-9z" fill="#CEE3FF"/>
<path transform="translate(692,284)" d="m0 0h6l1 3-6 2v2l-4-1 1-5z" fill="#E7E3FB"/>
<path transform="translate(875,224)" d="m0 0h3v10l-4 1-1-3 1-7z" fill="#B7CBFE"/>
<path transform="translate(612,1267)" d="m0 0 2 1-9 8-3 3-3-1-1 3-4-1 13-9z" fill="#DCD2FC"/>
<path transform="translate(890,989)" d="m0 0h3v3h2v5h-5l-3-4h2z" fill="#E7DBF7"/>
<path transform="translate(1036,311)" d="m0 0 4 1 1 4-3 3-5-2 2-5z" fill="#D9EDFE"/>
<path transform="translate(1266,710)" d="m0 0h3v4h-5v2h5v2l-7-1-1-5 3-1 2 1z" fill="#C8D0FE"/>
<path transform="translate(655,267)" d="m0 0 6 2 1 1v5l-5-1-3-5z" fill="#CDC0F1"/>
<path transform="translate(644,1165)" d="m0 0 3 1-3 1-1 4-2 3-8 4 2-4z" fill="#D9DEFD"/>
<path transform="translate(890,980)" d="m0 0 3 1v3l-3 1-1 3h-2v-3l-5-1v-2l7-1z" fill="#F7F7FD"/>
<path transform="translate(887,967)" d="m0 0 4 1v2l-4-1zm-2 2 3 3-3 5-4-2 1-5z" fill="#D2BBD7"/>
<path transform="translate(1250,891)" d="m0 0 4 2 2 4-1 4-3-1-4-6 1-2z" fill="#D2D2FF"/>
<path transform="translate(1112,822)" d="m0 0 10 1 5 2-1 2-13-2-2-2z" fill="#C8CFFE"/>
<path transform="translate(1101,572)" d="m0 0 5 1 2 2v5l-3 1v-2l-4-2z" fill="#D1D1FE"/>
<path transform="translate(1381,561)" d="m0 0 1 2 3 1v2l2 1-1 2-4-2-5 1-4-4h5z" fill="#E4EAFE"/>
<path transform="translate(1185,339)" d="m0 0 9 2-1 4-3 1-5-1-1-5z" fill="#C8DCFE"/>
<path transform="translate(791,1159)" d="m0 0 1 4-2 17h-1l-1-13-1-4 4-2z" fill="#E8E5FD"/>
<path transform="translate(233,1136)" d="m0 0 11 1 2 2-12 2-2 1v-2l-2-2z" fill="#CCE1FE"/>
<path transform="translate(776,928)" d="m0 0h9v2h2l1 3-6-2-1 3-3-2v-2h-2z" fill="#D2D2FF"/>
<path transform="translate(1249,838)" d="m0 0 7 1 3 3 3-1 1 4-5-1-8-2z" fill="#E9E5FD"/>
<path transform="translate(1343,378)" d="m0 0h3l1 6-2 5-4-1z" fill="#FAFBFD"/>
<path transform="translate(723,1228)" d="m0 0v3l-5 4-4 2h-10l-3-3 1-3 4 4 9-1 6-4z" fill="#D8C8F6"/>
<path transform="translate(1294,1203)" d="m0 0h4v7l1 5-3-4h-6v-2l3-3z" fill="#E6E9FD"/>
<path transform="translate(1271,1069)" d="m0 0 2 1-3 7-4 2-1-5z" fill="#D9DBFF"/>
<path transform="translate(798,1027)" d="m0 0 2 3h5l-2 4-5-1v7h-3l1-6z" fill="#E0C8E4"/>
<path transform="translate(1292,477)" d="m0 0 3 4v3h-2l-1 2-5-5 3-3z" fill="#E8E5FD"/>
<path transform="translate(1147,340)" d="m0 0h6l1 5-7 1z" fill="#B7CBFE"/>
<path transform="translate(1099,184)" d="m0 0 5 1 2 4-4 2-4-3z" fill="#D9EDFE"/>
<path transform="translate(986,889)" d="m0 0 6 1 2 4-13-1 3-3z" fill="#D2D2FF"/>
<path transform="translate(1194,831)" d="m0 0 9 1 1 2h-6l-4 2-4-1 1-3z" fill="#DAC8FD"/>
<path transform="translate(1304,813)" d="m0 0 4 5-2 3-4 1-1-5 1-3z" fill="#D9DBFF"/>
<path transform="translate(1330,795)" d="m0 0 3 1 1 4 3 2h-2v2l-6-2v-6z" fill="#C3CFFE"/>
<path transform="translate(481,767)" d="m0 0 1 3h3v4l2 1h-5l-2 1-6-3 2-1h4z" fill="#D9EDFE"/>
<path transform="translate(603,416)" d="m0 0 5 1-4 3-4 1-4-1v5h-2l-2-4 3-2 7-2z" fill="#DAD8FD"/>
<path transform="translate(1204,997)" d="m0 0 1 2-6 12-3 2v-3l5-9z" fill="#CEE3FF"/>
<path transform="translate(833,870)" d="m0 0 8 1 2 3-4 1h-7v-2l2-1z" fill="#B7CBFE"/>
<path transform="translate(1265,444)" d="m0 0 5 1 2 6-2-1v-2l-3 1-4-1-1 3-1-2z" fill="#D2D2FF"/>
<path transform="translate(1144,304)" d="m0 0 4 1 1 2v11l-3 1 1-8-4-6z" fill="#B7CBFE"/>
<path transform="translate(1277,1085)" d="m0 0h2l-1 4-4 3v-2h-8l4-2z" fill="#E4E7FD"/>
<path transform="translate(1181,1075)" d="m0 0h5l-2 4-5 3-2-4z" fill="#E6EDFE"/>
<path transform="translate(883,933)" d="m0 0h2l1 4-2 2 2 2h-3l1 7-2-1-1-10z" fill="#E0C7E3"/>
<path transform="translate(472,382)" d="m0 0 4 1v8l-3-2-2 1-1-4z" fill="#E0C7E3"/>
<path transform="translate(873,218)" d="m0 0 5 2 2 2 1 6-2 7h-3l1-1 1-11z" fill="#D5E9FE"/>
<path transform="translate(755,1141)" d="m0 0h5l2 5-3 2-4-3z" fill="#E6EDFE"/>
<path transform="translate(993,1116)" d="m0 0 5 1-1 6-4-1-1-4z" fill="#EEF0FD"/>
<path transform="translate(803,1023)" d="m0 0 6 3v1h-5l-1 4-4-1 1-4h3z" fill="#F5F5FD"/>
<path transform="translate(1240,858)" d="m0 0 6 1 2 2-1 6-2-1-1-4h-4z" fill="#B7CBFE"/>
<path transform="translate(1351,631)" d="m0 0h4l1 3-5 5-2-4v-3z" fill="#E9E5FD"/>
<path transform="translate(1117,508)" d="m0 0h2l1 3-5 6-3-2 2-3v-3z" fill="#E6EAFD"/>
<path transform="translate(749,1107)" d="m0 0h5l1 4-3 3-3-2z" fill="#B7CBFE"/>
<path transform="translate(347,756)" d="m0 0h1v6l1 2-2 1 3 1v2h-6l1-7v-3z" fill="#E6EDFE"/>
<path transform="translate(1135,305)" d="m0 0h3l-1 7-1 2-3-1 1-7z" fill="#B7CBFE"/>
<path transform="translate(865,241)" d="m0 0h5v2l-5 1-1 3 6 2v1l-7-1-1-5z" fill="#D9EDFE"/>
<path transform="translate(714,1252)" d="m0 0v3l-9 11-4 2 2-4 7-7z" fill="#DAD3FD"/>
<path transform="translate(859,1193)" d="m0 0h3v5l-2 2h-4l1-5z" fill="#F6F8FD"/>
<path transform="translate(1230,1046)" d="m0 0 4 2-6 7-3-1z" fill="#F5F7FE"/>
<path transform="translate(814,986)" d="m0 0h2l1 4 2-1-1 7-1-2-4-1v-6z" fill="#CEB8D4"/>
<path transform="translate(213,987)" d="m0 0 3 1 5 5 7 3v2l-7-2-8-7z" fill="#C5C9FD"/>
<path transform="translate(1522,785)" d="m0 0h7v4l-6 1z" fill="#C7DBFE"/>
<path transform="translate(473,593)" d="m0 0 1 4-1 6-4 2 2-9z" fill="#DAC8FD"/>
<path transform="translate(807,377)" d="m0 0 2 1v6l-4 1-2-4z" fill="#E3EAFE"/>
<path transform="translate(517,325)" d="m0 0 4 1v4l-4 1-5-1z" fill="#E0C7E3"/>
<path transform="translate(540,315)" d="m0 0h2l1 4-3 2h-5l-1-3z" fill="#E0DCF5"/>
<path transform="translate(733,306)" d="m0 0h5l1 5-3 1-4-3z" fill="#EFEFFD"/>
<path transform="translate(777,1083)" d="m0 0 1 3-9 10-1-4 5-4z" fill="#D6DFFE"/>
<path transform="translate(795,1029)" d="m0 0 2 1-2 17h-1l-1-8-1-3h2z" fill="#D7CBFD"/>
<path transform="translate(802 1e3)" d="m0 0h1l-1 12-2 5h-2l2-10z" fill="#D3C9FD"/>
<path transform="translate(889,985)" d="m0 0 4 1 1 6-1-3-3 1-2 3-2-1v-4h3z" fill="#B6A3C0"/>
<path transform="translate(809,988)" d="m0 0h4v6l-4 2-1-7z" fill="#F9FAFD"/>
<path transform="translate(1050,627)" d="m0 0h4l-1 7-4-1v-5z" fill="#F9FBFE"/>
<path transform="translate(470,523)" d="m0 0 3 2v8l-3 2-1-5z" fill="#DAC8FD"/>
<path transform="translate(1060,442)" d="m0 0 3 1 7 8 3 4h-3l-10-11z" fill="#D5D6FF"/>
<path transform="translate(777,302)" d="m0 0h12l1 2-13 1z" fill="#D7ECFE"/>
<path transform="translate(705,1353)" d="m0 0 6 1v3h-9v-3z" fill="#DFDBFD"/>
<path transform="translate(804 1e3)" d="m0 0 3 1v4h3l-1 2-3-1-1 4-2-4z" fill="#F2F1FD"/>
<path transform="translate(1268,845)" d="m0 0 6 1 2 3 3 2-8-1-4-4z" fill="#E8E5FD"/>
<path transform="translate(1213,592)" d="m0 0h2l-2 11h-3l1-6z" fill="#DDE3FD"/>
<path transform="translate(1213,452)" d="m0 0 2 1 1 5-1 2-4-1-1-2z" fill="#D5C8FD"/>
<path transform="translate(1047,416)" d="m0 0 3 4v3l-5 1-2-5 3-1z" fill="#FAFCFD"/>
<path transform="translate(572,296)" d="m0 0h2v6l-8 1 3-5z" fill="#DAC8FD"/>
<path transform="translate(709,278)" d="m0 0 6 1v2l5 1 2 2-10-2-4-2z" fill="#E4E9FE"/>
<path transform="translate(1225,260)" d="m0 0h7l2 5h-5z" fill="#E3E5FA"/>
<path transform="translate(706,1141)" d="m0 0h1v19 3l-2 1z" fill="#D1C8FD"/>
<path transform="translate(806 1e3)" d="m0 0h2l2 5 2 3v3h-2v-3h-3l-2-7z" fill="#DFCBEE"/>
<path transform="translate(1272,958)" d="m0 0h1l1 13h-2l-3-9 1-3 1 1z" fill="#CEE3FF"/>
<path transform="translate(170,930)" d="m0 0h3v6h-2v3h-2v2h-2z" fill="#FAFCFE"/>
<path transform="translate(1474,756)" d="m0 0h1v9l-2 5-1 5h-1l1-13z" fill="#E6EDFE"/>
<path transform="translate(1056,629)" d="m0 0h3l1 7-1-2h-6l2-4z" fill="#DAC9FD"/>
<path transform="translate(240,1184)" d="m0 0v3l-9 12-1-3 7-9z" fill="#CECBFD"/>
<path transform="translate(1280,1024)" d="m0 0 6 1-3 3-5 2 1-5z" fill="#C9DEFE"/>
<path transform="translate(338,767)" d="m0 0h2l1 3-9 4-3 2 2-4 5-4z" fill="#D6EAFE"/>
<path transform="translate(1340,651)" d="m0 0h2l1 5-3 2-3-1 1-5z" fill="#E9E5FD"/>
<path transform="translate(470,588)" d="m0 0h1l-1 8-1 6h-1l-1-7-1-4h4z" fill="#D6EAFE"/>
<path transform="translate(742,300)" d="m0 0 4 1-1 6-4-2-1-3z" fill="#EFF0FD"/>
<path transform="translate(502,1382)" d="m0 0 4 1 2-1 2 5h-8z" fill="#DAE8FE"/>
<path transform="translate(1307,1195)" d="m0 0 7 1v1l-10 1-5 4 2-5z" fill="#D6D9FE"/>
<path transform="translate(632,1177)" d="m0 0v3l-7 7-2 3-3-1z" fill="#CACAFD"/>
<path transform="translate(813 1e3)" d="m0 0h2v5l-3 1-1 2-2-4z" fill="#F5F5FD"/>
<path transform="translate(814,992)" d="m0 0 1 3v2l1 1v5l-1-3-5-1 3-6z" fill="#DEC9ED"/>
<path transform="translate(883,941)" d="m0 0h3v8l-5 2 2-6z" fill="#E9E5FD"/>
<path transform="translate(1115,938)" d="m0 0 4 2-2 5h-2l-2-5z" fill="#E6EDFE"/>
<path transform="translate(509,639)" d="m0 0h4l-1 5h-5v-3z" fill="#D9EDFE"/>
<path transform="translate(1242,341)" d="m0 0 3 1 1 4 3 1v2l-5-1-3-3z" fill="#E0DFFE"/>
<path transform="translate(523,323)" d="m0 0h2l-1 7-3 1v-5h-2v-2z" fill="#DAC8FD"/>
<path transform="translate(730,283)" d="m0 0 13 3v2l-9-1-4-2z" fill="#FBFDFE"/>
<path transform="translate(648,1351)" d="m0 0 2 3h-3l-1 3h-10l-2-2 4-1 7 2 1-3h2z" fill="#DDDDFE"/>
<path transform="translate(836,1171)" d="m0 0 1 3h3v3l-2 1v6h-3z" fill="#DAC7FC"/>
<path transform="translate(1141,1058)" d="m0 0 7 1-2 4-5-1z" fill="#E2DFFD"/>
<path transform="translate(1061,921)" d="m0 0h3v6l-4-1-2-2z" fill="#E5ECFE"/>
<path transform="translate(1180,852)" d="m0 0 10 1-3 3-7-1z" fill="#CBCCFD"/>
<path transform="translate(1206,840)" d="m0 0 5 1 4 4-9-1z" fill="#E6EDFE"/>
<path transform="translate(1096,819)" d="m0 0 9 2v1h-6v3h-3v-2l-3-1z" fill="#D2D2FF"/>
<path transform="translate(1273,703)" d="m0 0 2 2-1 8-4-2z" fill="#FBFDFE"/>
<path transform="translate(1218,578)" d="m0 0 1 2 12-1-4 2-7 2-3 3z" fill="#E4E8FD"/>
<path transform="translate(855,1230)" d="m0 0 4 1v6l-1 2h-2l1-5z" fill="#FBFDFE"/>
<path transform="translate(850,1232)" d="m0 0h1v6l-2-1z" fill="#F6F9FE"/>
<path transform="translate(855,1239)" d="m0 0" fill="#FBFDFE"/>
<path transform="translate(853,1239)" d="m0 0" fill="#FBFDFE"/>
<path transform="translate(851,1238)" d="m0 0" fill="#FBFDFE"/>
<path transform="translate(851,1231)" d="m0 0" fill="#FBFDFE"/>
<path transform="translate(853,1230)" d="m0 0" fill="#FBFDFE"/>
<path transform="translate(1252,339)" d="m0 0" fill="#FBFDFE"/>
</svg>
