<svg width="26" height="26" viewBox="0 0 26 26" fill="none" xmlns="http://www.w3.org/2000/svg">
<path d="M18.0167 14.2253C17.9555 14.2881 17.7244 14.5568 17.5091 14.7778C16.2468 16.1677 12.9541 18.4427 11.2307 19.1371C10.969 19.2487 10.3072 19.4848 9.9537 19.5C9.61492 19.5 9.29198 19.422 8.98381 19.2638C8.59966 19.0428 8.29149 18.6951 8.12264 18.2845C8.01393 17.9996 7.84507 17.147 7.84507 17.1318C7.67622 16.1991 7.58334 14.6835 7.58334 13.0087C7.58334 11.4129 7.67622 9.95908 7.81447 9.01225C7.8303 8.99708 7.99916 7.93758 8.18385 7.57467C8.52262 6.91167 9.18433 6.5 9.89248 6.5H9.9537C10.4149 6.51625 11.3848 6.92792 11.3848 6.94308C13.0153 7.63858 16.2321 9.802 17.5249 11.2396C17.5249 11.2396 17.889 11.609 18.0473 11.8398C18.2943 12.1713 18.4167 12.5818 18.4167 12.9924C18.4167 13.4507 18.2784 13.8775 18.0167 14.2253" fill="white"/>
</svg>
