<svg width="52" height="51" viewBox="0 0 52 51" fill="none" xmlns="http://www.w3.org/2000/svg">
<circle cx="25.5" cy="25.5" r="25" stroke="#121838"/>
<circle cx="25.5" cy="25.5" r="16.5" fill="#F46C38"/>
<path d="M29.859 26.9425C29.8119 26.9908 29.6341 27.1975 29.4685 27.3675C28.4976 28.4367 25.9647 30.1867 24.639 30.7208C24.4377 30.8067 23.9286 30.9883 23.6567 31C23.3961 31 23.1477 30.94 22.9106 30.8183C22.6151 30.6483 22.3781 30.3808 22.2482 30.065C22.1646 29.8458 22.0347 29.19 22.0347 29.1783C21.9048 28.4608 21.8333 27.295 21.8333 26.0067C21.8333 24.7792 21.9048 23.6608 22.0111 22.9325C22.0233 22.9208 22.1532 22.1058 22.2953 21.8267C22.5559 21.3167 23.0649 21 23.6096 21H23.6567C24.0114 21.0125 24.7575 21.3292 24.7575 21.3408C26.0118 21.8758 28.4862 23.54 29.4807 24.6458C29.4807 24.6458 29.7608 24.93 29.8825 25.1075C30.0725 25.3625 30.1667 25.6783 30.1667 25.9942C30.1667 26.3467 30.0603 26.675 29.859 26.9425" fill="white"/>
<rect x="44" y="11" width="8" height="29" fill="#F3F3F3"/>
</svg>
