<svg width="40" height="40" viewBox="0 0 40 40" fill="none" xmlns="http://www.w3.org/2000/svg">
<path d="M28.6332 8.75C25.7832 8.75 22.3832 9.83333 22.3832 15V25C22.3832 30.1667 25.7832 31.25 28.6332 31.25C31.4832 31.25 34.8832 30.1667 34.8832 25V15C34.8832 9.83333 31.4832 8.75 28.6332 8.75Z" fill="#292D32"/>
<path d="M11.3668 8.75C8.51676 8.75 5.11676 9.83333 5.11676 15V25C5.11676 30.1667 8.51676 31.25 11.3668 31.25C14.2168 31.25 17.6168 30.1667 17.6168 25V15C17.6168 9.83333 14.2168 8.75 11.3668 8.75Z" fill="#292D32"/>
<path d="M22.3834 18.75H17.6168V21.25H22.3834V18.75Z" fill="#292D32"/>
<path d="M37.5 25.4167C36.8167 25.4167 36.25 24.85 36.25 24.1667V15.8333C36.25 15.15 36.8167 14.5833 37.5 14.5833C38.1833 14.5833 38.75 15.15 38.75 15.8333V24.1667C38.75 24.85 38.1833 25.4167 37.5 25.4167Z" fill="#292D32"/>
<path d="M2.5 25.4167C1.81667 25.4167 1.25 24.85 1.25 24.1667V15.8333C1.25 15.15 1.81667 14.5833 2.5 14.5833C3.18333 14.5833 3.75 15.15 3.75 15.8333V24.1667C3.75 24.85 3.18333 25.4167 2.5 25.4167Z" fill="#292D32"/>
</svg>
