<svg xmlns="http://www.w3.org/2000/svg" xmlns:xlink="http://www.w3.org/1999/xlink" class="svg-canvas" viewBox="-36.428571428571 -136.42857142857 872.85714285714 872.85714285714" width="1600" height="1600" preserveAspectRatio="none" version="1.1" style="background-color:#ffffff"><!--滤镜--><defs></defs><!-- 背景 --><g id="background"><rect x="0" y="0" fill="#FFFFFF" width="800" height="600"></rect></g><!--元素--><g id="shape_4NjPISvlNM" ref="shape_4NjPISvlNM" key="shape_4NjPISvlNM" mask=""><g transform="translate(141.64730324258912,199.65386035914798) rotate(0,100.48593003314588,98.55482082578672) scale(1,1)" style="opacity: 1;mix-blend-mode: undefined;" filter=""><!--普通元素--><svg xmlns="http://www.w3.org/2000/svg" xmlns:xlink="http://www.w3.org/1999/xlink" width="200.97186006629175" height="197.10964165157344" viewBox="-18.352696757410875 -18 200.97186006629175 197.10964165157344" version="1.1" class="style-removed" preserveAspectRatio="none" data-parent="shape_4NjPISvlNM"><title>矩形</title><g id="编辑器_x4UW3DRX38" stroke="none" stroke-width="1" fill="none" fill-rule="evenodd"><g id="画板_E95X5MtP8Z" stroke="#000000" stroke-width="4"><rect id="矩形_yCgOHdNHRB" x="0" y="0" width="164.26646655147" height="161.10964165157344" class="radius-elem" rx="13" ry="13" stroke="#000000" stroke-width="9" stroke-dasharray=""></rect></g></g></svg></g></g><g id="shape_BIB8emw52D" ref="shape_BIB8emw52D" key="shape_BIB8emw52D" mask=""><g transform="translate(78.14935055504452,-92.10749100774242) rotate(0,421.82751412073503,337.81363292620273) scale(1,1)" style="opacity: 1;mix-blend-mode: undefined;" filter=""><!--普通元素--><svg xmlns="http://www.w3.org/2000/svg" xmlns:xlink="http://www.w3.org/1999/xlink" version="1.1" width="843.65502824147" height="675.6272658524055" viewBox="0 0 677.8250641038754 542.8250641038754" data-ligature="true" data-parent="shape_BIB8emw52D"><g data-role="text" data-width="224.57124934032586" data-height="90" transform="translate(226.41253205193772, 226.41253205193772)"><path d="M9.66-43.09Q12.83-46.56 17.36-48.56Q21.89-50.56 26.72-50.56Q31.55-50.56 35.09-49.51Q38.64-48.45 41.51-46.64L41.51-46.64Q47.47-42.79 50.26-36.38L50.26-36.38L44.07-36.38Q41.81-40.45 37.77-42.75Q33.74-45.06 28.60-45.06Q23.47-45.06 19.85-43.51Q16.23-41.96 13.74-39.24L13.74-39.24Q8.60-33.66 8.60-24.98L8.60-24.98Q8.60-16.23 13.66-10.72L13.66-10.72Q19.02-4.91 27.85-4.91L27.85-4.91Q34.94-4.91 40.07-9.28L40.07-9.28Q45.51-13.89 45.51-21.43L45.51-21.43L27.24-21.43L27.24-26.57L50.72-26.57L50.72 0L45.51 0L45.51-8.83Q41.21-2.34 33.58-0.15L33.58-0.15Q30.79 0.60 26.23 0.60Q21.66 0.60 17.13-1.40Q12.60-3.40 9.43-6.87L9.43-6.87Q2.94-13.96 2.94-24.98L2.94-24.98Q2.94-35.85 9.66-43.09L9.66-43.09Z" transform="translate(0 68) " fill="#000000" stroke="#000000" stroke-width="2.516" data-glyph-w="53.5480177882549" data-glyph-h="77.7341" data-glyph-ascender="61.8854" data-glyph-descender="-15.8487" data-kerning="0"></path><path d="M24.45-38.34L24.83-38.34L24.83-32.68L24.15-32.68Q18.04-32.68 14.19-27.77L14.19-27.77Q10.57-23.09 10.57-16.60L10.57-16.60L10.57 0L4.91 0L4.91-37.73L10.57-37.73L10.57-28.45Q12.38-34.34 18.41-37.13L18.41-37.13Q20.91-38.34 24.45-38.34L24.45-38.34Z" transform="translate(53.5480177882549 68) " fill="#000000" stroke="#000000" stroke-width="2.516" data-glyph-w="25.020357788254906" data-glyph-h="77.7341" data-glyph-ascender="61.8854" data-glyph-descender="-15.8487" data-kerning="0"></path><path d="M34.34 0L34.34-6.04Q29.81 0.60 20.83 0.60L20.83 0.60Q12.68 0.60 7.55-5.06L7.55-5.06Q2.57-10.64 2.57-18.87L2.57-18.87Q2.57-27.09 7.55-32.68L7.55-32.68Q12.68-38.34 21.21-38.34Q29.74-38.34 34.34-31.62L34.34-31.62L34.34-37.73L40.00-37.73L40.00 0L34.34 0ZM21.58-4.53L21.58-4.53Q27.70-4.53 31.24-8.75L31.24-8.75Q34.64-12.75 34.64-18.87L34.64-18.87Q34.64-24.98 31.24-28.98L31.24-28.98Q27.70-33.21 21.58-33.21L21.58-33.21Q15.55-33.21 11.77-28.98L11.77-28.98Q8.23-24.98 8.23-18.87L8.23-18.87Q8.23-12.75 11.77-8.75L11.77-8.75Q15.55-4.53 21.58-4.53Z" transform="translate(77.58725460428475 68) " fill="#000000" stroke="#000000" stroke-width="2.516" data-glyph-w="43.887857788254905" data-glyph-h="77.7341" data-glyph-ascender="61.8854" data-glyph-descender="-15.8487" data-kerning="-0.9811209722250634"></path><path d="M10.57-37.73L10.57-31.70Q15.09-38.34 24.07-38.34L24.07-38.34Q32.23-38.34 37.28-32.68L37.28-32.68Q42.34-27.09 42.34-18.87L42.34-18.87Q42.34-10.64 37.28-5.06L37.28-5.06Q32.23 0.60 23.70 0.60Q15.17 0.60 10.57-6.11L10.57-6.11L10.57 14.94L4.91 14.94L4.91-37.73L10.57-37.73ZM23.32-33.21L23.32-33.21Q17.21-33.21 13.66-28.98L13.66-28.98Q10.26-24.98 10.26-18.87L10.26-18.87Q10.26-12.75 13.66-8.75L13.66-8.75Q17.21-4.53 23.32-4.53L23.32-4.53Q29.36-4.53 33.13-8.75L33.13-8.75Q36.68-12.75 36.68-18.87L36.68-18.87Q36.68-24.98 33.13-28.98L33.13-28.98Q29.36-33.21 23.32-33.21Z" transform="translate(121.47511239253964 68) " fill="#000000" stroke="#000000" stroke-width="2.516" data-glyph-w="43.8123877882549" data-glyph-h="77.7341" data-glyph-ascender="61.8854" data-glyph-descender="-15.8487" data-kerning="0"></path><path d="M10.57-37.73L10.57-31.70Q15.09-38.34 24.07-38.34L24.07-38.34Q32.23-38.34 37.28-32.68L37.28-32.68Q42.34-27.09 42.34-18.87L42.34-18.87Q42.34-10.64 37.28-5.06L37.28-5.06Q32.23 0.60 23.70 0.60Q15.17 0.60 10.57-6.11L10.57-6.11L10.57 14.94L4.91 14.94L4.91-37.73L10.57-37.73ZM23.32-33.21L23.32-33.21Q17.21-33.21 13.66-28.98L13.66-28.98Q10.26-24.98 10.26-18.87L10.26-18.87Q10.26-12.75 13.66-8.75L13.66-8.75Q17.21-4.53 23.32-4.53L23.32-4.53Q29.36-4.53 33.13-8.75L33.13-8.75Q36.68-12.75 36.68-18.87L36.68-18.87Q36.68-24.98 33.13-28.98L33.13-28.98Q29.36-33.21 23.32-33.21Z" transform="translate(165.28750018079455 68) " fill="#000000" stroke="#000000" stroke-width="2.516" data-glyph-w="43.8123877882549" data-glyph-h="77.7341" data-glyph-ascender="61.8854" data-glyph-descender="-15.8487" data-kerning="0"></path><path d="M10.57-52.83L10.57 0L4.91 0L4.91-52.83L10.57-52.83Z" transform="translate(209.09988796904946 68) " fill="#000000" stroke="#000000" stroke-width="2.516" data-glyph-w="14.454557788254906" data-glyph-h="77.7341" data-glyph-ascender="61.8854" data-glyph-descender="-15.8487" data-kerning="0"></path></g></svg></g></g><g id="shape_HiADBjOi17" ref="shape_HiADBjOi17" key="shape_HiADBjOi17" mask=""><g transform="translate(78.14935055504452,16.480225155336996) rotate(0,379.50941100052614,337.81363292620273) scale(1,1)" style="opacity: 1;mix-blend-mode: undefined;" filter=""><!--普通元素--><svg xmlns="http://www.w3.org/2000/svg" xmlns:xlink="http://www.w3.org/1999/xlink" version="1.1" width="759.0188220010523" height="675.6272658524055" viewBox="0 0 609.8250641038754 542.8250641038754" data-ligature="true" data-parent="shape_HiADBjOi17"><g data-role="text" data-width="156.72356111101095" data-height="90" transform="translate(226.41253205193772, 226.41253205193772)"><path d="M41.58-49.96L41.58-44.53L24.15-44.53L24.15 0L18.49 0L18.49-44.53L1.06-44.53L1.06-49.96L41.58-49.96Z" transform="translate(0 68) " fill="#000000" stroke="#000000" stroke-width="2.516" data-glyph-w="41.19743256187704" data-glyph-h="77.7341" data-glyph-ascender="61.8854" data-glyph-descender="-15.8487" data-kerning="0"></path><path d="M21.74-4.53L21.74-4.53Q29.36-4.53 32.68-10.87L32.68-10.87L38.87-10.87Q36.90-5.74 32.64-2.57Q28.38 0.60 21.66 0.60L21.66 0.60Q13.13 0.60 7.77-5.06L7.77-5.06Q2.57-10.57 2.57-18.87L2.57-18.87Q2.57-27.24 7.55-32.68L7.55-32.68Q12.83-38.34 21.28-38.34L21.28-38.34Q29.74-38.34 35.02-32.68L35.02-32.68Q40.00-27.24 40.00-18.87L40.00-18.87L40.00-16.60L8.38-16.60Q8.98-11.40 12.53-8.00L12.53-8.00Q16.15-4.53 21.74-4.53ZM21.28-33.21L21.28-33.21Q16.08-33.21 12.53-29.96L12.53-29.96Q9.21-26.87 8.45-21.89L8.45-21.89L34.11-21.89Q33.36-26.87 30.04-29.96L30.04-29.96Q26.49-33.21 21.28-33.21Z" transform="translate(33.8012898481804 68) " fill="#000000" stroke="#000000" stroke-width="2.516" data-glyph-w="40.593672561877035" data-glyph-h="77.7341" data-glyph-ascender="61.8854" data-glyph-descender="-15.8487" data-kerning="-7.396142713696633"></path><path d="M22.34-4.53L22.34-4.53Q25.96-4.53 28.75-6.57Q31.55-8.60 32.83-11.85L32.83-11.85L38.94-11.85Q37.21-6.26 32.60-2.87L32.60-2.87Q27.77 0.60 21.13 0.60L21.13 0.60Q12.83 0.60 7.62-5.06L7.62-5.06Q2.57-10.57 2.57-18.87L2.57-18.87Q2.57-27.17 7.62-32.68L7.62-32.68Q12.83-38.34 21.13-38.34L21.13-38.34Q27.77-38.34 32.60-34.87L32.60-34.87Q37.21-31.47 38.94-25.89L38.94-25.89L32.83-25.89Q31.55-29.13 28.75-31.17Q25.96-33.21 22.34-33.21Q18.72-33.21 16.19-32.07Q13.66-30.94 11.92-28.98L11.92-28.98Q8.23-24.91 8.23-18.87L8.23-18.87Q8.23-12.83 11.92-8.75L11.92-8.75Q15.70-4.53 22.34-4.53Z" transform="translate(74.39496241005745 68) " fill="#000000" stroke="#000000" stroke-width="2.516" data-glyph-w="39.612562561877034" data-glyph-h="77.7341" data-glyph-ascender="61.8854" data-glyph-descender="-15.8487" data-kerning="0"></path><path d="M4.91-52.83L10.57-52.83L10.57-31.85Q12.60-34.57 15.55-36.45Q18.49-38.34 22.26-38.34Q26.04-38.34 28.75-37.28Q31.47-36.23 33.51-34.11L33.51-34.11Q38.19-29.51 38.19-21.96L38.19-21.96L38.19 0L32.53 0L32.53-21.81Q32.53-27.02 29.58-30.11Q26.64-33.21 21.96-33.21L21.96-33.21Q17.21-33.21 13.89-30.04L13.89-30.04Q10.57-26.79 10.57-21.74L10.57-21.74L10.57 0L4.91 0L4.91-52.83Z" transform="translate(114.00752497193449 68) " fill="#000000" stroke="#000000" stroke-width="2.516" data-glyph-w="41.27290256187704" data-glyph-h="77.7341" data-glyph-ascender="61.8854" data-glyph-descender="-15.8487" data-kerning="0"></path></g></svg></g></g></svg>