<svg xmlns="http://www.w3.org/2000/svg" xmlns:xlink="http://www.w3.org/1999/xlink" version="1.1" preserveAspectRatio="none" viewBox="0 0 800 600" width="1600" height="1200" style="background:#000000;">
      <path transform="translate(0, 0)" fill="#ffffff" fill-rule="evenodd" d="M173,217.6538603591L311.2664665515,217.6538603591L313.8864199829973,217.9179741546004L316.32665322635324,218.67546480081558L318.53489017113884,219.8740561873167L320.4588547069251,221.46147220367487L322.0462707232833,223.3854367394612L323.24486210978444,225.59367368424674L324.00235275599965,228.03390692760263L324.2664665515,230.6538603591L324.2664665515,365.7635020107L324.00235275599965,368.3834554421973L323.24486210978444,370.82368868555324L322.0462707232833,373.03192563033883L320.4588547069251,374.9558901661251L318.53489017113884,376.5433061824833L316.32665322635324,377.7418975689844L313.8864199829973,378.49938821519964L311.2664665515,378.7635020107L173,378.7635020107L170.38004656850262,378.49938821519964L167.93981332514673,377.7418975689844L165.7315763803612,376.5433061824833L163.80761184457486,374.9558901661251L162.2201958282167,373.03192563033883L161.02160444171557,370.82368868555324L160.26411379550038,368.3834554421973L160,365.7635020107L160,230.6538603591L160.26411379550038,228.03390692760263L161.02160444171557,225.59367368424674L162.2201958282167,223.3854367394612L163.80761184457486,221.46147220367487L165.7315763803612,219.8740561873167L167.93981332514673,218.67546480081558L170.38004656850262,217.9179741546004ZM371.977049238,220.7011215748L374.05561489125,218.6560058927375L376.3457710601,216.83959466505002L378.84751774455003,215.2518878917375L381.5608549446,213.8928855728L384.40332459167496,212.80381674251873L387.2924686172,212.02591043517498L390.22828702117494,211.55916665076873L393.2107798036,211.4035853893L396.1162598615562,211.48526555156874L398.82104009222496,211.730306038375L401.3251204956062,212.13870684971874L403.6285010717,212.7104679856L407.8354183819,214.26316897509997L411.6191546609,216.282613749L415.081615634925,218.87770919033753L418.05088401010005,221.87109266105L420.526959786425,225.2627641611375L422.5098429639,229.0527236906L414.8054588958,229.0527236906L413.2605369693937,226.65755017024998L411.438680397575,224.5377554827L409.3398891803437,222.69333962794997L406.9641633177,221.124302606L404.36984578263747,219.866428107L401.60283304735,218.967946322L398.6631251118375,218.428857251L395.5507219761,218.249160894L392.4756583431125,218.3697363716375L389.63552241495006,218.73146280454998L387.0303141916125,219.33434019273747L384.6600336731,220.1783685362L382.4951204197312,221.23398739530623L380.50601399182494,222.471636330325L378.6927143893812,223.89131534125625L377.0552216124,225.4930244281L375.5558072049703,227.28959904494374L374.25631471853126,229.20674913942497L373.15674415308274,231.24447471154375L372.25709550862496,233.4027757613L371.5573687851578,235.68165228869375L371.05756398268124,238.081104293725L370.7576811011953,240.60113177639377L370.6577201407,243.2417347367L370.7561252885813,245.90139640155468L371.051340732225,248.43503724461874L371.5433664716313,250.8426572658922L372.23220250680004,253.124256465375L373.1178488377313,255.27983484306716L374.200305464425,257.3093923989687L375.4795723868813,259.2129291330797L376.9556496051,260.9904450454L378.69096410021564,262.6853084125563L380.5612453396625,264.1541899974251L382.5664933234407,265.39708980000626L384.70670805155,266.4140078203L386.9818895239906,267.2049440583063L389.3920377407625,267.76989851402504L391.9371527018656,268.10887118745626L394.6172344073,268.2218620786L398.87704934636247,267.8819170222875L402.83192501295,266.86208185335L406.48186140706247,265.1623565717875L409.8268585287,262.7827411776L411.4137873957235,261.29130030981094L412.78912574714377,259.68589616799375L413.95287358296093,257.9665287521484L414.905030903175,256.13319806227497L415.64559770778595,254.18590409837344L416.17457399679375,252.12464686044376L416.49195977019843,249.94942634848593L416.597755028,247.6602425625L393.8579978513,247.6602425625L393.8579978513,241.2627410908L423.0823820061,241.2627410908L423.0823820061,274.3330940292L416.597755028,274.3330940292L416.597755028,263.3428337188L415.1949954792391,265.2786535646594L413.6627145303063,267.0472235544375L412.00091218120156,268.64854368813434L410.209588431925,270.08261396575L408.2887432824766,271.3494343872844L406.2383767328563,272.4490049527375L404.05848878306404,273.38132566210936L401.7490794331,274.1463965154L399.8751031386938,274.55479732674996L397.72574801147505,274.846512192L395.30101405144376,275.02154111115L392.6009012586,275.0798840842L389.7599874241313,274.92430282273125L386.925296840125,274.457559038325L384.09682950658123,273.6796527309813L381.2745854235,272.5905839007L378.56124822345,271.2315815817625L376.05950153900005,269.64387480845L373.76934537015006,267.8274635807625L371.6907797169,265.7823478987L369.7975502413688,263.49977631635L368.15675136257505,261.0643461446L366.7683830805188,258.47605738345L365.63244539519997,255.73491003289996L364.74893830661875,252.84090409294998L364.117861814775,249.7940395636L363.73921591966877,246.59431644485L363.6130006213,243.2417347367L363.7436888809359,239.9299931097172L364.1357536598437,236.75944147751875L364.7891949580234,233.7300798401047L365.704012775475,230.84190819747502L366.88020711219843,228.09492654962972L368.31777796819375,225.48913489656874L370.01672534346096,223.02453323829218ZM457.0339693496,226.6132095107L457.5069363845,226.6132095107L457.5069363845,233.6579290301L456.6605743221,233.6579290301L454.80332301329054,233.75341702932815L453.03397511721244,234.0398810270125L451.3525306338655,234.51732102315313L449.75898956324994,235.18573701775L448.25335190536555,236.04512901080312L446.83561766021245,237.09549700231253L445.5057868277906,238.33684099227813L444.2638594081,239.7691609807L442.29264482521876,242.82244323708125L440.884634408875,246.15732757672498L440.03982815906875,249.77381399963127L439.7582260758,253.6719025058L439.7582260758,274.3330940292L432.7135065564,274.3330940292L432.7135065564,227.3724460667L439.7582260758,227.3724460667L439.7582260758,238.9227989183L440.40349935775157,237.15033939699373L441.21291087055624,235.49845535332497L442.18646061421407,233.96714678729376L443.324148588725,232.5564136989L444.6259747940891,231.26625608814373L446.09193923030625,230.09667395502498L447.7220418973766,229.04766729954375L449.5162827953,228.1192361217L451.1529976660063,227.4603494793875L452.95151704862496,226.98971616345L454.9118409431562,226.70733617388748ZM499.2639970664,274.3330940292L499.2639970664,266.8154074749L497.7678887607578,268.75239418020476L496.09869630173125,270.4311159914688L494.25641968932035,271.8515729086922L492.24105892352503,273.013764931875L490.05261400434534,273.9176920610172L487.6910849317813,274.56335429611875L485.1564717058328,274.9507516371797L482.4487743265,275.0798840842L479.97153169072965,274.9698103417094L477.6117529073687,274.6395891142375L475.3694379764172,274.08922040178436L473.244586897875,273.31870420434996L471.23719967174225,272.3280405219343L469.34727629801876,271.11722935453747L467.57481677670467,269.6862707021594L465.9198211078,268.0351645648L464.46708107881557,266.2473413939141L463.2080397203625,264.35644563730625L462.1426970324406,262.36247729497654L461.27105301505,260.265436366925L460.59310766819056,258.06532285315154L460.10886099186246,255.76213675365622L459.8183129860656,253.35587806843904L459.7214636508,250.8465467975L459.8183129860656,248.3399381986094L460.10886099186246,245.9356242791375L460.59310766819056,243.6336050390844L461.27105301505,241.43388047845002L462.1426970324406,239.33645059723437L463.2080397203625,237.3413153954375L464.46708107881557,235.4484748730594L465.9198211078,233.6579290301L467.58220688662493,232.00682289274064L469.3768367377,230.57586424036248L471.303710661025,229.36505307296562L473.3628286566,228.37438939055L475.554190724425,227.60387319311562L477.8777968645,227.05350448066247L480.333647076825,226.7232832531906L482.9217413614,226.6132095107L485.49952838740313,226.74389777033593L487.9244568240125,227.13596254924374L490.1965266712281,227.7894038474234L492.31573792905,228.70422166487498L494.28209059747815,229.8804160015984L496.0955846765125,231.31798685759375L497.7562201661531,233.01693423286093L499.2639970664,234.9772581274L499.2639970664,227.3724460667L506.3087165858,227.3724460667L506.3087165858,274.3330940292ZM483.3822618954,268.6948291135L486.99019134890625,268.36655265179377L490.19672114782503,267.381723266675L493.00185129215623,265.74034095814375L495.4055817819,263.4424057262L497.25699879340004,260.78818940549377L498.57943951590005,257.804140810475L499.37290394940004,254.49025994114376L499.6373920939,250.8465467975L499.37290394940004,247.2082789979625L498.57943951590005,243.89828766015L497.25699879340004,240.91657278406248L495.4055817819,238.2631343697L493.00185129215623,235.9597537936125L490.19672114782503,234.31448195355L486.99019134890625,233.3273188495125L483.3822618954,232.9982644815L479.80467078785625,233.3273188495125L476.577137518625,234.31448195355L473.6996620877062,235.9597537936125L471.1722444951,238.2631343697L469.24459266545625,240.91657278406248L467.867698501425,243.89828766015L467.0415620030063,247.2082789979625L466.7661831702,250.8465467975L467.0415620030063,254.49025994114376L467.867698501425,257.804140810475L469.24459266545625,260.78818940549377L471.1722444951,263.4424057262L473.6996620877062,265.74034095814375L476.577137518625,267.381723266675L479.80467078785625,268.36655265179377ZM524.3036906087,227.3724460667L524.3036906087,234.87768612L525.7968817656704,232.94069941469533L527.4635460291813,231.26197760343126L529.3036833992328,229.84152068620784L531.317293875825,228.679328663025L533.5043774589578,227.7754015338828L535.8649341486313,227.12973929878123L538.3989639448453,226.7423419577203L541.1064668476,226.6132095107L543.5850708194047,226.7232832531906L545.9427103604187,227.05350448066247L548.179385470642,227.60387319311562L550.295096150075,228.37438939055L552.2898423987172,229.36505307296562L554.1636242165687,230.57586424036248L555.9164416036297,232.00682289274064L557.5482945599,233.6579290301L559.0243717780953,235.4484748730594L560.3036387005312,237.3413153954375L561.3860953272077,239.33645059723437L562.271741658125,241.43388047845002L562.9605776932829,243.6336050390844L563.4526034326813,245.9356242791375L563.7478188763203,248.3399381986094L563.8462240242,250.8465467975L563.7478188763203,253.35587806843904L563.4526034326813,255.76213675365622L562.9605776932829,258.06532285315154L562.271741658125,260.265436366925L561.3860953272077,262.36247729497654L560.3036387005312,264.35644563730625L559.0243717780953,266.2473413939141L557.5482945599,268.0351645648L555.909245970286,269.6862707021594L554.1348416831938,271.11722935453747L552.2250816986234,272.3280405219343L550.179966016575,273.31870420434996L547.9994946370484,274.08922040178436L545.6836675600438,274.6395891142375L543.2324847855609,274.9698103417094L540.6459463136,275.0798840842L538.0681592875985,274.94939030114216L535.6432308509937,274.5579089519688L533.371161003786,273.9054400366797L531.251949745975,272.991983555275L529.285597077561,271.81753950775465L527.4721029985437,270.3821078941188L525.8114675089234,268.6856887143672L524.3036906087,266.7282819685L524.3036906087,292.9281664002L517.2589710893,292.9281664002L517.2589710893,227.3724460667ZM540.1729792788,232.9982644815L536.5697172630937,233.3273188495125L533.364743276775,234.31448195355L530.5580573198438,235.9597537936125L528.1496593923,238.2631343697L526.2982423807562,240.91657278406248L524.975801658225,243.89828766015L524.1823372247062,247.2082789979625L523.9178490802,250.8465467975L524.1823372247062,254.49025994114376L524.975801658225,257.804140810475L526.2982423807562,260.78818940549377L528.1496593923,263.4424057262L530.5580573198438,265.74034095814375L533.364743276775,267.381723266675L536.5697172630937,268.36655265179377L540.1729792788,268.6948291135L543.7552378241749,268.36655265179377L546.984326906,267.381723266675L549.860246524275,265.74034095814375L552.382996679,263.4424057262L554.3160938527876,260.78818940549377L555.6968775483501,257.804140810475L556.5253477656876,254.49025994114376L556.8015045048,250.8465467975L556.5253477656876,247.2082789979625L555.6968775483501,243.89828766015L554.3160938527876,240.91657278406248L552.382996679,238.2631343697L549.860246524275,235.9597537936125L546.984326906,234.31448195355L543.7552378241749,233.3273188495125ZM578.8347830901,227.3724460667L578.8347830901,234.87768612L580.3279742470704,232.94069941469533L581.9946385105812,231.26197760343126L583.8347758806328,229.84152068620784L585.848386357225,228.679328663025L588.0354699403579,227.7754015338828L590.3960266300312,227.12973929878123L592.9300564262453,226.7423419577203L595.637559329,226.6132095107L598.1161633008047,226.7232832531906L600.4738028418187,227.05350448066247L602.7104779520421,227.60387319311562L604.826188631475,228.37438939055L606.8209348801172,229.36505307296562L608.6947166979687,230.57586424036248L610.4475340850297,232.00682289274064L612.0793870413,233.6579290301L613.5554642595187,235.4484748730594L614.8347311819749,237.3413153954375L615.9171878086687,239.33645059723437L616.8028341396,241.43388047845002L617.4916701747687,243.6336050390844L617.983695914175,245.9356242791375L618.2789113578187,248.3399381986094L618.3773165057,250.8465467975L618.2789113578187,253.35587806843904L617.983695914175,255.76213675365622L617.4916701747687,258.06532285315154L616.8028341396,260.265436366925L615.9171878086687,262.36247729497654L614.8347311819749,264.35644563730625L613.5554642595187,266.2473413939141L612.0793870413,268.0351645648L610.440338451686,269.6862707021594L608.6659341645939,271.11722935453747L606.7561741800234,272.3280405219343L604.711058497975,273.31870420434996L602.5305871184485,274.08922040178436L600.2147600414438,274.6395891142375L597.763577266961,274.9698103417094L595.177038795,275.0798840842L592.5992517689986,274.94939030114216L590.1743233323938,274.5579089519688L587.9022534851861,273.9054400366797L585.7830422273751,272.991983555275L583.816689558961,271.81753950775465L582.0031954799438,270.3821078941188L580.3425599903235,268.6856887143672L578.8347830901,266.7282819685L578.8347830901,292.9281664002L571.7900635707,292.9281664002L571.7900635707,227.3724460667ZM594.7040717602,232.9982644815L591.1008097445311,233.3273188495125L587.8958357582248,234.31448195355L585.0891498012811,235.9597537936125L582.6807518737,238.2631343697L580.8293348621562,240.91657278406248L579.506894139625,243.89828766015L578.7134297061062,247.2082789979625L578.4489415616,250.8465467975L578.7134297061062,254.49025994114376L579.506894139625,257.804140810475L580.8293348621562,260.78818940549377L582.6807518737,263.4424057262L585.0891498012811,265.74034095814375L587.8958357582248,267.381723266675L591.1008097445311,268.36655265179377L594.7040717602,268.6948291135L598.2863303055749,268.36655265179377L601.5154193874,267.381723266675L604.391339005675,265.74034095814375L606.9140891604,263.4424057262L608.8471863341874,260.78818940549377L610.2279700297499,257.804140810475L611.0564402470875,254.49025994114376L611.3325969862,250.8465467975L611.0564402470875,247.2082789979625L610.2279700297499,243.89828766015L608.8471863341874,240.91657278406248L606.9140891604,238.2631343697L604.391339005675,235.9597537936125L601.5154193874,234.31448195355L598.2863303055749,233.3273188495125ZM633.3658755714,208.5782296809L633.3658755714,274.3330940292L626.321156052,274.3330940292L626.321156052,208.5782296809ZM411.7062801673,320.7380916073L411.7062801673,327.4965416056L390.0120290677,327.4965416056L390.0120290677,382.9208101922L382.9673095483,382.9208101922L382.9673095483,327.4965416056L361.2730584487,327.4965416056L361.2730584487,320.7380916073ZM429.0832008581,377.2825452765L431.3706343548844,377.1592471267828L433.49081799558746,376.78935267763126L435.44375178020937,376.1728619290453L437.22943570875,375.309774881025L438.8478697812094,374.20009153357034L440.2990539975875,372.84381188668124L441.58298835788435,371.2409359403579L442.6996728621,369.3914636946L450.4040569301,369.3914636946L448.9999360453188,372.4315215437563L447.239534071775,375.16664012042503L445.1228510094687,377.5968194246063L442.6498868584,379.7220594563L439.80741721133745,381.4482335523188L436.58221766105,382.68121504947504L432.9742882075375,383.4210039477688L428.9836288508,383.6676002472L426.3910616049578,383.5575265047094L423.92179250883123,383.2273052772375L421.5758215624203,382.67693656478446L419.353148765725,381.90642036735005L417.25377411874535,380.9157566849344L415.27769762148125,379.7049455175375L413.42491927393286,378.2739868651594L411.6954390761,376.6228807278L410.17852177675627,374.85411626146094L408.863860117325,372.97683386524375L407.75145409780623,370.9910335391485L406.8413037181999,368.896715283175L406.1334089785062,366.6938790973235L405.62776987872496,364.38252498159375L405.32438641885625,361.96265293598594L405.2232585989,359.4342629605L405.32010793416555,356.8868142804656L405.6106559399625,354.4533288744625L406.0949026162906,352.1338067424906L406.77284796314996,349.92824788455L407.6444919805406,347.8366523006406L408.70983466846246,345.8590199907625L409.9688760269156,343.9953509549156L411.4216160559,342.2456451931L413.12620325188436,340.5945390557406L414.95408859758754,339.1635804033625L416.9052720930094,337.95276923596566L418.97975373815,336.96210555355003L421.17753353300935,336.1915893561156L423.4986114775875,335.6412206436625L425.9429875718844,335.3109994161906L428.5106618159,335.2009256737L431.0812532085641,335.3109994161906L433.5281574983563,335.6412206436625L435.8513746852766,336.1915893561156L438.05090476932503,336.96210555355003L440.12674775050164,337.95276923596566L442.0789036288063,339.1635804033625L443.9073724042391,340.5945390557406L445.6121540768,342.2456451931L447.06489410578433,343.9953509549156L448.3239354642375,345.8590199907625L449.3892781521594,347.8366523006406L450.26092216955,349.92824788455L450.93886751640935,352.1338067424906L451.4231141927375,354.4533288744625L451.7136621985344,356.8868142804656L451.8105115338,359.4342629605L451.8105115338,362.2596186688L412.454675632,362.2596186688L413.05755302021873,365.355685772075L414.11939512977494,368.1717066047L415.6402019606687,370.70768116667494L417.6199735129,372.963609458L420.02603772155,374.85314387859376L422.7385970153,376.202811321875L425.75765139415,377.01261178784375ZM428.5106618159,341.5859806445L425.4029261180125,341.8388001943875L422.55189950155,342.59725884405L419.9575819665125,343.8613565934875L417.6199735129,345.6310934427L415.7529983752375,347.70110212658744L414.28431126695,350.06515939465L413.21391218803745,352.72326524688754L412.5418011385,355.6754196833L444.4795224933,355.6754196833L443.8128567879063,352.72326524688754L442.746347240525,350.06515939465L441.2799938511563,347.70110212658744L439.4137966198,345.6310934427L437.0754102598812,343.8613565934875L434.478759005925,342.59725884405L431.6238428579312,341.8388001943875ZM480.3549091926,377.2825452765L482.54315963523123,377.1238523898L484.60227763082503,376.6477737297L486.5322631793813,375.8543092962L488.3331162809,374.7434590893L489.957384650675,373.38523467665004L491.34516950299997,371.837201125L492.496470837875,370.09935843435005L493.4112886553,368.1717066047L501.016100716,368.1717066047L499.71544137012506,371.4793642235813L497.9667079912,374.44474306722503L495.769900579225,377.0678431356313L493.1250191342,379.3486644288L489.97838812096245,381.23819884935006L486.55015502444996,382.58786629260004L482.8403198446624,383.39766675855003L478.8488825816,383.6676002472L476.32632690341876,383.5575265047094L473.923957749725,383.2273052772375L471.6417751205188,382.67693656478446L469.47977901580003,381.90642036735005L467.4379694355688,380.9157566849344L465.516346379825,379.7049455175375L463.71490984856877,378.2739868651594L462.0336598418,376.6228807278L460.56049977222966,374.85411626146094L459.28376104526876,372.97683386524375L458.2034436609172,370.9910335391485L457.319547619175,368.896715283175L456.6320729200422,366.6938790973235L456.1410195635188,364.38252498159375L455.8463875496047,361.96265293598594L455.7481768783,359.4342629605L455.8463875496047,356.9058729850125L456.1410195635188,354.4860009394L456.6320729200422,352.17464682366244L457.319547619175,349.9718106378L458.2034436609172,347.8774923818125L459.28376104526876,345.8916920557L460.56049977222966,344.01440965946244L462.0336598418,342.2456451931L463.71490984856877,340.5945390557406L465.516346379825,339.1635804033625L467.4379694355688,337.95276923596566L469.47977901580003,336.96210555355003L471.6417751205188,336.1915893561156L473.923957749725,335.6412206436625L476.32632690341876,335.3109994161906L478.8488825816,335.2009256737L482.8403198446624,335.47085916235L486.55015502444996,336.28065962830004L489.97838812096245,337.63032707155L493.1250191342,339.5198614921L495.769900579225,341.80535022314376L497.9667079912,344.430006104175L499.71544137012506,347.39382913519376L501.016100716,350.6968193162L493.4112886553,350.6968193162L492.496470837875,348.7738349244312L491.34516950299997,347.03754804642494L489.957384650675,345.4879586821812L488.3331162809,344.1250668317L486.5322631793813,343.01421662480004L484.60227763082503,342.2207521913L482.54315963523123,341.7446735312L480.3549091926,341.5859806445L478.18688431400625,341.6746619635375L476.188443010425,341.94070592065003L474.3595852818562,342.3841125158375L472.7003111283,343.0048817491L469.797164789225,344.66960124685L467.3856552364,346.8508505327L465.3763232445125,349.536961012L463.94108610745,352.52956657640004L463.0799438252125,355.82866722590006L462.7928963978,359.4342629605L463.0799438252125,363.0406366014063L463.94108610745,366.34207096982504L465.3763232445125,369.33856606575625L467.3856552364,372.0301218892L469.96052511375,374.32805712114373L472.98035739889997,375.969439429675L476.44515209185,376.95426881479375ZM507.9644377209,317.1659458439L515.0091572403,317.1659458439L515.0091572403,343.2787047693L517.8220664477001,340.15463303895L521.2075146973,337.5533143471L523.1017165557499,336.52414430248746L525.1250508612,335.78902284205003L527.2775176136499,335.3479499657875L529.5591168131,335.2009256737L531.8282695116624,335.2833837422813L533.9309502604499,335.530757948025L535.8671590594624,335.94304829093124L537.6368959087,336.520254771L540.8107536427251,338.160081266875L543.5614303456,340.4657955619L544.9266559149906,341.95451375759376L546.1098514084624,343.55797313362496L547.1110168260157,345.27617368999375L547.93015216765,347.1091154267L548.5672574333656,349.05679834374376L549.0223326231625,351.119222441125L549.2953777370406,353.29638771884373L549.386392775,355.5882941769L549.386392775,382.9208101922L542.3416732556,382.9208101922L542.3416732556,355.7749916907L542.1121908949312,352.69759433876874L541.423743812925,349.95002926117496L540.2763320095812,347.53229645791873L538.6699554849,345.444395929L536.7049641525188,343.75633924203123L534.4692614251751,342.550584465625L531.9628473028688,341.82713159978124L529.1857217856,341.5859806445L526.3409184196,341.83257694393126L523.7185962574999,342.572365842225L521.3187552993002,343.8053473393812L519.141395545,345.5315214354L517.3335412866937,347.6941009698313L516.042216816475,350.136726774925L515.2674221343439,352.85939885068126L515.0091572403,355.8621171971L515.0091572403,382.9208101922L507.9644377209,382.9208101922Z"></path></svg>